SplineFontDB: 3.2
FontName: InputDispiArrow
FullName: InputDispiArrow
FamilyName: InputDispiArrow
Weight: Medium
Copyright: Orkney-Medium\n\\(c\\)2013-2015 Orkney is a trademark of Samuel Oakes and Alfredo Marco Pradil. All rights reserved.
Version: 001.000
ItalicAngle: 0
UnderlinePosition: -100
UnderlineWidth: 43
Ascent: 750
Descent: 250
InvalidEm: 0
sfntRevision: 0x00010000
LayerCount: 2
Layer: 0 0 "+gMyXYgAA" 1
Layer: 1 0 "+Uk2XYgAA" 0
XUID: [1021 212 1565241594 21564]
StyleMap: 0x0040
FSType: 8
OS2Version: 3
OS2_WeightWidthSlopeOnly: 0
OS2_UseTypoMetrics: 0
CreationTime: 1457532753
ModificationTime: 1745667171
PfmFamily: 81
TTFWeight: 500
TTFWidth: 5
LineGap: 200
VLineGap: 0
Panose: 0 0 6 0 0 0 0 0 0 0
OS2TypoAscent: 750
OS2TypoAOffset: 0
OS2TypoDescent: -250
OS2TypoDOffset: 0
OS2TypoLinegap: 0
OS2WinAscent: 871
OS2WinAOffset: 0
OS2WinDescent: 309
OS2WinDOffset: 0
HheadAscent: 750
HheadAOffset: 0
HheadDescent: -250
HheadDOffset: 0
OS2SubXSize: 650
OS2SubYSize: 600
OS2SubXOff: 0
OS2SubYOff: 75
OS2SupXSize: 650
OS2SupYSize: 600
OS2SupXOff: 0
OS2SupYOff: 350
OS2StrikeYSize: 43
OS2StrikeYPos: 300
OS2CapHeight: 750
OS2XHeight: 500
OS2Vendor: 'SOAP'
OS2CodePages: 20000093.00000000
OS2UnicodeRanges: 00000007.00000000.00000000.00000000
Lookup: 1 0 0 "'aalt' +MFkweTBmMG51cE9TW1cweDBuMKIwrzC7MLkA in +MOkwxjDzZYdbVwAA lookup 0" { "'aalt' +MFkweTBmMG51cE9TW1cweDBuMKIwrzC7MLkA in +MOkwxjDzZYdbVwAA lookup 0 +MLUw1jDGMPww1jDr"  } ['aalt' ('DFLT' <'dflt' > 'latn' <'AZE ' 'CAT ' 'CRT ' 'KAZ ' 'MOL ' 'ROM ' 'TAT ' 'TRK ' 'dflt' > ) ]
Lookup: 3 0 0 "'aalt' +MFkweTBmMG51cE9TW1cweDBuMKIwrzC7MLkA in +MOkwxjDzZYdbVwAA lookup 1" { "'aalt' +MFkweTBmMG51cE9TW1cweDBuMKIwrzC7MLkA in +MOkwxjDzZYdbVwAA lookup 1 +MLUw1jDGMPww1jDr"  } ['aalt' ('DFLT' <'dflt' > 'latn' <'AZE ' 'CAT ' 'CRT ' 'KAZ ' 'MOL ' 'ROM ' 'TAT ' 'TRK ' 'dflt' > ) ]

StartChar: .notdef
Encoding: 65536 -1 0
Width: 605
Flags: MW
HStem: 0 85<172 433 172 518> 665 85<172 433 172 172>
VStem: 87 85<85 85 85 665> 433 85<85 665 665 665>
LayerCount: 2
Fore
SplineSet
87 0 m 1
 87 750 l 1
 518 750 l 1
 518 0 l 1
 87 0 l 1
172 85 m 1
 433 85 l 1
 433 665 l 1
 172 665 l 1
 172 85 l 1
EndSplineSet
Validated: 1
EndChar

StartChar: A
Encoding: 65 65 1
Width: 762
GlyphClass: 2
Flags: MW
HStem: 0 21G<15 140 15 15 621 746 621 621> 151 96<234 527 234 564 198 527> 632 118<381 381> 730 20G<316 445 445 445>
VStem: 15 731<0 0>
AnchorPoint: "Anchor-3" 0 0 basechar 0
AnchorPoint: "Anchor-2" 381 750 basechar 0
AnchorPoint: "Anchor-1" 746 0 basechar 0
AnchorPoint: "Anchor-0" 381 0 basechar 0
LayerCount: 2
Fore
SplineSet
621 0 m 1xd8
 564 151 l 1
 198 151 l 1
 140 0 l 1
 15 0 l 1
 316 750 l 1
 445 750 l 1
 746 0 l 1
 621 0 l 1xd8
234 247 m 1
 527 247 l 1
 381 632 l 1xe8
 234 247 l 1
EndSplineSet
Validated: 1
Substitution2: "+U1h9FH9uY9sA lookup 16 +MLUw1jDGMPww1jDr" ordfeminine
Substitution2: "'aalt' +MFkweTBmMG51cE9TW1cweDBuMKIwrzC7MLkA in +MOkwxjDzZYdbVwAA lookup 0 +MLUw1jDGMPww1jDr" ordfeminine
Position2: "'cpsp' +WSdlh1tXfUQwf3UoMLkw2jD8MLcw8zCw in +MOkwxjDzZYdbVwAA lookup 0 +MLUw1jDGMPww1jDr" dx=5 dy=0 dh=10 dv=0
EndChar

StartChar: Aacute
Encoding: 193 193 2
Width: 762
GlyphClass: 2
Flags: MW
HStem: 0 21G<15 140 15 15 621 746 621 621> 151 96<234 527 234 564 198 527> 632 118<381 381> 730 20G<316 445 445 445> 840 160<339 539 339 539>
VStem: 15 731<0 0>
AnchorPoint: "Anchor-3" 0 0 basechar 0
AnchorPoint: "Anchor-2" 381 859 basechar 0
AnchorPoint: "Anchor-1" 746 0 basechar 0
AnchorPoint: "Anchor-0" 381 0 basechar 0
LayerCount: 2
Fore
SplineSet
539 1000 m 1xdc
 426 840 l 1
 339 840 l 1
 426 1000 l 1
 539 1000 l 1xdc
621 0 m 1
 564 151 l 1
 198 151 l 1
 140 0 l 1
 15 0 l 1
 316 750 l 1
 445 750 l 1
 746 0 l 1
 621 0 l 1
234 247 m 1
 527 247 l 1
 381 632 l 1xec
 234 247 l 1
EndSplineSet
Validated: 1
Position2: "'cpsp' +WSdlh1tXfUQwf3UoMLkw2jD8MLcw8zCw in +MOkwxjDzZYdbVwAA lookup 0 +MLUw1jDGMPww1jDr" dx=5 dy=0 dh=10 dv=0
EndChar

StartChar: Abreve
Encoding: 258 258 3
Width: 762
GlyphClass: 2
Flags: MW
HStem: 0 21G<15 140 15 15 621 746 621 621> 151 96<234 527 234 564 198 527> 632 118<381 381> 730 20G<316 445 445 445> 812 66<349 412 349 430.5>
VStem: 209 66<948.5 974 948.5 974> 487 65<948.5 974>
AnchorPoint: "Anchor-3" 0 0 basechar 0
AnchorPoint: "Anchor-2" 381 957 basechar 0
AnchorPoint: "Anchor-1" 746 0 basechar 0
AnchorPoint: "Anchor-0" 381 0 basechar 0
LayerCount: 2
Fore
SplineSet
380 812 m 0xde
 281 812 209 870 209 974 c 1
 275 974 l 1
 275 923 318 878 380 878 c 0
 444 878 487 923 487 974 c 1
 552 974 l 1
 552 870 481 812 380 812 c 0xde
621 0 m 1
 564 151 l 1
 198 151 l 1
 140 0 l 1
 15 0 l 1
 316 750 l 1
 445 750 l 1
 746 0 l 1
 621 0 l 1
234 247 m 1
 527 247 l 1
 381 632 l 1xee
 234 247 l 1
EndSplineSet
Validated: 1
Position2: "'cpsp' +WSdlh1tXfUQwf3UoMLkw2jD8MLcw8zCw in +MOkwxjDzZYdbVwAA lookup 0 +MLUw1jDGMPww1jDr" dx=5 dy=0 dh=10 dv=0
EndChar

StartChar: uni01CD
Encoding: 461 461 4
Width: 762
GlyphClass: 2
Flags: MW
HStem: 0 21G<15 140 15 15 621 746 621 621> 151 96<234 527 234 564 198 527> 632 118<381 381> 730 20G<316 445 445 445> 829 171<219 439 219 322>
VStem: 15 731<0 0>
AnchorPoint: "Anchor-3" 0 0 basechar 0
AnchorPoint: "Anchor-2" 381 1000 basechar 0
AnchorPoint: "Anchor-1" 746 0 basechar 0
AnchorPoint: "Anchor-0" 381 0 basechar 0
LayerCount: 2
Fore
SplineSet
439 829 m 1xdc
 322 829 l 1
 219 1000 l 1
 303 1000 l 1
 381 881 l 1
 459 1000 l 1
 543 1000 l 1
 439 829 l 1xdc
621 0 m 1
 564 151 l 1
 198 151 l 1
 140 0 l 1
 15 0 l 1
 316 750 l 1
 445 750 l 1
 746 0 l 1
 621 0 l 1
234 247 m 1
 527 247 l 1
 381 632 l 1xec
 234 247 l 1
EndSplineSet
Validated: 1
Position2: "'cpsp' +WSdlh1tXfUQwf3UoMLkw2jD8MLcw8zCw in +MOkwxjDzZYdbVwAA lookup 0 +MLUw1jDGMPww1jDr" dx=5 dy=0 dh=10 dv=0
EndChar

StartChar: Acircumflex
Encoding: 194 194 5
Width: 762
GlyphClass: 2
Flags: MW
HStem: 0 21G<15 140 15 15 621 746 621 621> 151 96<234 527 234 564 198 527> 632 118<381 381> 730 20G<316 445 445 445> 829 171<219 439 219 439 322 455 322 543>
VStem: 15 731<0 0>
AnchorPoint: "Anchor-3" 0 0 basechar 0
AnchorPoint: "Anchor-2" 381 983 basechar 0
AnchorPoint: "Anchor-1" 746 0 basechar 0
AnchorPoint: "Anchor-0" 381 0 basechar 0
LayerCount: 2
Fore
SplineSet
381 949 m 1xdc
 306 829 l 1
 219 829 l 1
 322 1000 l 1
 439 1000 l 1
 543 829 l 1
 455 829 l 1
 381 949 l 1xdc
621 0 m 1
 564 151 l 1
 198 151 l 1
 140 0 l 1
 15 0 l 1
 316 750 l 1
 445 750 l 1
 746 0 l 1
 621 0 l 1
234 247 m 1
 527 247 l 1
 381 632 l 1xec
 234 247 l 1
EndSplineSet
Validated: 1
Position2: "'cpsp' +WSdlh1tXfUQwf3UoMLkw2jD8MLcw8zCw in +MOkwxjDzZYdbVwAA lookup 0 +MLUw1jDGMPww1jDr" dx=5 dy=0 dh=10 dv=0
EndChar

StartChar: Adieresis
Encoding: 196 196 6
Width: 762
GlyphClass: 2
Flags: MW
HStem: 0 21G<15 140 15 15 621 746 621 621> 151 96<234 527 234 564 198 527> 632 118<381 381> 730 20G<316 445 445 445> 840 135<262.5 299.5 462.5 499.5>
VStem: 213 136<888.5 926> 413 135<888.5 926>
AnchorPoint: "Anchor-3" 0 0 basechar 0
AnchorPoint: "Anchor-2" 381 983 basechar 0
AnchorPoint: "Anchor-1" 746 0 basechar 0
AnchorPoint: "Anchor-0" 381 0 basechar 0
LayerCount: 2
Fore
SplineSet
281 840 m 0xde
 244 840 213 870 213 907 c 0
 213 945 244 975 281 975 c 0
 318 975 349 945 349 907 c 0
 349 870 318 840 281 840 c 0xde
481 840 m 0
 444 840 413 870 413 907 c 0
 413 945 444 975 481 975 c 0
 518 975 548 945 548 907 c 0
 548 870 518 840 481 840 c 0
621 0 m 1
 564 151 l 1
 198 151 l 1
 140 0 l 1
 15 0 l 1
 316 750 l 1
 445 750 l 1
 746 0 l 1
 621 0 l 1
234 247 m 1
 527 247 l 1
 381 632 l 1xee
 234 247 l 1
EndSplineSet
Validated: 1
Position2: "'cpsp' +WSdlh1tXfUQwf3UoMLkw2jD8MLcw8zCw in +MOkwxjDzZYdbVwAA lookup 0 +MLUw1jDGMPww1jDr" dx=5 dy=0 dh=10 dv=0
EndChar

StartChar: uni1EA0
Encoding: 7840 7840 7
Width: 762
GlyphClass: 2
Flags: MW
HStem: -196 136<362.5 399.5> 0 21G<15 140 15 15 621 746 621 621> 151 96<234 527 234 564 198 527> 632 118<381 381> 730 20G<316 445 445 445>
VStem: 313 136<-146.5 -109.5>
AnchorPoint: "Anchor-3" 0 0 basechar 0
AnchorPoint: "Anchor-2" 381 750 basechar 0
AnchorPoint: "Anchor-1" 746 0 basechar 0
AnchorPoint: "Anchor-0" 381 -196 basechar 0
LayerCount: 2
Fore
SplineSet
746 0 m 1xec
 621 0 l 1
 564 151 l 1
 198 151 l 1
 140 0 l 1
 15 0 l 1
 316 750 l 1
 445 750 l 1
 746 0 l 1xec
234 247 m 1
 527 247 l 1
 381 632 l 1xf4
 234 247 l 1
381 -60 m 0
 418 -60 449 -91 449 -128 c 0
 449 -165 418 -196 381 -196 c 0
 344 -196 313 -165 313 -128 c 0
 313 -91 344 -60 381 -60 c 0
EndSplineSet
Validated: 1
Position2: "'cpsp' +WSdlh1tXfUQwf3UoMLkw2jD8MLcw8zCw in +MOkwxjDzZYdbVwAA lookup 0 +MLUw1jDGMPww1jDr" dx=5 dy=0 dh=10 dv=0
EndChar

StartChar: Agrave
Encoding: 192 192 8
Width: 762
GlyphClass: 2
Flags: MW
HStem: 0 21G<15 140 15 15 621 746 621 621> 151 96<234 527 234 564 198 527> 632 118<381 381> 730 20G<316 445 445 445> 840 160<219 419 219 333>
VStem: 15 731<0 0>
AnchorPoint: "Anchor-3" 0 0 basechar 0
AnchorPoint: "Anchor-2" 381 859 basechar 0
AnchorPoint: "Anchor-1" 746 0 basechar 0
AnchorPoint: "Anchor-0" 381 0 basechar 0
LayerCount: 2
Fore
SplineSet
419 840 m 1xdc
 333 840 l 1
 219 1000 l 1
 332 1000 l 1
 419 840 l 1xdc
621 0 m 1
 564 151 l 1
 198 151 l 1
 140 0 l 1
 15 0 l 1
 316 750 l 1
 445 750 l 1
 746 0 l 1
 621 0 l 1
234 247 m 1
 527 247 l 1
 381 632 l 1xec
 234 247 l 1
EndSplineSet
Validated: 1
Position2: "'cpsp' +WSdlh1tXfUQwf3UoMLkw2jD8MLcw8zCw in +MOkwxjDzZYdbVwAA lookup 0 +MLUw1jDGMPww1jDr" dx=5 dy=0 dh=10 dv=0
EndChar

StartChar: Amacron
Encoding: 256 256 9
Width: 762
GlyphClass: 2
Flags: MW
HStem: 0 21G<15 140 15 15 621 746 621 621> 151 96<234 527 234 564 198 527> 632 118<381 381> 730 20G<316 445 445 445> 844 72<226 536 226 536>
VStem: 15 731<0 0>
AnchorPoint: "Anchor-3" 0 0 basechar 0
AnchorPoint: "Anchor-2" 381 1000 basechar 0
AnchorPoint: "Anchor-1" 746 0 basechar 0
AnchorPoint: "Anchor-0" 381 0 basechar 0
LayerCount: 2
Fore
SplineSet
536 916 m 1xdc
 536 844 l 1
 226 844 l 1
 226 916 l 1
 536 916 l 1xdc
621 0 m 1
 564 151 l 1
 198 151 l 1
 140 0 l 1
 15 0 l 1
 316 750 l 1
 445 750 l 1
 746 0 l 1
 621 0 l 1
234 247 m 1
 527 247 l 1
 381 632 l 1xec
 234 247 l 1
EndSplineSet
Validated: 1
Position2: "'cpsp' +WSdlh1tXfUQwf3UoMLkw2jD8MLcw8zCw in +MOkwxjDzZYdbVwAA lookup 0 +MLUw1jDGMPww1jDr" dx=5 dy=0 dh=10 dv=0
EndChar

StartChar: Aogonek
Encoding: 260 260 10
Width: 762
GlyphClass: 2
Flags: MW
HStem: -259 57 0 21G<15 140 15 15 621 649 621 621 711 746> 151 96<234 527 234 564 198 527> 632 118<381 381> 730 20G<316 445 445 445>
VStem: 532 76<-159 -119.5>
AnchorPoint: "Anchor-3" 0 0 basechar 0
AnchorPoint: "Anchor-2" 381 750 basechar 0
AnchorPoint: "Anchor-1" 746 0 basechar 0
AnchorPoint: "Anchor-0" 381 0 basechar 0
LayerCount: 2
Fore
SplineSet
763 -153 m 1xec
 799 -204 l 1
 759 -244 706 -262 652 -259 c 0
 583 -255 532 -219 532 -151 c 0
 532 -88 575 -35 649 0 c 1
 621 0 l 1
 564 151 l 1
 198 151 l 1
 140 0 l 1
 15 0 l 1
 316 750 l 1
 445 750 l 1
 746 0 l 1
 676 0 608 -73 608 -142 c 0
 608 -176 630 -202 671 -202 c 0
 707 -202 743 -182 763 -153 c 1xec
234 247 m 1
 527 247 l 1
 381 632 l 1xf4
 234 247 l 1
EndSplineSet
Validated: 33
Position2: "'cpsp' +WSdlh1tXfUQwf3UoMLkw2jD8MLcw8zCw in +MOkwxjDzZYdbVwAA lookup 0 +MLUw1jDGMPww1jDr" dx=5 dy=0 dh=10 dv=0
EndChar

StartChar: Aring
Encoding: 197 197 11
Width: 762
GlyphClass: 2
Flags: MW
HStem: 0 21G<15 140 15 15 621 746 621 621> 151 96<234 527 234 564 198 527> 732 20 873 47<365.5 398.5>
VStem: 273 50<796.5 828.5 794.5 841.5> 441 48<796 828.5>
AnchorPoint: "Anchor-3" 0 0 basechar 0
AnchorPoint: "Anchor-2" 382 806 basechar 0
AnchorPoint: "Anchor-1" 746 0 basechar 0
AnchorPoint: "Anchor-0" 381 0 basechar 0
LayerCount: 2
Fore
SplineSet
621 0 m 1
 564 151 l 1
 198 151 l 1
 140 0 l 1
 15 0 l 1
 309 732 l 1
 287 752 273 781 273 812 c 0
 273 871 322 920 382 920 c 0
 441 920 489 871 489 812 c 0
 489 780 475 751 453 731 c 1
 746 0 l 1
 621 0 l 1
382 873 m 0
 349 873 323 845 323 812 c 0
 323 777 349 752 382 752 c 0
 415 752 441 777 441 812 c 0
 441 845 415 873 382 873 c 0
234 247 m 1
 527 247 l 1
 381 632 l 1
 234 247 l 1
EndSplineSet
Validated: 1
Position2: "'cpsp' +WSdlh1tXfUQwf3UoMLkw2jD8MLcw8zCw in +MOkwxjDzZYdbVwAA lookup 0 +MLUw1jDGMPww1jDr" dx=5 dy=0 dh=10 dv=0
EndChar

StartChar: Atilde
Encoding: 195 195 12
Width: 762
GlyphClass: 2
Flags: MW
HStem: 0 21G<15 140 15 15 621 746 621 621> 151 96<234 527 234 564 198 527> 632 118<381 381> 730 20G<316 445 445 445> 828 66<438.5 461 438.5 483.5> 909 66<301 323>
VStem: 213.43 66.83 481.31 66.69
AnchorPoint: "Anchor-3" 0 0 basechar 0
AnchorPoint: "Anchor-2" 381 970 basechar 0
AnchorPoint: "Anchor-1" 746 0 basechar 0
AnchorPoint: "Anchor-0" 381 0 basechar 0
LayerCount: 2
Fore
SplineSet
284 837 m 1xdf
 216 837 l 1
 202 918 247 975 312 975 c 0xdf
 355 975 387 952 409 919 c 0
 419 902 430 894 447 894 c 0
 475 894 488 923 478 966 c 1
 545 966 l 1
 560 887 518 828 449 828 c 0xdb
 410 828 379 845 353 884 c 0
 342 901 331 909 315 909 c 0
 287 909 273 879 284 837 c 1xdf
621 0 m 1
 564 151 l 1
 198 151 l 1
 140 0 l 1
 15 0 l 1
 316 750 l 1
 445 750 l 1
 746 0 l 1
 621 0 l 1
234 247 m 1
 527 247 l 1
 381 632 l 1xeb
 234 247 l 1
EndSplineSet
Validated: 33
Position2: "'cpsp' +WSdlh1tXfUQwf3UoMLkw2jD8MLcw8zCw in +MOkwxjDzZYdbVwAA lookup 0 +MLUw1jDGMPww1jDr" dx=5 dy=0 dh=10 dv=0
EndChar

StartChar: AE
Encoding: 198 198 13
Width: 915
GlyphClass: 2
Flags: MW
HStem: 0 98<556 870 556 870> 161 88<240 444 202 445> 331 88<556 828 556 828> 652 98<396 445 396 396 556 870 556 556>
VStem: 445 111<249 331 419 652>
LayerCount: 2
Fore
SplineSet
15 0 m 1
 316 750 l 1
 870 750 l 1
 870 652 l 1
 556 652 l 1
 556 419 l 1
 828 419 l 1
 828 331 l 1
 556 331 l 1
 556 98 l 1
 870 98 l 1
 870 0 l 1
 444 0 l 1
 444 161 l 1
 202 161 l 1
 144 0 l 1
 15 0 l 1
240 249 m 1
 445 249 l 1
 445 652 l 1
 396 652 l 1
 240 249 l 1
EndSplineSet
Validated: 1
Position2: "'cpsp' +WSdlh1tXfUQwf3UoMLkw2jD8MLcw8zCw in +MOkwxjDzZYdbVwAA lookup 0 +MLUw1jDGMPww1jDr" dx=5 dy=0 dh=10 dv=0
EndChar

StartChar: B
Encoding: 66 66 14
Width: 648
GlyphClass: 2
Flags: MW
HStem: 0 101<184 372 372 388> 328 94<184 318 318 349 184 372 184 318> 649 101<184 318 184 184>
VStem: 70 114<101 328 422 649> 430 115<509 567> 485 115<184 245.5>
AnchorPoint: "Anchor-3" 0 0 basechar 0
AnchorPoint: "Anchor-2" 317 750 basechar 0
AnchorPoint: "Anchor-1" 0 0 basechar 0
AnchorPoint: "Anchor-0" 317 0 basechar 0
LayerCount: 2
Fore
SplineSet
454 386 m 1xf4
 539 363 600 300 600 201 c 0xf4
 600 78 506 0 388 0 c 2
 70 0 l 1
 70 750 l 1
 331 750 l 2
 450 750 545 670 545 547 c 0xf8
 545 471 509 417 454 386 c 1xf4
430 536 m 0xf8
 430 598 380 649 318 649 c 2
 184 649 l 1
 184 422 l 1
 318 422 l 2
 380 422 430 474 430 536 c 0xf8
372 101 m 2xf4
 435 101 485 153 485 215 c 0
 485 276 435 328 372 328 c 2
 184 328 l 1
 184 101 l 1
 372 101 l 2xf4
EndSplineSet
Validated: 1
Position2: "'cpsp' +WSdlh1tXfUQwf3UoMLkw2jD8MLcw8zCw in +MOkwxjDzZYdbVwAA lookup 0 +MLUw1jDGMPww1jDr" dx=5 dy=0 dh=10 dv=0
EndChar

StartChar: uni1E04
Encoding: 7684 7684 15
Width: 648
GlyphClass: 2
Flags: MW
HStem: -196 136<298.5 335.5> 0 101<184 372 372 388> 328 94<184 318 318 349 184 372 184 318> 649 101<184 318 184 184>
VStem: 70 114<101 328 422 649> 249 136<-146.5 -109.5> 430 115<509 567> 485 115<184 245.5>
AnchorPoint: "Anchor-3" 0 0 basechar 0
AnchorPoint: "Anchor-2" 317 750 basechar 0
AnchorPoint: "Anchor-1" 0 0 basechar 0
AnchorPoint: "Anchor-0" 317 -196 basechar 0
LayerCount: 2
Fore
SplineSet
454 386 m 1x7d
 539 363 600 300 600 201 c 0x7d
 600 78 506 0 388 0 c 2
 70 0 l 1
 70 750 l 1
 331 750 l 2
 450 750 545 670 545 547 c 0x7e
 545 471 509 417 454 386 c 1x7d
430 536 m 0x7e
 430 598 380 649 318 649 c 2
 184 649 l 1
 184 422 l 1
 318 422 l 2
 380 422 430 474 430 536 c 0x7e
372 101 m 2xfd
 435 101 485 153 485 215 c 0
 485 276 435 328 372 328 c 2
 184 328 l 1
 184 101 l 1
 372 101 l 2xfd
317 -60 m 0
 354 -60 385 -91 385 -128 c 0
 385 -165 354 -196 317 -196 c 0
 280 -196 249 -165 249 -128 c 0
 249 -91 280 -60 317 -60 c 0
EndSplineSet
Validated: 1
Position2: "'cpsp' +WSdlh1tXfUQwf3UoMLkw2jD8MLcw8zCw in +MOkwxjDzZYdbVwAA lookup 0 +MLUw1jDGMPww1jDr" dx=5 dy=0 dh=10 dv=0
EndChar

StartChar: C
Encoding: 67 67 16
Width: 654
GlyphClass: 2
Flags: MW
HStem: -10 109<337.5 450.5> 651 109<337.5 450.5 308.5 451.5>
VStem: 49 108<297.5 452.5 297.5 481.5>
AnchorPoint: "Anchor-3" 0 0 basechar 0
AnchorPoint: "Anchor-2" 415 750 basechar 0
AnchorPoint: "Anchor-1" 0 0 basechar 0
AnchorPoint: "Anchor-0" 415 0 basechar 0
LayerCount: 2
Fore
SplineSet
415 -10 m 0
 202 -10 49 162 49 375 c 0
 49 588 202 760 415 760 c 0
 486 760 553 737 607 698 c 1
 607 561 l 1
 554 621 488 651 415 651 c 0
 260 651 157 530 157 375 c 0
 157 220 260 99 415 99 c 0
 488 99 555 129 607 189 c 1
 607 52 l 1
 553 13 486 -10 415 -10 c 0
EndSplineSet
Validated: 1
Position2: "'cpsp' +WSdlh1tXfUQwf3UoMLkw2jD8MLcw8zCw in +MOkwxjDzZYdbVwAA lookup 0 +MLUw1jDGMPww1jDr" dx=5 dy=0 dh=10 dv=0
EndChar

StartChar: Cacute
Encoding: 262 262 17
Width: 654
GlyphClass: 2
Flags: MW
HStem: -10 109<337.5 450.5> 651 109<337.5 450.5 308.5 451.5> 840 160<373 573 373 573>
VStem: 49 108<297.5 452.5 297.5 481.5>
AnchorPoint: "Anchor-3" 0 0 basechar 0
AnchorPoint: "Anchor-2" 415 859 basechar 0
AnchorPoint: "Anchor-1" 0 0 basechar 0
AnchorPoint: "Anchor-0" 415 0 basechar 0
LayerCount: 2
Fore
SplineSet
373 840 m 1
 460 1000 l 1
 573 1000 l 1
 460 840 l 1
 373 840 l 1
415 -10 m 0
 202 -10 49 162 49 375 c 0
 49 588 202 760 415 760 c 0
 486 760 553 737 607 698 c 1
 607 561 l 1
 554 621 488 651 415 651 c 0
 260 651 157 530 157 375 c 0
 157 220 260 99 415 99 c 0
 488 99 555 129 607 189 c 1
 607 52 l 1
 553 13 486 -10 415 -10 c 0
EndSplineSet
Validated: 1
Position2: "'cpsp' +WSdlh1tXfUQwf3UoMLkw2jD8MLcw8zCw in +MOkwxjDzZYdbVwAA lookup 0 +MLUw1jDGMPww1jDr" dx=5 dy=0 dh=10 dv=0
EndChar

StartChar: Ccaron
Encoding: 268 268 18
Width: 654
GlyphClass: 2
Flags: MW
HStem: -10 109<337.5 450.5> 651 109<337.5 450.5 308.5 451.5> 829 171<253 356 253 473>
VStem: 49 108<297.5 452.5 297.5 481.5>
AnchorPoint: "Anchor-3" 0 0 basechar 0
AnchorPoint: "Anchor-2" 415 1000 basechar 0
AnchorPoint: "Anchor-1" 0 0 basechar 0
AnchorPoint: "Anchor-0" 415 0 basechar 0
LayerCount: 2
Fore
SplineSet
356 829 m 1
 253 1000 l 1
 337 1000 l 1
 415 881 l 1
 493 1000 l 1
 577 1000 l 1
 473 829 l 1
 356 829 l 1
415 -10 m 0
 202 -10 49 162 49 375 c 0
 49 588 202 760 415 760 c 0
 486 760 553 737 607 698 c 1
 607 561 l 1
 554 621 488 651 415 651 c 0
 260 651 157 530 157 375 c 0
 157 220 260 99 415 99 c 0
 488 99 555 129 607 189 c 1
 607 52 l 1
 553 13 486 -10 415 -10 c 0
EndSplineSet
Validated: 1
Position2: "'cpsp' +WSdlh1tXfUQwf3UoMLkw2jD8MLcw8zCw in +MOkwxjDzZYdbVwAA lookup 0 +MLUw1jDGMPww1jDr" dx=5 dy=0 dh=10 dv=0
EndChar

StartChar: Ccedilla
Encoding: 199 199 19
Width: 654
GlyphClass: 2
Flags: MW
HStem: -260 53<414 440.5 414 455.5> -106.76 45.17 -9 108<383 383 437 437> 651 109<337.5 450.5 308.5 451.5>
VStem: 49 108<297.5 452.5 297.5 481.5> 477 54<-169.5 -133.5>
AnchorPoint: "Anchor-3" 0 0 basechar 0
AnchorPoint: "Anchor-2" 415 750 basechar 0
AnchorPoint: "Anchor-1" 0 0 basechar 0
AnchorPoint: "Anchor-0" 426 -260 basechar 0
LayerCount: 2
Fore
SplineSet
415 651 m 0
 260 651 157 530 157 375 c 0
 157 220 260 99 415 99 c 0
 488 99 555 129 607 189 c 1
 607 52 l 1
 559 17 500 -5 437 -9 c 1
 409 -64 l 1
 477 -51 531 -92 531 -155 c 0
 531 -213 485 -260 426 -260 c 0
 379 -260 328 -230 310 -192 c 1
 360 -173 l 1
 373 -192 402 -207 426 -207 c 0
 455 -207 477 -184 477 -155 c 0
 477 -112 436 -94 384 -116 c 1
 341 -89 l 1
 383 -9 l 1
 187 7 49 173 49 375 c 0
 49 588 202 760 415 760 c 0
 486 760 553 737 607 698 c 1
 607 561 l 1
 554 621 488 651 415 651 c 0
EndSplineSet
Validated: 33
Position2: "'cpsp' +WSdlh1tXfUQwf3UoMLkw2jD8MLcw8zCw in +MOkwxjDzZYdbVwAA lookup 0 +MLUw1jDGMPww1jDr" dx=5 dy=0 dh=10 dv=0
EndChar

StartChar: Cdotaccent
Encoding: 266 266 20
Width: 654
GlyphClass: 2
Flags: MW
HStem: -10 109<337.5 450.5> 651 109<337.5 450.5 308.5 451.5> 840 135<396.5 433.5>
VStem: 49 108<297.5 452.5 297.5 481.5> 347 136<888.5 926>
AnchorPoint: "Anchor-3" 0 0 basechar 0
AnchorPoint: "Anchor-2" 415 1010 basechar 0
AnchorPoint: "Anchor-1" 0 0 basechar 0
AnchorPoint: "Anchor-0" 415 0 basechar 0
LayerCount: 2
Fore
SplineSet
415 840 m 0
 378 840 347 870 347 907 c 0
 347 945 378 975 415 975 c 0
 452 975 483 945 483 907 c 0
 483 870 452 840 415 840 c 0
415 -10 m 0
 202 -10 49 162 49 375 c 0
 49 588 202 760 415 760 c 0
 486 760 553 737 607 698 c 1
 607 561 l 1
 554 621 488 651 415 651 c 0
 260 651 157 530 157 375 c 0
 157 220 260 99 415 99 c 0
 488 99 555 129 607 189 c 1
 607 52 l 1
 553 13 486 -10 415 -10 c 0
EndSplineSet
Validated: 1
Position2: "'cpsp' +WSdlh1tXfUQwf3UoMLkw2jD8MLcw8zCw in +MOkwxjDzZYdbVwAA lookup 0 +MLUw1jDGMPww1jDr" dx=5 dy=0 dh=10 dv=0
EndChar

StartChar: D
Encoding: 68 68 21
Width: 716
GlyphClass: 2
Flags: MW
HStem: 0 101<184 291 291 292> 649 101<184 291 184 184>
VStem: 70 114<101 101 101 649> 552 115<298.5 451.5>
AnchorPoint: "Anchor-3" 153 375 basechar 0
AnchorPoint: "Anchor-2" 291 750 basechar 0
AnchorPoint: "Anchor-1" 0 0 basechar 0
AnchorPoint: "Anchor-0" 291 0 basechar 0
LayerCount: 2
Fore
SplineSet
70 0 m 1
 70 750 l 1
 292 750 l 2
 499 750 667 582 667 375 c 0
 667 168 499 0 292 0 c 2
 70 0 l 1
184 101 m 1
 291 101 l 2
 437 101 552 222 552 375 c 0
 552 528 437 649 291 649 c 2
 184 649 l 1
 184 101 l 1
EndSplineSet
Validated: 1
Position2: "'cpsp' +WSdlh1tXfUQwf3UoMLkw2jD8MLcw8zCw in +MOkwxjDzZYdbVwAA lookup 0 +MLUw1jDGMPww1jDr" dx=5 dy=0 dh=10 dv=0
EndChar

StartChar: Eth
Encoding: 208 208 22
Width: 716
GlyphClass: 2
Flags: MW
HStem: 0 101<184 291 291 292> 336 78<-5 70 -5 70 184 310> 649 101<184 291 184 184>
VStem: 70 114<101 336 101 336 101 336 414 649> 552 115<298.5 451.5>
AnchorPoint: "Anchor-3" 153 375 basechar 0
AnchorPoint: "Anchor-2" 291 750 basechar 0
AnchorPoint: "Anchor-1" 0 0 basechar 0
AnchorPoint: "Anchor-0" 291 0 basechar 0
LayerCount: 2
Fore
SplineSet
292 750 m 2
 499 750 667 582 667 375 c 0
 667 168 499 0 292 0 c 2
 70 0 l 1
 70 336 l 1
 -5 336 l 1
 -5 414 l 1
 70 414 l 1
 70 750 l 1
 292 750 l 2
291 101 m 2
 437 101 552 222 552 375 c 0
 552 528 437 649 291 649 c 2
 184 649 l 1
 184 414 l 1
 310 414 l 1
 310 336 l 1
 184 336 l 1
 184 101 l 1
 291 101 l 2
EndSplineSet
Validated: 1
Position2: "'cpsp' +WSdlh1tXfUQwf3UoMLkw2jD8MLcw8zCw in +MOkwxjDzZYdbVwAA lookup 0 +MLUw1jDGMPww1jDr" dx=5 dy=0 dh=10 dv=0
EndChar

StartChar: Dcaron
Encoding: 270 270 23
Width: 716
GlyphClass: 2
Flags: MW
HStem: 0 101<184 291 291 292> 649 101<184 291 184 184> 829 171<129 232 129 349>
VStem: 70 114<101 101 101 649> 552 115<298.5 451.5>
AnchorPoint: "Anchor-3" 153 375 basechar 0
AnchorPoint: "Anchor-2" 291 1000 basechar 0
AnchorPoint: "Anchor-1" 0 0 basechar 0
AnchorPoint: "Anchor-0" 291 0 basechar 0
LayerCount: 2
Fore
SplineSet
232 829 m 1
 129 1000 l 1
 213 1000 l 1
 291 881 l 1
 369 1000 l 1
 453 1000 l 1
 349 829 l 1
 232 829 l 1
70 0 m 1
 70 750 l 1
 292 750 l 2
 499 750 667 582 667 375 c 0
 667 168 499 0 292 0 c 2
 70 0 l 1
184 101 m 1
 291 101 l 2
 437 101 552 222 552 375 c 0
 552 528 437 649 291 649 c 2
 184 649 l 1
 184 101 l 1
EndSplineSet
Validated: 1
Position2: "'cpsp' +WSdlh1tXfUQwf3UoMLkw2jD8MLcw8zCw in +MOkwxjDzZYdbVwAA lookup 0 +MLUw1jDGMPww1jDr" dx=5 dy=0 dh=10 dv=0
EndChar

StartChar: Dcroat
Encoding: 272 272 24
Width: 716
GlyphClass: 2
Flags: MW
HStem: 0 101<184 291 291 292> 336 78<-5 70 -5 70 184 310> 649 101<184 291 184 184>
VStem: 70 114<101 336 101 336 101 336 414 649> 552 115<298.5 451.5>
AnchorPoint: "Anchor-3" 153 375 basechar 0
AnchorPoint: "Anchor-2" 291 750 basechar 0
AnchorPoint: "Anchor-1" 0 0 basechar 0
AnchorPoint: "Anchor-0" 291 0 basechar 0
LayerCount: 2
Fore
SplineSet
292 750 m 2
 499 750 667 582 667 375 c 0
 667 168 499 0 292 0 c 2
 70 0 l 1
 70 336 l 1
 -5 336 l 1
 -5 414 l 1
 70 414 l 1
 70 750 l 1
 292 750 l 2
291 101 m 2
 437 101 552 222 552 375 c 0
 552 528 437 649 291 649 c 2
 184 649 l 1
 184 414 l 1
 310 414 l 1
 310 336 l 1
 184 336 l 1
 184 101 l 1
 291 101 l 2
EndSplineSet
Validated: 1
Position2: "'cpsp' +WSdlh1tXfUQwf3UoMLkw2jD8MLcw8zCw in +MOkwxjDzZYdbVwAA lookup 0 +MLUw1jDGMPww1jDr" dx=5 dy=0 dh=10 dv=0
EndChar

StartChar: E
Encoding: 69 69 25
Width: 542
GlyphClass: 2
Flags: MW
HStem: 0 101<185 497 185 497> 324 102<185 455 185 455> 649 101<185 497 185 185>
VStem: 70 115<101 324 426 649>
AnchorPoint: "Anchor-3" 0 0 basechar 0
AnchorPoint: "Anchor-2" 283 750 basechar 0
AnchorPoint: "Anchor-1" 497 0 basechar 0
AnchorPoint: "Anchor-0" 283 0 basechar 0
LayerCount: 2
Fore
SplineSet
497 649 m 1
 185 649 l 1
 185 426 l 1
 455 426 l 1
 455 324 l 1
 185 324 l 1
 185 101 l 1
 497 101 l 1
 497 0 l 1
 70 0 l 1
 70 750 l 1
 497 750 l 1
 497 649 l 1
EndSplineSet
Validated: 1
Position2: "'cpsp' +WSdlh1tXfUQwf3UoMLkw2jD8MLcw8zCw in +MOkwxjDzZYdbVwAA lookup 0 +MLUw1jDGMPww1jDr" dx=5 dy=0 dh=10 dv=0
EndChar

StartChar: Eacute
Encoding: 201 201 26
Width: 542
GlyphClass: 2
Flags: MW
HStem: 0 101<185 497 185 497> 324 102<185 455 185 455> 649 101<185 497 185 185> 840 160<241 441 241 441>
VStem: 70 115<101 324 426 649>
AnchorPoint: "Anchor-3" 0 0 basechar 0
AnchorPoint: "Anchor-2" 283 859 basechar 0
AnchorPoint: "Anchor-1" 497 0 basechar 0
AnchorPoint: "Anchor-0" 283 0 basechar 0
LayerCount: 2
Fore
SplineSet
441 1000 m 1
 328 840 l 1
 241 840 l 1
 328 1000 l 1
 441 1000 l 1
497 649 m 1
 185 649 l 1
 185 426 l 1
 455 426 l 1
 455 324 l 1
 185 324 l 1
 185 101 l 1
 497 101 l 1
 497 0 l 1
 70 0 l 1
 70 750 l 1
 497 750 l 1
 497 649 l 1
EndSplineSet
Validated: 1
Position2: "'cpsp' +WSdlh1tXfUQwf3UoMLkw2jD8MLcw8zCw in +MOkwxjDzZYdbVwAA lookup 0 +MLUw1jDGMPww1jDr" dx=5 dy=0 dh=10 dv=0
EndChar

StartChar: Ecaron
Encoding: 282 282 27
Width: 542
GlyphClass: 2
Flags: MW
HStem: 0 101<185 497 185 497> 324 102<185 455 185 455> 649 101<185 497 185 185> 829 171<121 341 121 224>
VStem: 70 115<101 324 426 649>
AnchorPoint: "Anchor-3" 0 0 basechar 0
AnchorPoint: "Anchor-2" 283 1000 basechar 0
AnchorPoint: "Anchor-1" 497 0 basechar 0
AnchorPoint: "Anchor-0" 283 0 basechar 0
LayerCount: 2
Fore
SplineSet
341 829 m 1
 224 829 l 1
 121 1000 l 1
 205 1000 l 1
 283 881 l 1
 361 1000 l 1
 445 1000 l 1
 341 829 l 1
497 649 m 1
 185 649 l 1
 185 426 l 1
 455 426 l 1
 455 324 l 1
 185 324 l 1
 185 101 l 1
 497 101 l 1
 497 0 l 1
 70 0 l 1
 70 750 l 1
 497 750 l 1
 497 649 l 1
EndSplineSet
Validated: 1
Position2: "'cpsp' +WSdlh1tXfUQwf3UoMLkw2jD8MLcw8zCw in +MOkwxjDzZYdbVwAA lookup 0 +MLUw1jDGMPww1jDr" dx=5 dy=0 dh=10 dv=0
EndChar

StartChar: uni0228
Encoding: 552 552 28
Width: 542
GlyphClass: 2
Flags: MW
HStem: -260 53<282 308.5 282 323.5> -106.76 45.17 0 101<185 256 310 497 310 310> 324 102<185 455 185 455> 649 101<185 497 185 185>
VStem: 70 115<101 324 426 649> 345 54<-169.5 -133.5>
AnchorPoint: "Anchor-3" 0 0 basechar 0
AnchorPoint: "Anchor-2" 283 750 basechar 0
AnchorPoint: "Anchor-1" 497 0 basechar 0
AnchorPoint: "Anchor-0" 294 -260 basechar 0
LayerCount: 2
Fore
SplineSet
497 649 m 1
 185 649 l 1
 185 426 l 1
 455 426 l 1
 455 324 l 1
 185 324 l 1
 185 101 l 1
 497 101 l 1
 497 0 l 1
 310 0 l 1
 277 -64 l 1
 345 -51 399 -92 399 -155 c 0
 399 -213 353 -260 294 -260 c 0
 247 -260 196 -230 178 -192 c 1
 228 -173 l 1
 241 -192 270 -207 294 -207 c 0
 323 -207 345 -184 345 -155 c 0
 345 -112 304 -94 252 -116 c 1
 209 -89 l 1
 256 0 l 1
 70 0 l 1
 70 750 l 1
 497 750 l 1
 497 649 l 1
EndSplineSet
Validated: 33
Position2: "'cpsp' +WSdlh1tXfUQwf3UoMLkw2jD8MLcw8zCw in +MOkwxjDzZYdbVwAA lookup 0 +MLUw1jDGMPww1jDr" dx=5 dy=0 dh=10 dv=0
EndChar

StartChar: Ecircumflex
Encoding: 202 202 29
Width: 542
GlyphClass: 2
Flags: MW
HStem: 0 101<185 497 185 497> 324 102<185 455 185 455> 649 101<185 497 185 185> 829 171<121 341 121 341 224 357 224 445>
VStem: 70 115<101 324 426 649>
AnchorPoint: "Anchor-3" 0 0 basechar 0
AnchorPoint: "Anchor-2" 283 983 basechar 0
AnchorPoint: "Anchor-1" 497 0 basechar 0
AnchorPoint: "Anchor-0" 283 0 basechar 0
LayerCount: 2
Fore
SplineSet
283 949 m 1
 208 829 l 1
 121 829 l 1
 224 1000 l 1
 341 1000 l 1
 445 829 l 1
 357 829 l 1
 283 949 l 1
497 649 m 1
 185 649 l 1
 185 426 l 1
 455 426 l 1
 455 324 l 1
 185 324 l 1
 185 101 l 1
 497 101 l 1
 497 0 l 1
 70 0 l 1
 70 750 l 1
 497 750 l 1
 497 649 l 1
EndSplineSet
Validated: 1
Position2: "'cpsp' +WSdlh1tXfUQwf3UoMLkw2jD8MLcw8zCw in +MOkwxjDzZYdbVwAA lookup 0 +MLUw1jDGMPww1jDr" dx=5 dy=0 dh=10 dv=0
EndChar

StartChar: Edieresis
Encoding: 203 203 30
Width: 542
GlyphClass: 2
Flags: MW
HStem: 0 101<185 497 185 497> 324 102<185 455 185 455> 649 101<185 497 185 185> 840 135<164.5 201.5 364.5 401.5>
VStem: 70 115<101 324 426 649> 115 136<888.5 926> 315 135<888.5 926>
AnchorPoint: "Anchor-3" 0 0 basechar 0
AnchorPoint: "Anchor-2" 283 983 basechar 0
AnchorPoint: "Anchor-1" 497 0 basechar 0
AnchorPoint: "Anchor-0" 283 0 basechar 0
LayerCount: 2
Fore
SplineSet
183 840 m 0xf6
 146 840 115 870 115 907 c 0
 115 945 146 975 183 975 c 0
 220 975 251 945 251 907 c 0
 251 870 220 840 183 840 c 0xf6
383 840 m 0
 346 840 315 870 315 907 c 0
 315 945 346 975 383 975 c 0
 420 975 450 945 450 907 c 0
 450 870 420 840 383 840 c 0
497 649 m 1
 185 649 l 1
 185 426 l 1
 455 426 l 1
 455 324 l 1
 185 324 l 1
 185 101 l 1
 497 101 l 1
 497 0 l 1
 70 0 l 1
 70 750 l 1xe8
 497 750 l 1
 497 649 l 1
EndSplineSet
Validated: 1
Position2: "'cpsp' +WSdlh1tXfUQwf3UoMLkw2jD8MLcw8zCw in +MOkwxjDzZYdbVwAA lookup 0 +MLUw1jDGMPww1jDr" dx=5 dy=0 dh=10 dv=0
EndChar

StartChar: Edotaccent
Encoding: 278 278 31
Width: 542
GlyphClass: 2
Flags: MW
HStem: 0 101<185 497 185 497> 324 102<185 455 185 455> 649 101<185 497 185 185> 840 135<264.5 301.5>
VStem: 70 115<101 324 426 649> 215 136<888.5 926>
AnchorPoint: "Anchor-3" 0 0 basechar 0
AnchorPoint: "Anchor-2" 283 1010 basechar 0
AnchorPoint: "Anchor-1" 497 0 basechar 0
AnchorPoint: "Anchor-0" 283 0 basechar 0
LayerCount: 2
Fore
SplineSet
283 840 m 0
 246 840 215 870 215 907 c 0
 215 945 246 975 283 975 c 0
 320 975 351 945 351 907 c 0
 351 870 320 840 283 840 c 0
497 649 m 1
 185 649 l 1
 185 426 l 1
 455 426 l 1
 455 324 l 1
 185 324 l 1
 185 101 l 1
 497 101 l 1
 497 0 l 1
 70 0 l 1
 70 750 l 1xe8
 497 750 l 1
 497 649 l 1
EndSplineSet
Validated: 1
Position2: "'cpsp' +WSdlh1tXfUQwf3UoMLkw2jD8MLcw8zCw in +MOkwxjDzZYdbVwAA lookup 0 +MLUw1jDGMPww1jDr" dx=5 dy=0 dh=10 dv=0
EndChar

StartChar: uni1EB8
Encoding: 7864 7864 32
Width: 542
GlyphClass: 2
Flags: MW
HStem: -196 136<264.5 301.5> 0 101<185 497 185 497> 324 102<185 455 185 455> 649 101<185 497 185 185>
VStem: 70 115<101 324 426 649> 215 136<-146.5 -109.5>
AnchorPoint: "Anchor-3" 0 0 basechar 0
AnchorPoint: "Anchor-2" 283 750 basechar 0
AnchorPoint: "Anchor-1" 497 0 basechar 0
AnchorPoint: "Anchor-0" 283 -196 basechar 0
LayerCount: 2
Fore
SplineSet
497 649 m 1
 185 649 l 1
 185 426 l 1
 455 426 l 1
 455 324 l 1
 185 324 l 1
 185 101 l 1
 497 101 l 1
 497 0 l 1
 70 0 l 1
 70 750 l 1
 497 750 l 1
 497 649 l 1
283 -60 m 0xfc
 320 -60 351 -91 351 -128 c 0
 351 -165 320 -196 283 -196 c 0
 246 -196 215 -165 215 -128 c 0
 215 -91 246 -60 283 -60 c 0xfc
EndSplineSet
Validated: 1
Position2: "'cpsp' +WSdlh1tXfUQwf3UoMLkw2jD8MLcw8zCw in +MOkwxjDzZYdbVwAA lookup 0 +MLUw1jDGMPww1jDr" dx=5 dy=0 dh=10 dv=0
EndChar

StartChar: Egrave
Encoding: 200 200 33
Width: 542
GlyphClass: 2
Flags: MW
HStem: 0 101<185 497 185 497> 324 102<185 455 185 455> 649 101<185 497 185 185> 840 160<121 321 121 235>
VStem: 70 115<101 324 426 649>
AnchorPoint: "Anchor-3" 0 0 basechar 0
AnchorPoint: "Anchor-2" 283 859 basechar 0
AnchorPoint: "Anchor-1" 497 0 basechar 0
AnchorPoint: "Anchor-0" 283 0 basechar 0
LayerCount: 2
Fore
SplineSet
321 840 m 1
 235 840 l 1
 121 1000 l 1
 234 1000 l 1
 321 840 l 1
497 649 m 1
 185 649 l 1
 185 426 l 1
 455 426 l 1
 455 324 l 1
 185 324 l 1
 185 101 l 1
 497 101 l 1
 497 0 l 1
 70 0 l 1
 70 750 l 1
 497 750 l 1
 497 649 l 1
EndSplineSet
Validated: 1
Position2: "'cpsp' +WSdlh1tXfUQwf3UoMLkw2jD8MLcw8zCw in +MOkwxjDzZYdbVwAA lookup 0 +MLUw1jDGMPww1jDr" dx=5 dy=0 dh=10 dv=0
EndChar

StartChar: Emacron
Encoding: 274 274 34
Width: 542
GlyphClass: 2
Flags: MW
HStem: 0 101<185 497 185 497> 324 102<185 455 185 455> 649 101<185 497 185 185> 844 72<128 438 128 438>
VStem: 70 115<101 324 426 649>
AnchorPoint: "Anchor-3" 0 0 basechar 0
AnchorPoint: "Anchor-2" 283 1000 basechar 0
AnchorPoint: "Anchor-1" 497 0 basechar 0
AnchorPoint: "Anchor-0" 283 0 basechar 0
LayerCount: 2
Fore
SplineSet
438 916 m 1
 438 844 l 1
 128 844 l 1
 128 916 l 1
 438 916 l 1
497 649 m 1
 185 649 l 1
 185 426 l 1
 455 426 l 1
 455 324 l 1
 185 324 l 1
 185 101 l 1
 497 101 l 1
 497 0 l 1
 70 0 l 1
 70 750 l 1
 497 750 l 1
 497 649 l 1
EndSplineSet
Validated: 1
Position2: "'cpsp' +WSdlh1tXfUQwf3UoMLkw2jD8MLcw8zCw in +MOkwxjDzZYdbVwAA lookup 0 +MLUw1jDGMPww1jDr" dx=5 dy=0 dh=10 dv=0
EndChar

StartChar: Eogonek
Encoding: 280 280 35
Width: 542
GlyphClass: 2
Flags: MW
HStem: -259 57 0 101<185 400 462 497> 324 102<185 455 185 455> 649 101<185 497 185 185>
VStem: 70 115<101 324 426 649> 283 76<-159 -119.5>
AnchorPoint: "Anchor-3" 0 0 basechar 0
AnchorPoint: "Anchor-2" 283 750 basechar 0
AnchorPoint: "Anchor-1" 497 0 basechar 0
AnchorPoint: "Anchor-0" 283 0 basechar 0
LayerCount: 2
Fore
SplineSet
514 -153 m 1
 550 -204 l 1
 510 -244 457 -262 403 -259 c 0
 334 -255 283 -219 283 -151 c 0
 283 -88 326 -35 400 0 c 1
 70 0 l 1
 70 750 l 1
 497 750 l 1
 497 649 l 1
 185 649 l 1
 185 426 l 1
 455 426 l 1
 455 324 l 1
 185 324 l 1
 185 101 l 1
 497 101 l 1
 497 0 l 1
 427 0 359 -73 359 -142 c 0
 359 -176 381 -202 422 -202 c 0
 458 -202 494 -182 514 -153 c 1
EndSplineSet
Validated: 33
Position2: "'cpsp' +WSdlh1tXfUQwf3UoMLkw2jD8MLcw8zCw in +MOkwxjDzZYdbVwAA lookup 0 +MLUw1jDGMPww1jDr" dx=5 dy=0 dh=10 dv=0
EndChar

StartChar: uni1EBC
Encoding: 7868 7868 36
Width: 542
GlyphClass: 2
Flags: MW
HStem: 0 101<185 497 185 497> 324 102<185 455 185 455> 649 101<185 497 185 185> 828 66<340.5 363 340.5 385.5> 909 66<203 225>
VStem: 70 115<101 324 426 649> 115.43 66.83 383.31 66.69
AnchorPoint: "Anchor-3" 0 0 basechar 0
AnchorPoint: "Anchor-2" 283 970 basechar 0
AnchorPoint: "Anchor-1" 497 0 basechar 0
AnchorPoint: "Anchor-0" 283 0 basechar 0
LayerCount: 2
Fore
SplineSet
186 837 m 1xeb
 118 837 l 1
 104 918 149 975 214 975 c 0xeb
 257 975 289 952 311 919 c 0
 321 902 332 894 349 894 c 0
 377 894 390 923 380 966 c 1
 447 966 l 1
 462 887 420 828 351 828 c 0xf5
 312 828 281 845 255 884 c 0
 244 901 233 909 217 909 c 0
 189 909 175 879 186 837 c 1xeb
497 649 m 1
 185 649 l 1
 185 426 l 1
 455 426 l 1
 455 324 l 1
 185 324 l 1
 185 101 l 1
 497 101 l 1
 497 0 l 1
 70 0 l 1
 70 750 l 1xe5
 497 750 l 1
 497 649 l 1
EndSplineSet
Validated: 33
Position2: "'cpsp' +WSdlh1tXfUQwf3UoMLkw2jD8MLcw8zCw in +MOkwxjDzZYdbVwAA lookup 0 +MLUw1jDGMPww1jDr" dx=5 dy=0 dh=10 dv=0
EndChar

StartChar: F
Encoding: 70 70 37
Width: 540
GlyphClass: 2
Flags: MW
HStem: 0 21G<70 185 70 70> 324 102<185 455 185 455> 649 101<185 497 185 185>
VStem: 70 115<0 324 426 649>
LayerCount: 2
Fore
SplineSet
497 649 m 1
 185 649 l 1
 185 426 l 1
 455 426 l 1
 455 324 l 1
 185 324 l 1
 185 0 l 1
 70 0 l 1
 70 750 l 1
 497 750 l 1
 497 649 l 1
EndSplineSet
Validated: 1
Position2: "'cpsp' +WSdlh1tXfUQwf3UoMLkw2jD8MLcw8zCw in +MOkwxjDzZYdbVwAA lookup 0 +MLUw1jDGMPww1jDr" dx=5 dy=0 dh=10 dv=0
EndChar

StartChar: G
Encoding: 71 71 38
Width: 744
GlyphClass: 2
Flags: MW
HStem: -18 109<378 475.5 378 494> 312 102<418 572 418 674> 651 109<378 492 347 497.5>
VStem: 69 107<282 460 282 490.5> 418 256<312 414 47 414> 572 102<116 312 312 312>
AnchorPoint: "Anchor-3" 0 0 basechar 0
AnchorPoint: "Anchor-2" 458 750 basechar 0
AnchorPoint: "Anchor-1" 0 0 basechar 0
AnchorPoint: "Anchor-0" 448 0 basechar 0
LayerCount: 2
Fore
SplineSet
455 651 m 0xf4
 301 651 176 549 176 371 c 0
 176 193 301 91 455 91 c 0
 496 91 536 100 572 116 c 1
 572 312 l 1xf4
 418 312 l 1
 418 414 l 1xf8
 674 414 l 1
 674 47 l 1xf4
 611 8 534 -18 454 -18 c 0
 242 -18 69 132 69 371 c 0
 69 610 243 760 451 760 c 0
 533 760 611 734 674 695 c 1
 674 550 l 1xf8
 623 613 540 651 455 651 c 0xf4
EndSplineSet
Validated: 1
Position2: "'cpsp' +WSdlh1tXfUQwf3UoMLkw2jD8MLcw8zCw in +MOkwxjDzZYdbVwAA lookup 0 +MLUw1jDGMPww1jDr" dx=5 dy=0 dh=10 dv=0
EndChar

StartChar: Gbreve
Encoding: 286 286 39
Width: 744
GlyphClass: 2
Flags: MW
HStem: -18 109<378 475.5 378 494> 312 102<418 572 418 674> 651 109<378 492 347 497.5> 812 66<426 489 426 507.5>
VStem: 69 107<282 460 282 490.5> 286 66<948.5 974 948.5 974> 418 256<312 414 47 414> 564 65<948.5 974> 572 102<116 312 312 312>
AnchorPoint: "Anchor-3" 0 0 basechar 0
AnchorPoint: "Anchor-2" 458 957 basechar 0
AnchorPoint: "Anchor-1" 0 0 basechar 0
AnchorPoint: "Anchor-0" 448 0 basechar 0
LayerCount: 2
Fore
SplineSet
457 812 m 0xfc80
 358 812 286 870 286 974 c 1
 352 974 l 1
 352 923 395 878 457 878 c 0
 521 878 564 923 564 974 c 1
 629 974 l 1xfd
 629 870 558 812 457 812 c 0xfc80
455 651 m 0
 301 651 176 549 176 371 c 0
 176 193 301 91 455 91 c 0
 496 91 536 100 572 116 c 1
 572 312 l 1xfc80
 418 312 l 1
 418 414 l 1xfe
 674 414 l 1
 674 47 l 1xfc80
 611 8 534 -18 454 -18 c 0
 242 -18 69 132 69 371 c 0
 69 610 243 760 451 760 c 0
 533 760 611 734 674 695 c 1
 674 550 l 1xfe
 623 613 540 651 455 651 c 0
EndSplineSet
Validated: 1
Position2: "'cpsp' +WSdlh1tXfUQwf3UoMLkw2jD8MLcw8zCw in +MOkwxjDzZYdbVwAA lookup 0 +MLUw1jDGMPww1jDr" dx=5 dy=0 dh=10 dv=0
EndChar

StartChar: Gcaron
Encoding: 486 486 40
Width: 744
GlyphClass: 2
Flags: MW
HStem: -18 109<378 475.5 378 494> 312 102<418 572 418 674> 651 109<378 492 347 497.5> 829 171<296 516 296 399>
VStem: 69 107<282 460 282 490.5> 418 256<312 414 47 414> 572 102<116 312 312 312>
AnchorPoint: "Anchor-3" 0 0 basechar 0
AnchorPoint: "Anchor-2" 458 1000 basechar 0
AnchorPoint: "Anchor-1" 0 0 basechar 0
AnchorPoint: "Anchor-0" 448 0 basechar 0
LayerCount: 2
Fore
SplineSet
516 829 m 1xfa
 399 829 l 1
 296 1000 l 1
 380 1000 l 1
 458 881 l 1
 536 1000 l 1
 620 1000 l 1
 516 829 l 1xfa
455 651 m 0
 301 651 176 549 176 371 c 0
 176 193 301 91 455 91 c 0
 496 91 536 100 572 116 c 1
 572 312 l 1xfa
 418 312 l 1
 418 414 l 1xfc
 674 414 l 1
 674 47 l 1xfa
 611 8 534 -18 454 -18 c 0
 242 -18 69 132 69 371 c 0
 69 610 243 760 451 760 c 0
 533 760 611 734 674 695 c 1
 674 550 l 1xfc
 623 613 540 651 455 651 c 0
EndSplineSet
Validated: 1
Position2: "'cpsp' +WSdlh1tXfUQwf3UoMLkw2jD8MLcw8zCw in +MOkwxjDzZYdbVwAA lookup 0 +MLUw1jDGMPww1jDr" dx=5 dy=0 dh=10 dv=0
EndChar

StartChar: Gcommaaccent
Encoding: 290 290 41
Width: 744
GlyphClass: 2
Flags: MW
HStem: -176 136<429 454.5> -18 109<378 475.5 378 494> 312 102<418 572 418 674> 651 109<378 492 347 497.5>
VStem: 69 107<282 460 282 490.5> 418 256<312 414 47 414> 452.72 64.28 572 102<116 312 312 312>
AnchorPoint: "Anchor-3" 0 0 basechar 0
AnchorPoint: "Anchor-2" 458 750 basechar 0
AnchorPoint: "Anchor-1" 0 0 basechar 0
AnchorPoint: "Anchor-0" 448 -301 basechar 0
LayerCount: 2
Fore
SplineSet
455 651 m 0x7b
 301 651 176 549 176 371 c 0
 176 193 301 91 455 91 c 0
 496 91 536 100 572 116 c 1
 572 312 l 1x7b
 418 312 l 1
 418 414 l 1x7c
 674 414 l 1
 674 47 l 1x7b
 611 8 534 -18 454 -18 c 0
 242 -18 69 132 69 371 c 0
 69 610 243 760 451 760 c 0
 533 760 611 734 674 695 c 1
 674 550 l 1x7c
 623 613 540 651 455 651 c 0x7b
449 -40 m 0xfb
 488 -40 517 -71 517 -115 c 0
 517 -217 470 -305 391 -301 c 1
 391 -261 l 1
 449 -260 461 -176 448 -176 c 0
 409 -176 381 -148 381 -108 c 0
 381 -69 409 -40 449 -40 c 0xfb
EndSplineSet
Validated: 33
Position2: "'cpsp' +WSdlh1tXfUQwf3UoMLkw2jD8MLcw8zCw in +MOkwxjDzZYdbVwAA lookup 0 +MLUw1jDGMPww1jDr" dx=5 dy=0 dh=10 dv=0
EndChar

StartChar: Gdotaccent
Encoding: 288 288 42
Width: 744
GlyphClass: 2
Flags: MW
HStem: -18 109<378 475.5 378 494> 312 102<418 572 418 674> 651 109<378 492 347 497.5> 840 135<439.5 476.5>
VStem: 69 107<282 460 282 490.5> 390 136<888.5 926> 418 256<312 414 47 414> 572 102<116 312 312 312>
AnchorPoint: "Anchor-3" 0 0 basechar 0
AnchorPoint: "Anchor-2" 458 1010 basechar 0
AnchorPoint: "Anchor-1" 0 0 basechar 0
AnchorPoint: "Anchor-0" 448 0 basechar 0
LayerCount: 2
Fore
SplineSet
458 840 m 0xfd
 421 840 390 870 390 907 c 0
 390 945 421 975 458 975 c 0
 495 975 526 945 526 907 c 0
 526 870 495 840 458 840 c 0xfd
455 651 m 0
 301 651 176 549 176 371 c 0
 176 193 301 91 455 91 c 0
 496 91 536 100 572 116 c 1
 572 312 l 1xfd
 418 312 l 1
 418 414 l 1xfa
 674 414 l 1
 674 47 l 1xfd
 611 8 534 -18 454 -18 c 0
 242 -18 69 132 69 371 c 0
 69 610 243 760 451 760 c 0
 533 760 611 734 674 695 c 1
 674 550 l 1xfa
 623 613 540 651 455 651 c 0
EndSplineSet
Validated: 1
Position2: "'cpsp' +WSdlh1tXfUQwf3UoMLkw2jD8MLcw8zCw in +MOkwxjDzZYdbVwAA lookup 0 +MLUw1jDGMPww1jDr" dx=5 dy=0 dh=10 dv=0
EndChar

StartChar: H
Encoding: 72 72 43
Width: 738
GlyphClass: 2
Flags: MW
HStem: 0 21G<70 185 70 70 553 668 553 553> 324 102<185 553 185 553> 730 20G<70 185 185 185 553 668 668 668>
VStem: 70 115<0 324 0 426 426 750> 553 115<0 324 324 324 426 750 0 750>
AnchorPoint: "Anchor-3" 369 587 basechar 0
AnchorPoint: "Anchor-2" 371 750 basechar 0
AnchorPoint: "Anchor-1" 0 0 basechar 0
AnchorPoint: "Anchor-0" 371 0 basechar 0
LayerCount: 2
Fore
SplineSet
553 750 m 1
 668 750 l 1
 668 0 l 1
 553 0 l 1
 553 324 l 1
 185 324 l 1
 185 0 l 1
 70 0 l 1
 70 750 l 1
 185 750 l 1
 185 426 l 1
 553 426 l 1
 553 750 l 1
EndSplineSet
Validated: 1
Position2: "'cpsp' +WSdlh1tXfUQwf3UoMLkw2jD8MLcw8zCw in +MOkwxjDzZYdbVwAA lookup 0 +MLUw1jDGMPww1jDr" dx=5 dy=0 dh=10 dv=0
EndChar

StartChar: Hbar
Encoding: 294 294 44
Width: 738
GlyphClass: 2
Flags: MW
HStem: 0 21G<70 185 70 70 553 668 553 553> 324 102<185 553 185 553> 564 46<5 70 5 70 185 553 668 732> 564 186<5 185 5 185 70 185 70 553>
VStem: 70 115<0 324 0 426 426 564 610 750> 553 115<0 324 324 324 426 564 0 564 610 750>
AnchorPoint: "Anchor-3" 369 587 basechar 0
AnchorPoint: "Anchor-2" 371 750 basechar 0
AnchorPoint: "Anchor-1" 0 0 basechar 0
AnchorPoint: "Anchor-0" 371 0 basechar 0
LayerCount: 2
Fore
SplineSet
732 610 m 1xec
 732 564 l 1
 668 564 l 1
 668 0 l 1
 553 0 l 1
 553 324 l 1
 185 324 l 1
 185 0 l 1
 70 0 l 1
 70 564 l 1
 5 564 l 1
 5 610 l 1
 70 610 l 1xec
 70 750 l 1
 185 750 l 1xdc
 185 610 l 1
 553 610 l 1xec
 553 750 l 1
 668 750 l 1xdc
 668 610 l 1
 732 610 l 1xec
553 426 m 1
 553 564 l 1
 185 564 l 1
 185 426 l 1
 553 426 l 1
EndSplineSet
Validated: 1
Position2: "'cpsp' +WSdlh1tXfUQwf3UoMLkw2jD8MLcw8zCw in +MOkwxjDzZYdbVwAA lookup 0 +MLUw1jDGMPww1jDr" dx=5 dy=0 dh=10 dv=0
EndChar

StartChar: uni1E24
Encoding: 7716 7716 45
Width: 738
GlyphClass: 2
Flags: MW
HStem: -196 136<352.5 389.5> 0 21G<70 185 70 70 553 668 553 553> 324 102<185 553 185 553> 730 20G<70 185 185 185 553 668 668 668>
VStem: 70 115<0 324 0 426 426 750> 303 136<-146.5 -109.5> 553 115<0 324 324 324 426 750 0 750>
AnchorPoint: "Anchor-3" 369 587 basechar 0
AnchorPoint: "Anchor-2" 371 750 basechar 0
AnchorPoint: "Anchor-1" 0 0 basechar 0
AnchorPoint: "Anchor-0" 371 -196 basechar 0
LayerCount: 2
Fore
SplineSet
553 750 m 1
 668 750 l 1
 668 0 l 1
 553 0 l 1
 553 324 l 1
 185 324 l 1
 185 0 l 1
 70 0 l 1
 70 750 l 1
 185 750 l 1
 185 426 l 1
 553 426 l 1
 553 750 l 1
371 -60 m 0
 408 -60 439 -91 439 -128 c 0
 439 -165 408 -196 371 -196 c 0
 334 -196 303 -165 303 -128 c 0
 303 -91 334 -60 371 -60 c 0
EndSplineSet
Validated: 1
Position2: "'cpsp' +WSdlh1tXfUQwf3UoMLkw2jD8MLcw8zCw in +MOkwxjDzZYdbVwAA lookup 0 +MLUw1jDGMPww1jDr" dx=5 dy=0 dh=10 dv=0
EndChar

StartChar: I
Encoding: 73 73 46
Width: 255
GlyphClass: 2
Flags: MW
HStem: 0 21G<70 70 70 185> 730 20G<70 185 185 185>
VStem: 70 115<0 750 0 750>
AnchorPoint: "Anchor-3" 0 0 basechar 0
AnchorPoint: "Anchor-2" 127 750 basechar 0
AnchorPoint: "Anchor-1" 173 0 basechar 0
AnchorPoint: "Anchor-0" 127 0 basechar 0
LayerCount: 2
Fore
SplineSet
70 0 m 1
 70 750 l 1
 185 750 l 1
 185 0 l 1
 70 0 l 1
EndSplineSet
Validated: 1
Position2: "'cpsp' +WSdlh1tXfUQwf3UoMLkw2jD8MLcw8zCw in +MOkwxjDzZYdbVwAA lookup 0 +MLUw1jDGMPww1jDr" dx=5 dy=0 dh=10 dv=0
EndChar

StartChar: IJ
Encoding: 306 306 47
Width: 637
GlyphClass: 2
Flags: MW
HStem: -10 115<360.5 393.5 360.5 425.5> 0 21G<70 70 70 185 302 302> 730 20G<70 185 185 185 446 561 561 561>
VStem: 70 115<0 750 0 750> 446 115<177 750>
AnchorPoint: "Anchor-3" 0 0 basechar 0
AnchorPoint: "Anchor-2" 127 750 basechar 0
AnchorPoint: "Anchor-1" 173 0 basechar 0
AnchorPoint: "Anchor-0" 127 0 basechar 0
LayerCount: 2
Fore
SplineSet
70 0 m 1x78
 70 750 l 1
 185 750 l 1
 185 0 l 1
 70 0 l 1x78
374 -10 m 0
 347 -10 319 -6 302 0 c 1x78
 302 117 l 1
 322 110 347 105 374 105 c 0
 413 105 446 137 446 177 c 2xb8
 446 750 l 1
 561 750 l 1
 561 177 l 2
 561 73 477 -10 374 -10 c 0
EndSplineSet
Validated: 1
Position2: "'cpsp' +WSdlh1tXfUQwf3UoMLkw2jD8MLcw8zCw in +MOkwxjDzZYdbVwAA lookup 0 +MLUw1jDGMPww1jDr" dx=5 dy=0 dh=10 dv=0
EndChar

StartChar: Iacute
Encoding: 205 205 48
Width: 255
GlyphClass: 2
Flags: MW
HStem: 0 21G<70 70 70 185> 730 20G<70 185 185 185> 840 160<85 285 85 285>
VStem: 70 115<0 750 0 750>
AnchorPoint: "Anchor-3" 0 0 basechar 0
AnchorPoint: "Anchor-2" 127 859 basechar 0
AnchorPoint: "Anchor-1" 173 0 basechar 0
AnchorPoint: "Anchor-0" 127 0 basechar 0
LayerCount: 2
Fore
SplineSet
85 840 m 1
 172 1000 l 1
 285 1000 l 1
 172 840 l 1
 85 840 l 1
70 0 m 1
 70 750 l 1
 185 750 l 1
 185 0 l 1
 70 0 l 1
EndSplineSet
Validated: 1
Position2: "'cpsp' +WSdlh1tXfUQwf3UoMLkw2jD8MLcw8zCw in +MOkwxjDzZYdbVwAA lookup 0 +MLUw1jDGMPww1jDr" dx=5 dy=0 dh=10 dv=0
EndChar

StartChar: uni01CF
Encoding: 463 463 49
Width: 255
GlyphClass: 2
Flags: MW
HStem: 0 21G<70 70 70 185> 730 20G<70 185 185 185> 829 171<-35 68 -35 185>
VStem: 70 115<0 750 0 750>
AnchorPoint: "Anchor-3" 0 0 basechar 0
AnchorPoint: "Anchor-2" 127 1000 basechar 0
AnchorPoint: "Anchor-1" 173 0 basechar 0
AnchorPoint: "Anchor-0" 127 0 basechar 0
LayerCount: 2
Fore
SplineSet
68 829 m 1
 -35 1000 l 1
 49 1000 l 1
 127 881 l 1
 205 1000 l 1
 289 1000 l 1
 185 829 l 1
 68 829 l 1
70 0 m 1
 70 750 l 1
 185 750 l 1
 185 0 l 1
 70 0 l 1
EndSplineSet
Validated: 1
Position2: "'cpsp' +WSdlh1tXfUQwf3UoMLkw2jD8MLcw8zCw in +MOkwxjDzZYdbVwAA lookup 0 +MLUw1jDGMPww1jDr" dx=5 dy=0 dh=10 dv=0
EndChar

StartChar: Icircumflex
Encoding: 206 206 50
Width: 255
GlyphClass: 2
Flags: MW
HStem: 0 21G<70 70 70 185> 730 20G<70 185 185 185> 829 171<-35 185 -35 185 68 201 68 289>
VStem: 70 115<0 750 0 750>
AnchorPoint: "Anchor-3" 0 0 basechar 0
AnchorPoint: "Anchor-2" 127 983 basechar 0
AnchorPoint: "Anchor-1" 173 0 basechar 0
AnchorPoint: "Anchor-0" 127 0 basechar 0
LayerCount: 2
Fore
SplineSet
-35 829 m 1
 68 1000 l 1
 185 1000 l 1
 289 829 l 1
 201 829 l 1
 127 949 l 1
 52 829 l 1
 -35 829 l 1
70 0 m 1
 70 750 l 1
 185 750 l 1
 185 0 l 1
 70 0 l 1
EndSplineSet
Validated: 1
Position2: "'cpsp' +WSdlh1tXfUQwf3UoMLkw2jD8MLcw8zCw in +MOkwxjDzZYdbVwAA lookup 0 +MLUw1jDGMPww1jDr" dx=5 dy=0 dh=10 dv=0
EndChar

StartChar: Idieresis
Encoding: 207 207 51
Width: 255
GlyphClass: 2
Flags: MW
HStem: 0 21G<70 70 70 185> 730 20G<70 185 185 185> 840 135<8.5 45.5 208.5 245.5>
VStem: -41 136<888.5 926> 70 115<0 750 0 750> 159 135<888.5 926>
AnchorPoint: "Anchor-3" 0 0 basechar 0
AnchorPoint: "Anchor-2" 127 983 basechar 0
AnchorPoint: "Anchor-1" 173 0 basechar 0
AnchorPoint: "Anchor-0" 127 0 basechar 0
LayerCount: 2
Fore
SplineSet
27 840 m 0xf4
 -10 840 -41 870 -41 907 c 0
 -41 945 -10 975 27 975 c 0
 64 975 95 945 95 907 c 0
 95 870 64 840 27 840 c 0xf4
227 840 m 0
 190 840 159 870 159 907 c 0
 159 945 190 975 227 975 c 0
 264 975 294 945 294 907 c 0
 294 870 264 840 227 840 c 0
70 0 m 1xe8
 70 750 l 1
 185 750 l 1
 185 0 l 1
 70 0 l 1xe8
EndSplineSet
Validated: 1
Position2: "'cpsp' +WSdlh1tXfUQwf3UoMLkw2jD8MLcw8zCw in +MOkwxjDzZYdbVwAA lookup 0 +MLUw1jDGMPww1jDr" dx=5 dy=0 dh=10 dv=0
EndChar

StartChar: Idotaccent
Encoding: 304 304 52
Width: 255
GlyphClass: 2
Flags: MW
HStem: 0 21G<70 70 70 185> 730 20G<70 185 185 185> 840 135<108.5 145.5>
VStem: 59 136<888.5 926> 70 115<0 750 0 750>
AnchorPoint: "Anchor-3" 0 0 basechar 0
AnchorPoint: "Anchor-2" 127 1010 basechar 0
AnchorPoint: "Anchor-1" 173 0 basechar 0
AnchorPoint: "Anchor-0" 127 0 basechar 0
LayerCount: 2
Fore
SplineSet
127 840 m 0xf0
 90 840 59 870 59 907 c 0
 59 945 90 975 127 975 c 0
 164 975 195 945 195 907 c 0
 195 870 164 840 127 840 c 0xf0
70 0 m 1xe8
 70 750 l 1
 185 750 l 1
 185 0 l 1
 70 0 l 1xe8
EndSplineSet
Validated: 1
Position2: "'cpsp' +WSdlh1tXfUQwf3UoMLkw2jD8MLcw8zCw in +MOkwxjDzZYdbVwAA lookup 0 +MLUw1jDGMPww1jDr" dx=5 dy=0 dh=10 dv=0
EndChar

StartChar: uni1ECA
Encoding: 7882 7882 53
Width: 255
GlyphClass: 2
Flags: MW
HStem: -196 136<108.5 145.5> 0 21G<70 70 70 185> 730 20G<70 185 185 185>
VStem: 70 115<0 750 0 750>
AnchorPoint: "Anchor-3" 0 0 basechar 0
AnchorPoint: "Anchor-2" 127 750 basechar 0
AnchorPoint: "Anchor-1" 173 0 basechar 0
AnchorPoint: "Anchor-0" 127 -196 basechar 0
LayerCount: 2
Fore
SplineSet
70 0 m 1
 70 750 l 1
 185 750 l 1
 185 0 l 1
 70 0 l 1
127 -196 m 0
 90 -196 59 -165 59 -128 c 0
 59 -91 90 -60 127 -60 c 0
 164 -60 195 -91 195 -128 c 0
 195 -165 164 -196 127 -196 c 0
EndSplineSet
Validated: 1
Position2: "'cpsp' +WSdlh1tXfUQwf3UoMLkw2jD8MLcw8zCw in +MOkwxjDzZYdbVwAA lookup 0 +MLUw1jDGMPww1jDr" dx=5 dy=0 dh=10 dv=0
EndChar

StartChar: Igrave
Encoding: 204 204 54
Width: 255
GlyphClass: 2
Flags: MW
HStem: 0 21G<70 70 70 185> 730 20G<70 185 185 185> 840 160<-35 79 -35 165>
VStem: 70 115<0 750 0 750>
AnchorPoint: "Anchor-3" 0 0 basechar 0
AnchorPoint: "Anchor-2" 127 859 basechar 0
AnchorPoint: "Anchor-1" 173 0 basechar 0
AnchorPoint: "Anchor-0" 127 0 basechar 0
LayerCount: 2
Fore
SplineSet
79 840 m 1
 -35 1000 l 1
 78 1000 l 1
 165 840 l 1
 79 840 l 1
70 0 m 1
 70 750 l 1
 185 750 l 1
 185 0 l 1
 70 0 l 1
EndSplineSet
Validated: 1
Position2: "'cpsp' +WSdlh1tXfUQwf3UoMLkw2jD8MLcw8zCw in +MOkwxjDzZYdbVwAA lookup 0 +MLUw1jDGMPww1jDr" dx=5 dy=0 dh=10 dv=0
EndChar

StartChar: Imacron
Encoding: 298 298 55
Width: 255
GlyphClass: 2
Flags: MW
HStem: 0 21G<70 70 70 185> 730 20G<70 185 185 185> 844 72<-28 282 -28 282>
VStem: 70 115<0 750 0 750>
AnchorPoint: "Anchor-3" 0 0 basechar 0
AnchorPoint: "Anchor-2" 127 1000 basechar 0
AnchorPoint: "Anchor-1" 173 0 basechar 0
AnchorPoint: "Anchor-0" 127 0 basechar 0
LayerCount: 2
Fore
SplineSet
-28 844 m 1
 -28 916 l 1
 282 916 l 1
 282 844 l 1
 -28 844 l 1
70 0 m 1
 70 750 l 1
 185 750 l 1
 185 0 l 1
 70 0 l 1
EndSplineSet
Validated: 1
Position2: "'cpsp' +WSdlh1tXfUQwf3UoMLkw2jD8MLcw8zCw in +MOkwxjDzZYdbVwAA lookup 0 +MLUw1jDGMPww1jDr" dx=5 dy=0 dh=10 dv=0
EndChar

StartChar: Iogonek
Encoding: 302 302 56
Width: 255
GlyphClass: 2
Flags: MW
HStem: -259 57 0 21G<70 76 70 70 138 173 173 185> 730 20G<70 185 185 185>
VStem: -41 76<-159 -119.5> 70 115<0 750 0 750>
AnchorPoint: "Anchor-3" 0 0 basechar 0
AnchorPoint: "Anchor-2" 127 750 basechar 0
AnchorPoint: "Anchor-1" 173 0 basechar 0
AnchorPoint: "Anchor-0" 127 0 basechar 0
LayerCount: 2
Fore
SplineSet
190 -153 m 1
 226 -204 l 1
 186 -244 133 -262 79 -259 c 0
 10 -255 -41 -219 -41 -151 c 0
 -41 -88 2 -35 76 0 c 1
 70 0 l 1
 70 750 l 1
 185 750 l 1
 185 0 l 1
 173 0 l 2
 103 0 35 -73 35 -142 c 0
 35 -176 57 -202 98 -202 c 0
 134 -202 170 -182 190 -153 c 1
EndSplineSet
Validated: 33
Position2: "'cpsp' +WSdlh1tXfUQwf3UoMLkw2jD8MLcw8zCw in +MOkwxjDzZYdbVwAA lookup 0 +MLUw1jDGMPww1jDr" dx=5 dy=0 dh=10 dv=0
EndChar

StartChar: Itilde
Encoding: 296 296 57
Width: 255
GlyphClass: 2
Flags: MW
HStem: 0 21G<70 70 70 185> 730 20G<70 185 185 185> 828 66<184.5 207 184.5 229.5> 909 66<47 69>
VStem: -40.57 66.83 70 115<0 750 0 750> 227.31 66.69
AnchorPoint: "Anchor-3" 0 0 basechar 0
AnchorPoint: "Anchor-2" 127 970 basechar 0
AnchorPoint: "Anchor-1" 173 0 basechar 0
AnchorPoint: "Anchor-0" 127 0 basechar 0
LayerCount: 2
Fore
SplineSet
195 828 m 0
 156 828 125 845 99 884 c 0
 88 901 77 909 61 909 c 0
 33 909 19 879 30 837 c 1
 -38 837 l 1
 -52 918 -7 975 58 975 c 0xfe
 101 975 133 952 155 919 c 0
 165 902 176 894 193 894 c 0
 221 894 234 923 224 966 c 1
 291 966 l 1
 306 887 264 828 195 828 c 0
70 0 m 1
 70 750 l 1
 185 750 l 1
 185 0 l 1
 70 0 l 1
EndSplineSet
Validated: 33
Position2: "'cpsp' +WSdlh1tXfUQwf3UoMLkw2jD8MLcw8zCw in +MOkwxjDzZYdbVwAA lookup 0 +MLUw1jDGMPww1jDr" dx=5 dy=0 dh=10 dv=0
EndChar

StartChar: J
Encoding: 74 74 58
Width: 382
GlyphClass: 2
Flags: MW
HStem: -10 115<105.5 138.5 105.5 170.5> 0 21G<47 47> 730 20G<191 306 306 306>
VStem: 191 115<177 750>
LayerCount: 2
Fore
SplineSet
119 -10 m 0x70
 92 -10 64 -6 47 0 c 1x70
 47 117 l 1
 67 110 92 105 119 105 c 0
 158 105 191 137 191 177 c 2xb0
 191 750 l 1
 306 750 l 1
 306 177 l 2
 306 73 222 -10 119 -10 c 0x70
EndSplineSet
Validated: 1
Position2: "'cpsp' +WSdlh1tXfUQwf3UoMLkw2jD8MLcw8zCw in +MOkwxjDzZYdbVwAA lookup 0 +MLUw1jDGMPww1jDr" dx=5 dy=0 dh=10 dv=0
EndChar

StartChar: K
Encoding: 75 75 59
Width: 660
GlyphClass: 2
Flags: MW
HStem: 0 21G<70 185 70 70> 730 20G<70 185 185 185 479 627 627 627>
VStem: 70 115<0 381 0 443 443 750>
AnchorPoint: "Anchor-3" 0 0 basechar 0
AnchorPoint: "Anchor-2" 315 750 basechar 0
AnchorPoint: "Anchor-1" 0 0 basechar 0
AnchorPoint: "Anchor-0" 330 0 basechar 0
LayerCount: 2
Fore
SplineSet
627 750 m 1
 302 416 l 1
 627 110 l 1
 627 -40 l 1
 185 381 l 1
 185 0 l 1
 70 0 l 1
 70 750 l 1
 185 750 l 1
 185 443 l 1
 479 750 l 1
 627 750 l 1
EndSplineSet
Validated: 1
Position2: "'cpsp' +WSdlh1tXfUQwf3UoMLkw2jD8MLcw8zCw in +MOkwxjDzZYdbVwAA lookup 0 +MLUw1jDGMPww1jDr" dx=5 dy=0 dh=10 dv=0
EndChar

StartChar: Kcommaaccent
Encoding: 310 310 60
Width: 660
GlyphClass: 2
Flags: MW
HStem: -176 136<311 336.5> 0 21G<70 185 70 70> 730 20G<70 185 185 185 479 627 627 627>
VStem: 70 115<0 381 0 443 443 750> 334.72 64.28
AnchorPoint: "Anchor-3" 0 0 basechar 0
AnchorPoint: "Anchor-2" 315 750 basechar 0
AnchorPoint: "Anchor-1" 0 0 basechar 0
AnchorPoint: "Anchor-0" 330 -301 basechar 0
LayerCount: 2
Fore
SplineSet
627 750 m 1
 302 416 l 1
 627 110 l 1
 627 -40 l 1
 185 381 l 1
 185 0 l 1
 70 0 l 1
 70 750 l 1
 185 750 l 1
 185 443 l 1
 479 750 l 1
 627 750 l 1
331 -40 m 0
 370 -40 399 -71 399 -115 c 0
 399 -217 352 -305 273 -301 c 1
 273 -261 l 1
 331 -260 343 -176 330 -176 c 0
 291 -176 263 -148 263 -108 c 0
 263 -69 291 -40 331 -40 c 0
EndSplineSet
Validated: 33
Position2: "'cpsp' +WSdlh1tXfUQwf3UoMLkw2jD8MLcw8zCw in +MOkwxjDzZYdbVwAA lookup 0 +MLUw1jDGMPww1jDr" dx=5 dy=0 dh=10 dv=0
EndChar

StartChar: L
Encoding: 76 76 61
Width: 497
GlyphClass: 2
Flags: MW
HStem: 0 101<185 451 185 451> 730 20G<70 185 185 185>
VStem: 70 115<101 750 101 750 101 750>
AnchorPoint: "Anchor-3" 127 375 basechar 0
AnchorPoint: "Anchor-2" 127 750 basechar 0
AnchorPoint: "Anchor-1" 0 0 basechar 0
AnchorPoint: "Anchor-0" 261 0 basechar 0
LayerCount: 2
Fore
SplineSet
70 0 m 1
 70 750 l 1
 185 750 l 1
 185 101 l 1
 451 101 l 1
 451 0 l 1
 70 0 l 1
EndSplineSet
Validated: 1
Position2: "'cpsp' +WSdlh1tXfUQwf3UoMLkw2jD8MLcw8zCw in +MOkwxjDzZYdbVwAA lookup 0 +MLUw1jDGMPww1jDr" dx=5 dy=0 dh=10 dv=0
EndChar

StartChar: Lacute
Encoding: 313 313 62
Width: 497
GlyphClass: 2
Flags: MW
HStem: 0 101<185 451 185 451> 730 20G<70 185 185 185> 840 160<85 285 85 285>
VStem: 70 115<101 750 101 750 101 750>
AnchorPoint: "Anchor-3" 127 375 basechar 0
AnchorPoint: "Anchor-2" 127 859 basechar 0
AnchorPoint: "Anchor-1" 0 0 basechar 0
AnchorPoint: "Anchor-0" 261 0 basechar 0
LayerCount: 2
Fore
SplineSet
85 840 m 1
 172 1000 l 1
 285 1000 l 1
 172 840 l 1
 85 840 l 1
70 0 m 1
 70 750 l 1
 185 750 l 1
 185 101 l 1
 451 101 l 1
 451 0 l 1
 70 0 l 1
EndSplineSet
Validated: 1
Position2: "'cpsp' +WSdlh1tXfUQwf3UoMLkw2jD8MLcw8zCw in +MOkwxjDzZYdbVwAA lookup 0 +MLUw1jDGMPww1jDr" dx=5 dy=0 dh=10 dv=0
EndChar

StartChar: Lcaron
Encoding: 317 317 63
Width: 513
GlyphClass: 2
Flags: MW
HStem: 0 101<185 451 185 451> 449 52<333 333> 481 20G<333 333> 621 135<372 393.5> 730 20G<70 185 185 185>
VStem: 70 115<101 750 101 750 101 750> 400 67<601 606.5>
AnchorPoint: "Anchor-3" 127 375 basechar 0
AnchorPoint: "Anchor-2" 127 750 basechar 0
AnchorPoint: "Anchor-1" 0 0 basechar 0
AnchorPoint: "Anchor-0" 261 0 basechar 0
LayerCount: 2
Fore
SplineSet
333 449 m 1xd6
 333 501 l 1
 375 502 400 566 400 600 c 0
 400 613 397 621 390 621 c 0
 353 621 323 651 323 689 c 0
 323 727 353 756 391 756 c 0
 443 756 467 705 467 645 c 0
 467 557 418 450 333 449 c 1xd6
70 0 m 1
 70 750 l 1
 185 750 l 1xac
 185 101 l 1
 451 101 l 1
 451 0 l 1
 70 0 l 1
EndSplineSet
Validated: 1
Position2: "'cpsp' +WSdlh1tXfUQwf3UoMLkw2jD8MLcw8zCw in +MOkwxjDzZYdbVwAA lookup 0 +MLUw1jDGMPww1jDr" dx=5 dy=0 dh=10 dv=0
EndChar

StartChar: Lcommaaccent
Encoding: 315 315 64
Width: 497
GlyphClass: 2
Flags: MW
HStem: -176 136<242 267.5> 0 101<185 451 185 451> 730 20G<70 185 185 185>
VStem: 70 115<101 750 101 750 101 750> 265.72 64.28
AnchorPoint: "Anchor-3" 127 375 basechar 0
AnchorPoint: "Anchor-2" 127 750 basechar 0
AnchorPoint: "Anchor-1" 0 0 basechar 0
AnchorPoint: "Anchor-0" 261 -301 basechar 0
LayerCount: 2
Fore
SplineSet
70 0 m 1
 70 750 l 1
 185 750 l 1
 185 101 l 1
 451 101 l 1
 451 0 l 1
 70 0 l 1
204 -301 m 1
 204 -261 l 1
 262 -260 274 -176 261 -176 c 0
 222 -176 194 -148 194 -108 c 0
 194 -69 222 -40 262 -40 c 0
 301 -40 330 -71 330 -115 c 0
 330 -217 283 -305 204 -301 c 1
EndSplineSet
Validated: 33
Position2: "'cpsp' +WSdlh1tXfUQwf3UoMLkw2jD8MLcw8zCw in +MOkwxjDzZYdbVwAA lookup 0 +MLUw1jDGMPww1jDr" dx=5 dy=0 dh=10 dv=0
EndChar

StartChar: uni1E36
Encoding: 7734 7734 65
Width: 497
GlyphClass: 2
Flags: MW
HStem: -196 136<242.5 279.5> 0 101<185 451 185 451> 730 20G<70 185 185 185>
VStem: 70 115<101 750 101 750 101 750> 193 136<-146.5 -109.5>
AnchorPoint: "Anchor-3" 127 375 basechar 0
AnchorPoint: "Anchor-2" 127 750 basechar 0
AnchorPoint: "Anchor-1" 0 0 basechar 0
AnchorPoint: "Anchor-0" 261 -196 basechar 0
LayerCount: 2
Fore
SplineSet
70 0 m 1
 70 750 l 1
 185 750 l 1
 185 101 l 1
 451 101 l 1
 451 0 l 1
 70 0 l 1
261 -196 m 0xf8
 224 -196 193 -165 193 -128 c 0
 193 -91 224 -60 261 -60 c 0
 298 -60 329 -91 329 -128 c 0
 329 -165 298 -196 261 -196 c 0xf8
EndSplineSet
Validated: 1
Position2: "'cpsp' +WSdlh1tXfUQwf3UoMLkw2jD8MLcw8zCw in +MOkwxjDzZYdbVwAA lookup 0 +MLUw1jDGMPww1jDr" dx=5 dy=0 dh=10 dv=0
EndChar

StartChar: Lslash
Encoding: 321 321 66
Width: 497
GlyphClass: 2
Flags: MW
HStem: 0 101<185 451 185 451> 730 20G<70 185 185 185>
VStem: 70 115<101 101 101 276 276 276 360 395 482 750>
AnchorPoint: "Anchor-3" 127 375 basechar 0
AnchorPoint: "Anchor-2" 127 750 basechar 0
AnchorPoint: "Anchor-1" 0 0 basechar 0
AnchorPoint: "Anchor-0" 261 0 basechar 0
LayerCount: 2
Fore
SplineSet
185 101 m 1
 451 101 l 1
 451 0 l 1
 70 0 l 1
 70 276 l 1
 25 229 l 1
 -53 229 l 1
 70 360 l 1
 70 750 l 1
 185 750 l 1
 185 482 l 1
 222 521 l 1
 307 521 l 1
 185 395 l 1
 185 101 l 1
EndSplineSet
Validated: 1
Position2: "'cpsp' +WSdlh1tXfUQwf3UoMLkw2jD8MLcw8zCw in +MOkwxjDzZYdbVwAA lookup 0 +MLUw1jDGMPww1jDr" dx=5 dy=0 dh=10 dv=0
EndChar

StartChar: M
Encoding: 77 77 67
Width: 920
GlyphClass: 2
Flags: MW
HStem: 0 21G<70 185 70 70 736 850 736 736> 586 164<185 185 736 736> 730 20G<70 193 193 193 728 850 850 850>
VStem: 70 115<0 586 0 750> 736 114<0 586 586 586>
LayerCount: 2
Fore
SplineSet
728 750 m 1xb8
 850 750 l 1
 850 0 l 1
 736 0 l 1
 736 586 l 1
 459 168 l 1
 185 586 l 1xd8
 185 0 l 1
 70 0 l 1
 70 750 l 1
 193 750 l 1
 460 353 l 1
 728 750 l 1xb8
EndSplineSet
Validated: 1
Position2: "'cpsp' +WSdlh1tXfUQwf3UoMLkw2jD8MLcw8zCw in +MOkwxjDzZYdbVwAA lookup 0 +MLUw1jDGMPww1jDr" dx=5 dy=0 dh=10 dv=0
EndChar

StartChar: N
Encoding: 78 78 68
Width: 792
GlyphClass: 2
Flags: MW
HStem: 0 21G<70 185 70 70 608 722 608 608> 730 20G<70 184 184 184 608 722 722 722>
VStem: 70 115<0 571 0 750> 608 114<0 750 179 750 0 750>
AnchorPoint: "Anchor-3" 0 0 basechar 0
AnchorPoint: "Anchor-2" 396 750 basechar 0
AnchorPoint: "Anchor-1" 0 0 basechar 0
AnchorPoint: "Anchor-0" 397 0 basechar 0
LayerCount: 2
Fore
SplineSet
608 750 m 1
 722 750 l 1
 722 0 l 1
 608 0 l 1
 185 571 l 1
 185 0 l 1
 70 0 l 1
 70 750 l 1
 184 750 l 1
 608 179 l 1
 608 750 l 1
EndSplineSet
Validated: 1
Position2: "'cpsp' +WSdlh1tXfUQwf3UoMLkw2jD8MLcw8zCw in +MOkwxjDzZYdbVwAA lookup 0 +MLUw1jDGMPww1jDr" dx=5 dy=0 dh=10 dv=0
EndChar

StartChar: Nacute
Encoding: 323 323 69
Width: 792
GlyphClass: 2
Flags: MW
HStem: 0 21G<70 185 70 70 608 722 608 608> 730 20G<70 184 184 184 608 722 722 722> 840 160<354 554 354 554>
VStem: 70 115<0 571 0 750> 608 114<0 750 179 750 0 750>
AnchorPoint: "Anchor-3" 0 0 basechar 0
AnchorPoint: "Anchor-2" 396 859 basechar 0
AnchorPoint: "Anchor-1" 0 0 basechar 0
AnchorPoint: "Anchor-0" 397 0 basechar 0
LayerCount: 2
Fore
SplineSet
554 1000 m 1
 441 840 l 1
 354 840 l 1
 441 1000 l 1
 554 1000 l 1
608 750 m 1
 722 750 l 1
 722 0 l 1
 608 0 l 1
 185 571 l 1
 185 0 l 1
 70 0 l 1
 70 750 l 1
 184 750 l 1
 608 179 l 1
 608 750 l 1
EndSplineSet
Validated: 1
Position2: "'cpsp' +WSdlh1tXfUQwf3UoMLkw2jD8MLcw8zCw in +MOkwxjDzZYdbVwAA lookup 0 +MLUw1jDGMPww1jDr" dx=5 dy=0 dh=10 dv=0
EndChar

StartChar: Ncaron
Encoding: 327 327 70
Width: 792
GlyphClass: 2
Flags: MW
HStem: 0 21G<70 185 70 70 608 722 608 608> 730 20G<70 184 184 184 608 722 722 722> 829 171<234 454 234 337>
VStem: 70 115<0 571 0 750> 608 114<0 750 179 750 0 750>
AnchorPoint: "Anchor-3" 0 0 basechar 0
AnchorPoint: "Anchor-2" 396 1000 basechar 0
AnchorPoint: "Anchor-1" 0 0 basechar 0
AnchorPoint: "Anchor-0" 397 0 basechar 0
LayerCount: 2
Fore
SplineSet
454 829 m 1
 337 829 l 1
 234 1000 l 1
 318 1000 l 1
 396 881 l 1
 474 1000 l 1
 558 1000 l 1
 454 829 l 1
608 750 m 1
 722 750 l 1
 722 0 l 1
 608 0 l 1
 185 571 l 1
 185 0 l 1
 70 0 l 1
 70 750 l 1
 184 750 l 1
 608 179 l 1
 608 750 l 1
EndSplineSet
Validated: 1
Position2: "'cpsp' +WSdlh1tXfUQwf3UoMLkw2jD8MLcw8zCw in +MOkwxjDzZYdbVwAA lookup 0 +MLUw1jDGMPww1jDr" dx=5 dy=0 dh=10 dv=0
EndChar

StartChar: Ncommaaccent
Encoding: 325 325 71
Width: 792
GlyphClass: 2
Flags: MW
HStem: -176 136<378 403.5> 0 21G<70 185 70 70 608 722 608 608> 730 20G<70 184 184 184 608 722 722 722>
VStem: 70 115<0 571 0 750> 401.72 64.28 608 114<0 750 179 750 0 750>
AnchorPoint: "Anchor-3" 0 0 basechar 0
AnchorPoint: "Anchor-2" 396 750 basechar 0
AnchorPoint: "Anchor-1" 0 0 basechar 0
AnchorPoint: "Anchor-0" 397 -301 basechar 0
LayerCount: 2
Fore
SplineSet
608 750 m 1
 722 750 l 1
 722 0 l 1
 608 0 l 1
 185 571 l 1
 185 0 l 1
 70 0 l 1
 70 750 l 1
 184 750 l 1
 608 179 l 1
 608 750 l 1
398 -40 m 0
 437 -40 466 -71 466 -115 c 0
 466 -217 419 -305 340 -301 c 1
 340 -261 l 1
 398 -260 410 -176 397 -176 c 0
 358 -176 330 -148 330 -108 c 0
 330 -69 358 -40 398 -40 c 0
EndSplineSet
Validated: 33
Position2: "'cpsp' +WSdlh1tXfUQwf3UoMLkw2jD8MLcw8zCw in +MOkwxjDzZYdbVwAA lookup 0 +MLUw1jDGMPww1jDr" dx=5 dy=0 dh=10 dv=0
EndChar

StartChar: uni1E44
Encoding: 7748 7748 72
Width: 792
GlyphClass: 2
Flags: MW
HStem: 0 21G<70 185 70 70 608 722 608 608> 730 20G<70 184 184 184 608 722 722 722> 840 135<377.5 414.5>
VStem: 70 115<0 571 0 750> 328 136<888.5 926> 608 114<0 750 179 750 0 750>
AnchorPoint: "Anchor-3" 0 0 basechar 0
AnchorPoint: "Anchor-2" 396 1010 basechar 0
AnchorPoint: "Anchor-1" 0 0 basechar 0
AnchorPoint: "Anchor-0" 397 0 basechar 0
LayerCount: 2
Fore
SplineSet
396 840 m 0
 359 840 328 870 328 907 c 0
 328 945 359 975 396 975 c 0
 433 975 464 945 464 907 c 0
 464 870 433 840 396 840 c 0
608 750 m 1
 722 750 l 1
 722 0 l 1
 608 0 l 1
 185 571 l 1
 185 0 l 1
 70 0 l 1
 70 750 l 1
 184 750 l 1
 608 179 l 1
 608 750 l 1
EndSplineSet
Validated: 1
Position2: "'cpsp' +WSdlh1tXfUQwf3UoMLkw2jD8MLcw8zCw in +MOkwxjDzZYdbVwAA lookup 0 +MLUw1jDGMPww1jDr" dx=5 dy=0 dh=10 dv=0
EndChar

StartChar: uni1E46
Encoding: 7750 7750 73
Width: 792
GlyphClass: 2
Flags: MW
HStem: -196 136<378.5 415.5> 0 21G<70 185 70 70 608 722 608 608> 730 20G<70 184 184 184 608 722 722 722>
VStem: 70 115<0 571 0 750> 329 136<-146.5 -109.5> 608 114<0 750 179 750 0 750>
AnchorPoint: "Anchor-3" 0 0 basechar 0
AnchorPoint: "Anchor-2" 396 750 basechar 0
AnchorPoint: "Anchor-1" 0 0 basechar 0
AnchorPoint: "Anchor-0" 397 -196 basechar 0
LayerCount: 2
Fore
SplineSet
608 750 m 1
 722 750 l 1
 722 0 l 1
 608 0 l 1
 185 571 l 1
 185 0 l 1
 70 0 l 1
 70 750 l 1
 184 750 l 1
 608 179 l 1
 608 750 l 1
397 -60 m 0
 434 -60 465 -91 465 -128 c 0
 465 -165 434 -196 397 -196 c 0
 360 -196 329 -165 329 -128 c 0
 329 -91 360 -60 397 -60 c 0
EndSplineSet
Validated: 1
Position2: "'cpsp' +WSdlh1tXfUQwf3UoMLkw2jD8MLcw8zCw in +MOkwxjDzZYdbVwAA lookup 0 +MLUw1jDGMPww1jDr" dx=5 dy=0 dh=10 dv=0
EndChar

StartChar: Eng
Encoding: 330 330 74
Width: 823
GlyphClass: 2
Flags: MW
HStem: 0 21G<87 198 87 87> 730 20G<87 197 197 197 624 735 735 735>
VStem: 87 111<0 565 0 750> 624 111<186 750>
LayerCount: 2
Fore
SplineSet
624 750 m 1
 735 750 l 1
 735 -65 l 2
 735 -173 652 -215 549 -214 c 1
 549 -139 l 1
 588 -140 621 -130 621 -65 c 2
 621 7 l 1
 198 565 l 1
 198 0 l 1
 87 0 l 1
 87 750 l 1
 197 750 l 1
 624 186 l 1
 624 750 l 1
EndSplineSet
Validated: 33
Position2: "'cpsp' +WSdlh1tXfUQwf3UoMLkw2jD8MLcw8zCw in +MOkwxjDzZYdbVwAA lookup 0 +MLUw1jDGMPww1jDr" dx=5 dy=0 dh=10 dv=0
EndChar

StartChar: Ntilde
Encoding: 209 209 75
Width: 792
GlyphClass: 2
Flags: MW
HStem: 0 21G<70 185 70 70 608 722 608 608> 730 20G<70 184 184 184 608 722 722 722> 828 66<453.5 476 453.5 498.5> 909 66<316 338>
VStem: 70 115<0 571 0 750> 228.43 66.83 496.31 66.69 608 114<0 750 179 750 0 750>
AnchorPoint: "Anchor-3" 0 0 basechar 0
AnchorPoint: "Anchor-2" 396 970 basechar 0
AnchorPoint: "Anchor-1" 0 0 basechar 0
AnchorPoint: "Anchor-0" 397 0 basechar 0
LayerCount: 2
Fore
SplineSet
299 837 m 1
 231 837 l 1
 217 918 262 975 327 975 c 0xff
 370 975 402 952 424 919 c 0
 434 902 445 894 462 894 c 0
 490 894 503 923 493 966 c 1
 560 966 l 1
 575 887 533 828 464 828 c 0xef
 425 828 394 845 368 884 c 0
 357 901 346 909 330 909 c 0
 302 909 288 879 299 837 c 1
608 750 m 1
 722 750 l 1
 722 0 l 1
 608 0 l 1
 185 571 l 1
 185 0 l 1
 70 0 l 1
 70 750 l 1
 184 750 l 1
 608 179 l 1
 608 750 l 1
EndSplineSet
Validated: 33
Position2: "'cpsp' +WSdlh1tXfUQwf3UoMLkw2jD8MLcw8zCw in +MOkwxjDzZYdbVwAA lookup 0 +MLUw1jDGMPww1jDr" dx=5 dy=0 dh=10 dv=0
EndChar

StartChar: O
Encoding: 79 79 76
Width: 830
GlyphClass: 2
Flags: MW
HStem: -10 109<338 492.5 338 521> 651 109<338 492.5>
VStem: 49 108<297.5 452.5 297.5 481.5> 672 109<297.5 452.5>
AnchorPoint: "Anchor-3" 415 375 basechar 0
AnchorPoint: "Anchor-2" 415 750 basechar 0
AnchorPoint: "Anchor-1" 668 10 basechar 0
AnchorPoint: "Anchor-0" 415 0 basechar 0
LayerCount: 2
Fore
SplineSet
415 -10 m 0
 202 -10 49 162 49 375 c 0
 49 588 202 760 415 760 c 0
 627 760 781 588 781 375 c 0
 781 162 627 -10 415 -10 c 0
415 99 m 0
 570 99 672 220 672 375 c 0
 672 530 570 651 415 651 c 0
 261 651 157 530 157 375 c 0
 157 220 261 99 415 99 c 0
EndSplineSet
Validated: 1
Substitution2: "+U1h9FH9uY9sA lookup 16 +MLUw1jDGMPww1jDr" ordmasculine
Substitution2: "'aalt' +MFkweTBmMG51cE9TW1cweDBuMKIwrzC7MLkA in +MOkwxjDzZYdbVwAA lookup 0 +MLUw1jDGMPww1jDr" ordmasculine
Position2: "'cpsp' +WSdlh1tXfUQwf3UoMLkw2jD8MLcw8zCw in +MOkwxjDzZYdbVwAA lookup 0 +MLUw1jDGMPww1jDr" dx=5 dy=0 dh=10 dv=0
EndChar

StartChar: Oacute
Encoding: 211 211 77
Width: 830
GlyphClass: 2
Flags: MW
HStem: -10 109<338 492.5 338 521> 651 109<338 492.5> 840 160<373 573 373 573>
VStem: 49 108<297.5 452.5 297.5 481.5> 672 109<297.5 452.5>
AnchorPoint: "Anchor-3" 415 375 basechar 0
AnchorPoint: "Anchor-2" 415 859 basechar 0
AnchorPoint: "Anchor-1" 668 10 basechar 0
AnchorPoint: "Anchor-0" 415 0 basechar 0
LayerCount: 2
Fore
SplineSet
373 840 m 1
 460 1000 l 1
 573 1000 l 1
 460 840 l 1
 373 840 l 1
415 -10 m 0
 202 -10 49 162 49 375 c 0
 49 588 202 760 415 760 c 0
 627 760 781 588 781 375 c 0
 781 162 627 -10 415 -10 c 0
415 99 m 0
 570 99 672 220 672 375 c 0
 672 530 570 651 415 651 c 0
 261 651 157 530 157 375 c 0
 157 220 261 99 415 99 c 0
EndSplineSet
Validated: 1
Position2: "'cpsp' +WSdlh1tXfUQwf3UoMLkw2jD8MLcw8zCw in +MOkwxjDzZYdbVwAA lookup 0 +MLUw1jDGMPww1jDr" dx=5 dy=0 dh=10 dv=0
EndChar

StartChar: uni01D1
Encoding: 465 465 78
Width: 830
GlyphClass: 2
Flags: MW
HStem: -10 109<338 492.5 338 521> 651 109<338 492.5> 829 171<253 356 253 473>
VStem: 49 108<297.5 452.5 297.5 481.5> 672 109<297.5 452.5>
AnchorPoint: "Anchor-3" 415 375 basechar 0
AnchorPoint: "Anchor-2" 415 1000 basechar 0
AnchorPoint: "Anchor-1" 668 10 basechar 0
AnchorPoint: "Anchor-0" 415 0 basechar 0
LayerCount: 2
Fore
SplineSet
356 829 m 1
 253 1000 l 1
 337 1000 l 1
 415 881 l 1
 493 1000 l 1
 577 1000 l 1
 473 829 l 1
 356 829 l 1
415 -10 m 0
 202 -10 49 162 49 375 c 0
 49 588 202 760 415 760 c 0
 627 760 781 588 781 375 c 0
 781 162 627 -10 415 -10 c 0
415 99 m 0
 570 99 672 220 672 375 c 0
 672 530 570 651 415 651 c 0
 261 651 157 530 157 375 c 0
 157 220 261 99 415 99 c 0
EndSplineSet
Validated: 1
Position2: "'cpsp' +WSdlh1tXfUQwf3UoMLkw2jD8MLcw8zCw in +MOkwxjDzZYdbVwAA lookup 0 +MLUw1jDGMPww1jDr" dx=5 dy=0 dh=10 dv=0
EndChar

StartChar: Ocircumflex
Encoding: 212 212 79
Width: 830
GlyphClass: 2
Flags: MW
HStem: -10 109<338 492.5 338 521> 651 109<338 492.5> 829 171<253 473 253 473 356 489 356 577>
VStem: 49 108<297.5 452.5 297.5 481.5> 672 109<297.5 452.5>
AnchorPoint: "Anchor-3" 415 375 basechar 0
AnchorPoint: "Anchor-2" 415 983 basechar 0
AnchorPoint: "Anchor-1" 668 10 basechar 0
AnchorPoint: "Anchor-0" 415 0 basechar 0
LayerCount: 2
Fore
SplineSet
253 829 m 1
 356 1000 l 1
 473 1000 l 1
 577 829 l 1
 489 829 l 1
 415 949 l 1
 340 829 l 1
 253 829 l 1
415 -10 m 0
 202 -10 49 162 49 375 c 0
 49 588 202 760 415 760 c 0
 627 760 781 588 781 375 c 0
 781 162 627 -10 415 -10 c 0
415 99 m 0
 570 99 672 220 672 375 c 0
 672 530 570 651 415 651 c 0
 261 651 157 530 157 375 c 0
 157 220 261 99 415 99 c 0
EndSplineSet
Validated: 1
Position2: "'cpsp' +WSdlh1tXfUQwf3UoMLkw2jD8MLcw8zCw in +MOkwxjDzZYdbVwAA lookup 0 +MLUw1jDGMPww1jDr" dx=5 dy=0 dh=10 dv=0
EndChar

StartChar: Odieresis
Encoding: 214 214 80
Width: 830
GlyphClass: 2
Flags: MW
HStem: -10 109<338 492.5 338 521> 651 109<338 492.5> 840 135<296.5 333.5 496.5 533.5>
VStem: 49 108<297.5 452.5 297.5 481.5> 247 136<888.5 926> 447 135<888.5 926> 672 109<297.5 452.5>
AnchorPoint: "Anchor-3" 415 375 basechar 0
AnchorPoint: "Anchor-2" 415 983 basechar 0
AnchorPoint: "Anchor-1" 668 10 basechar 0
AnchorPoint: "Anchor-0" 415 0 basechar 0
LayerCount: 2
Fore
SplineSet
315 840 m 0
 278 840 247 870 247 907 c 0
 247 945 278 975 315 975 c 0
 352 975 383 945 383 907 c 0
 383 870 352 840 315 840 c 0
515 840 m 0
 478 840 447 870 447 907 c 0
 447 945 478 975 515 975 c 0
 552 975 582 945 582 907 c 0
 582 870 552 840 515 840 c 0
415 -10 m 0
 202 -10 49 162 49 375 c 0
 49 588 202 760 415 760 c 0
 627 760 781 588 781 375 c 0
 781 162 627 -10 415 -10 c 0
415 99 m 0
 570 99 672 220 672 375 c 0
 672 530 570 651 415 651 c 0
 261 651 157 530 157 375 c 0
 157 220 261 99 415 99 c 0
EndSplineSet
Validated: 1
Position2: "'cpsp' +WSdlh1tXfUQwf3UoMLkw2jD8MLcw8zCw in +MOkwxjDzZYdbVwAA lookup 0 +MLUw1jDGMPww1jDr" dx=5 dy=0 dh=10 dv=0
EndChar

StartChar: uni1ECC
Encoding: 7884 7884 81
Width: 830
GlyphClass: 2
Flags: MW
HStem: -196 136<396.5 433.5> -10 109<338 492.5 338 521> 651 109<338 492.5>
VStem: 49 108<297.5 452.5 297.5 481.5> 347 136<-146.5 -109.5> 672 109<297.5 452.5>
AnchorPoint: "Anchor-3" 415 375 basechar 0
AnchorPoint: "Anchor-2" 415 750 basechar 0
AnchorPoint: "Anchor-1" 668 10 basechar 0
AnchorPoint: "Anchor-0" 415 -196 basechar 0
LayerCount: 2
Fore
SplineSet
415 -10 m 0
 202 -10 49 162 49 375 c 0
 49 588 202 760 415 760 c 0
 627 760 781 588 781 375 c 0
 781 162 627 -10 415 -10 c 0
415 99 m 0
 570 99 672 220 672 375 c 0
 672 530 570 651 415 651 c 0
 261 651 157 530 157 375 c 0
 157 220 261 99 415 99 c 0
415 -196 m 0
 378 -196 347 -165 347 -128 c 0
 347 -91 378 -60 415 -60 c 0
 452 -60 483 -91 483 -128 c 0
 483 -165 452 -196 415 -196 c 0
EndSplineSet
Validated: 1
Position2: "'cpsp' +WSdlh1tXfUQwf3UoMLkw2jD8MLcw8zCw in +MOkwxjDzZYdbVwAA lookup 0 +MLUw1jDGMPww1jDr" dx=5 dy=0 dh=10 dv=0
EndChar

StartChar: Ograve
Encoding: 210 210 82
Width: 830
GlyphClass: 2
Flags: MW
HStem: -10 109<338 492.5 338 521> 651 109<338 492.5> 840 160<253 367 253 453>
VStem: 49 108<297.5 452.5 297.5 481.5> 672 109<297.5 452.5>
AnchorPoint: "Anchor-3" 415 375 basechar 0
AnchorPoint: "Anchor-2" 415 859 basechar 0
AnchorPoint: "Anchor-1" 668 10 basechar 0
AnchorPoint: "Anchor-0" 415 0 basechar 0
LayerCount: 2
Fore
SplineSet
367 840 m 1
 253 1000 l 1
 366 1000 l 1
 453 840 l 1
 367 840 l 1
415 -10 m 0
 202 -10 49 162 49 375 c 0
 49 588 202 760 415 760 c 0
 627 760 781 588 781 375 c 0
 781 162 627 -10 415 -10 c 0
415 99 m 0
 570 99 672 220 672 375 c 0
 672 530 570 651 415 651 c 0
 261 651 157 530 157 375 c 0
 157 220 261 99 415 99 c 0
EndSplineSet
Validated: 1
Position2: "'cpsp' +WSdlh1tXfUQwf3UoMLkw2jD8MLcw8zCw in +MOkwxjDzZYdbVwAA lookup 0 +MLUw1jDGMPww1jDr" dx=5 dy=0 dh=10 dv=0
EndChar

StartChar: Ohungarumlaut
Encoding: 336 336 83
Width: 830
GlyphClass: 2
Flags: MW
HStem: -10 109<338 492.5 338 521> 651 109<338 492.5> 824 176<282 532 282 532 468 532 426 548 468 468>
VStem: 49 108<297.5 452.5 297.5 481.5> 672 109<297.5 452.5>
AnchorPoint: "Anchor-3" 415 375 basechar 0
AnchorPoint: "Anchor-2" 415 750 basechar 0
AnchorPoint: "Anchor-1" 668 10 basechar 0
AnchorPoint: "Anchor-0" 415 0 basechar 0
LayerCount: 2
Fore
SplineSet
282 824 m 1
 426 1000 l 1
 532 1000 l 1
 362 824 l 1
 282 824 l 1
468 824 m 1
 612 1000 l 1
 718 1000 l 1
 548 824 l 1
 468 824 l 1
415 -10 m 0
 202 -10 49 162 49 375 c 0
 49 588 202 760 415 760 c 0
 627 760 781 588 781 375 c 0
 781 162 627 -10 415 -10 c 0
415 99 m 0
 570 99 672 220 672 375 c 0
 672 530 570 651 415 651 c 0
 261 651 157 530 157 375 c 0
 157 220 261 99 415 99 c 0
EndSplineSet
Validated: 1
Position2: "'cpsp' +WSdlh1tXfUQwf3UoMLkw2jD8MLcw8zCw in +MOkwxjDzZYdbVwAA lookup 0 +MLUw1jDGMPww1jDr" dx=5 dy=0 dh=10 dv=0
EndChar

StartChar: Omacron
Encoding: 332 332 84
Width: 830
GlyphClass: 2
Flags: MW
HStem: -10 109<338 492.5 338 521> 651 109<338 492.5> 844 72<260 570 260 570>
VStem: 49 108<297.5 452.5 297.5 481.5> 672 109<297.5 452.5>
AnchorPoint: "Anchor-3" 415 375 basechar 0
AnchorPoint: "Anchor-2" 415 1000 basechar 0
AnchorPoint: "Anchor-1" 668 10 basechar 0
AnchorPoint: "Anchor-0" 415 0 basechar 0
LayerCount: 2
Fore
SplineSet
260 844 m 1
 260 916 l 1
 570 916 l 1
 570 844 l 1
 260 844 l 1
415 -10 m 0
 202 -10 49 162 49 375 c 0
 49 588 202 760 415 760 c 0
 627 760 781 588 781 375 c 0
 781 162 627 -10 415 -10 c 0
415 99 m 0
 570 99 672 220 672 375 c 0
 672 530 570 651 415 651 c 0
 261 651 157 530 157 375 c 0
 157 220 261 99 415 99 c 0
EndSplineSet
Validated: 1
Position2: "'cpsp' +WSdlh1tXfUQwf3UoMLkw2jD8MLcw8zCw in +MOkwxjDzZYdbVwAA lookup 0 +MLUw1jDGMPww1jDr" dx=5 dy=0 dh=10 dv=0
EndChar

StartChar: Oslash
Encoding: 216 216 85
Width: 830
GlyphClass: 2
Flags: MW
HStem: -10 109<392 492.5 392 521> 651 109<338 438.5>
VStem: 49 108<333.5 452.5 333.5 481.5> 672 109<297.5 416.5>
AnchorPoint: "Anchor-3" 415 375 basechar 0
AnchorPoint: "Anchor-2" 415 750 basechar 0
AnchorPoint: "Anchor-1" 668 10 basechar 0
AnchorPoint: "Anchor-0" 415 0 basechar 0
LayerCount: 2
Fore
SplineSet
652 673 m 1
 732 602 781 495 781 375 c 0
 781 162 627 -10 415 -10 c 0
 346 -10 284 8 231 39 c 1
 190 -22 l 1
 113 -22 l 1
 179 77 l 1
 98 147 49 255 49 375 c 0
 49 588 202 760 415 760 c 0
 484 760 546 742 600 710 c 1
 640 771 l 1
 717 771 l 1
 652 673 l 1
157 375 m 0
 157 292 187 218 239 168 c 1
 540 620 l 1
 504 640 462 651 415 651 c 0
 261 651 157 530 157 375 c 0
415 99 m 0
 570 99 672 220 672 375 c 0
 672 458 643 532 591 582 c 1
 291 130 l 1
 327 110 369 99 415 99 c 0
EndSplineSet
Validated: 1
Position2: "'cpsp' +WSdlh1tXfUQwf3UoMLkw2jD8MLcw8zCw in +MOkwxjDzZYdbVwAA lookup 0 +MLUw1jDGMPww1jDr" dx=5 dy=0 dh=10 dv=0
EndChar

StartChar: Oslashacute
Encoding: 510 510 86
Width: 830
GlyphClass: 2
Flags: MW
HStem: -10 109<392 492.5 392 521> 651 109<338 438.5> 840 160<373 573 373 573>
VStem: 49 108<333.5 452.5 333.5 481.5> 672 109<297.5 416.5>
AnchorPoint: "Anchor-3" 415 375 basechar 0
AnchorPoint: "Anchor-2" 415 859 basechar 0
AnchorPoint: "Anchor-1" 668 10 basechar 0
AnchorPoint: "Anchor-0" 415 0 basechar 0
LayerCount: 2
Fore
SplineSet
573 1000 m 1
 460 840 l 1
 373 840 l 1
 460 1000 l 1
 573 1000 l 1
652 673 m 1
 732 602 781 495 781 375 c 0
 781 162 627 -10 415 -10 c 0
 346 -10 284 8 231 39 c 1
 190 -22 l 1
 113 -22 l 1
 179 77 l 1
 98 147 49 255 49 375 c 0
 49 588 202 760 415 760 c 0
 484 760 546 742 600 710 c 1
 640 771 l 1
 717 771 l 1
 652 673 l 1
157 375 m 0
 157 292 187 218 239 168 c 1
 540 620 l 1
 504 640 462 651 415 651 c 0
 261 651 157 530 157 375 c 0
415 99 m 0
 570 99 672 220 672 375 c 0
 672 458 643 532 591 582 c 1
 291 130 l 1
 327 110 369 99 415 99 c 0
EndSplineSet
Validated: 1
Position2: "'cpsp' +WSdlh1tXfUQwf3UoMLkw2jD8MLcw8zCw in +MOkwxjDzZYdbVwAA lookup 0 +MLUw1jDGMPww1jDr" dx=5 dy=0 dh=10 dv=0
EndChar

StartChar: Otilde
Encoding: 213 213 87
Width: 830
GlyphClass: 2
Flags: MW
HStem: -10 109<338 492.5 338 521> 651 109<338 492.5> 828 66<472.5 495 472.5 517.5> 909 66<335 357>
VStem: 49 108<297.5 452.5 297.5 481.5> 247.43 66.83 515.31 66.69 672 109<297.5 452.5>
AnchorPoint: "Anchor-3" 415 375 basechar 0
AnchorPoint: "Anchor-2" 415 970 basechar 0
AnchorPoint: "Anchor-1" 668 10 basechar 0
AnchorPoint: "Anchor-0" 415 0 basechar 0
LayerCount: 2
Fore
SplineSet
483 828 m 0
 444 828 413 845 387 884 c 0
 376 901 365 909 349 909 c 0
 321 909 307 879 318 837 c 1
 250 837 l 1
 236 918 281 975 346 975 c 0xff
 389 975 421 952 443 919 c 0
 453 902 464 894 481 894 c 0
 509 894 522 923 512 966 c 1
 579 966 l 1
 594 887 552 828 483 828 c 0
415 -10 m 0
 202 -10 49 162 49 375 c 0
 49 588 202 760 415 760 c 0
 627 760 781 588 781 375 c 0
 781 162 627 -10 415 -10 c 0
415 99 m 0
 570 99 672 220 672 375 c 0
 672 530 570 651 415 651 c 0
 261 651 157 530 157 375 c 0
 157 220 261 99 415 99 c 0
EndSplineSet
Validated: 33
Position2: "'cpsp' +WSdlh1tXfUQwf3UoMLkw2jD8MLcw8zCw in +MOkwxjDzZYdbVwAA lookup 0 +MLUw1jDGMPww1jDr" dx=5 dy=0 dh=10 dv=0
EndChar

StartChar: OE
Encoding: 338 338 88
Width: 1239
GlyphClass: 2
Flags: MW
HStem: -10 110<376 510.5> 0 97<837 1152 837 1152 744 1152> 326 98<837 1109 837 1109> 650 110<376 510.5 345.5 529> 653 97<837 1152 837 837>
VStem: 67 111<298.5 451.5 298.5 481.5> 744 93<97 124 124 124 626 653>
LayerCount: 2
Fore
SplineSet
1152 653 m 1x6e
 837 653 l 1
 837 424 l 1
 1109 424 l 1
 1109 326 l 1
 837 326 l 1
 837 97 l 1
 1152 97 l 1
 1152 0 l 1
 744 0 l 1x6e
 744 124 l 1
 673 42 569 -10 452 -10 c 0
 239 -10 67 162 67 375 c 0
 67 588 239 760 452 760 c 0xb6
 569 760 673 708 744 626 c 1
 744 750 l 1
 1152 750 l 1
 1152 653 l 1x6e
453 100 m 0xb6
 605 100 727 222 727 375 c 0
 727 528 605 650 453 650 c 0
 299 650 178 528 178 375 c 0
 178 222 299 100 453 100 c 0xb6
EndSplineSet
Validated: 1
Position2: "'cpsp' +WSdlh1tXfUQwf3UoMLkw2jD8MLcw8zCw in +MOkwxjDzZYdbVwAA lookup 0 +MLUw1jDGMPww1jDr" dx=5 dy=0 dh=10 dv=0
EndChar

StartChar: P
Encoding: 80 80 89
Width: 601
GlyphClass: 2
Flags: MW
HStem: 0 21G<70 185 70 70> 321 95<185 352 352 359 185 352> 649 101<185 352 185 185>
VStem: 70 115<0 321 0 416 416 649> 469 105<496.5 567.5>
LayerCount: 2
Fore
SplineSet
359 750 m 2
 479 750 574 653 574 534 c 0
 574 414 479 321 359 321 c 2
 185 321 l 1
 185 0 l 1
 70 0 l 1
 70 750 l 1
 359 750 l 2
352 416 m 2
 415 416 469 460 469 533 c 0
 469 602 415 649 352 649 c 2
 185 649 l 1
 185 416 l 1
 352 416 l 2
EndSplineSet
Validated: 1
Position2: "'cpsp' +WSdlh1tXfUQwf3UoMLkw2jD8MLcw8zCw in +MOkwxjDzZYdbVwAA lookup 0 +MLUw1jDGMPww1jDr" dx=5 dy=0 dh=10 dv=0
EndChar

StartChar: Thorn
Encoding: 222 222 90
Width: 600
GlyphClass: 2
Flags: MW
HStem: 0 21G<70 181 70 70> 216 98<181 353 353 357 181 353> 545 99<181 353>
VStem: 70 111<0 216 0 314 314 545 644 748> 470 101<398 462>
LayerCount: 2
Fore
SplineSet
357 644 m 2
 476 644 571 548 571 427 c 0
 571 309 476 216 357 216 c 2
 181 216 l 1
 181 0 l 1
 70 0 l 1
 70 644 l 1
 70 748 l 1
 181 748 l 1
 181 644 l 1
 357 644 l 2
353 314 m 2
 418 314 470 366 470 430 c 0
 470 494 418 545 353 545 c 2
 181 545 l 1
 181 314 l 1
 353 314 l 2
EndSplineSet
Validated: 1
Position2: "'cpsp' +WSdlh1tXfUQwf3UoMLkw2jD8MLcw8zCw in +MOkwxjDzZYdbVwAA lookup 0 +MLUw1jDGMPww1jDr" dx=5 dy=0 dh=10 dv=0
EndChar

StartChar: Q
Encoding: 81 81 91
Width: 824
GlyphClass: 2
Flags: MW
HStem: -10 109<338 445 338 459> 0 108<745 802 774 802 774 802> 651 109<338 492.5>
VStem: 49 108<297.5 452.5 297.5 481.5> 672 109<347.5 452.5>
AnchorPoint: "Anchor-3" 415 375 basechar 0
AnchorPoint: "Anchor-2" 415 750 basechar 0
AnchorPoint: "Anchor-1" 668 10 basechar 0
AnchorPoint: "Anchor-0" 415 0 basechar 0
LayerCount: 2
Fore
SplineSet
774 108 m 2x78
 802 108 l 1
 802 0 l 1
 766 0 l 2
 724 0 692 19 660 52 c 2x78
 643 70 l 1
 582 20 503 -10 415 -10 c 0xb8
 202 -10 49 162 49 375 c 0
 49 588 202 760 415 760 c 0
 627 760 781 588 781 375 c 0
 781 290 756 211 713 147 c 1
 734 125 l 2
 745 113 759 108 774 108 c 2x78
415 99 m 0xb8
 475 99 527 117 568 148 c 1
 458 264 l 1
 530 337 l 1
 636 227 l 1
 659 270 672 320 672 375 c 0
 672 530 570 651 415 651 c 0
 261 651 157 530 157 375 c 0
 157 220 261 99 415 99 c 0xb8
EndSplineSet
Validated: 1
Position2: "'cpsp' +WSdlh1tXfUQwf3UoMLkw2jD8MLcw8zCw in +MOkwxjDzZYdbVwAA lookup 0 +MLUw1jDGMPww1jDr" dx=5 dy=0 dh=10 dv=0
EndChar

StartChar: R
Encoding: 82 82 92
Width: 606
GlyphClass: 2
Flags: MW
HStem: 0 21G<70 185 70 70 467 596 467 467> 328 94<185 294 185 356> 649 101<185 356 185 185>
VStem: 70 115<0 328 422 649> 469 105<504.5 567.5>
AnchorPoint: "Anchor-3" 0 0 basechar 0
AnchorPoint: "Anchor-2" 310 750 basechar 0
AnchorPoint: "Anchor-1" 0 0 basechar 0
AnchorPoint: "Anchor-0" 310 0 basechar 0
LayerCount: 2
Fore
SplineSet
410 335 m 1
 596 0 l 1
 467 0 l 1
 294 328 l 1
 185 328 l 1
 185 0 l 1
 70 0 l 1
 70 750 l 1
 359 750 l 2
 478 750 574 654 574 533 c 0
 574 433 504 354 410 335 c 1
185 422 m 1
 356 422 l 2
 419 422 469 473 469 536 c 0
 469 599 418 649 356 649 c 2
 185 649 l 1
 185 422 l 1
EndSplineSet
Validated: 1
Position2: "'cpsp' +WSdlh1tXfUQwf3UoMLkw2jD8MLcw8zCw in +MOkwxjDzZYdbVwAA lookup 0 +MLUw1jDGMPww1jDr" dx=5 dy=0 dh=10 dv=0
EndChar

StartChar: Racute
Encoding: 340 340 93
Width: 606
GlyphClass: 2
Flags: MW
HStem: 0 21G<70 185 70 70 467 596 467 467> 328 94<185 294 185 356> 649 101<185 356 185 185> 840 160<268 468 268 468>
VStem: 70 115<0 328 422 649> 469 105<504.5 567.5>
AnchorPoint: "Anchor-3" 0 0 basechar 0
AnchorPoint: "Anchor-2" 310 859 basechar 0
AnchorPoint: "Anchor-1" 0 0 basechar 0
AnchorPoint: "Anchor-0" 310 0 basechar 0
LayerCount: 2
Fore
SplineSet
468 1000 m 1
 355 840 l 1
 268 840 l 1
 355 1000 l 1
 468 1000 l 1
410 335 m 1
 596 0 l 1
 467 0 l 1
 294 328 l 1
 185 328 l 1
 185 0 l 1
 70 0 l 1
 70 750 l 1
 359 750 l 2
 478 750 574 654 574 533 c 0
 574 433 504 354 410 335 c 1
185 422 m 1
 356 422 l 2
 419 422 469 473 469 536 c 0
 469 599 418 649 356 649 c 2
 185 649 l 1
 185 422 l 1
EndSplineSet
Validated: 1
Position2: "'cpsp' +WSdlh1tXfUQwf3UoMLkw2jD8MLcw8zCw in +MOkwxjDzZYdbVwAA lookup 0 +MLUw1jDGMPww1jDr" dx=5 dy=0 dh=10 dv=0
EndChar

StartChar: Rcaron
Encoding: 344 344 94
Width: 606
GlyphClass: 2
Flags: MW
HStem: 0 21G<70 185 70 70 467 596 467 467> 328 94<185 294 185 356> 649 101<185 356 185 185> 829 171<148 368 148 251>
VStem: 70 115<0 328 422 649> 469 105<504.5 567.5>
AnchorPoint: "Anchor-3" 0 0 basechar 0
AnchorPoint: "Anchor-2" 310 1000 basechar 0
AnchorPoint: "Anchor-1" 0 0 basechar 0
AnchorPoint: "Anchor-0" 310 0 basechar 0
LayerCount: 2
Fore
SplineSet
368 829 m 1
 251 829 l 1
 148 1000 l 1
 232 1000 l 1
 310 881 l 1
 388 1000 l 1
 472 1000 l 1
 368 829 l 1
410 335 m 1
 596 0 l 1
 467 0 l 1
 294 328 l 1
 185 328 l 1
 185 0 l 1
 70 0 l 1
 70 750 l 1
 359 750 l 2
 478 750 574 654 574 533 c 0
 574 433 504 354 410 335 c 1
185 422 m 1
 356 422 l 2
 419 422 469 473 469 536 c 0
 469 599 418 649 356 649 c 2
 185 649 l 1
 185 422 l 1
EndSplineSet
Validated: 1
Position2: "'cpsp' +WSdlh1tXfUQwf3UoMLkw2jD8MLcw8zCw in +MOkwxjDzZYdbVwAA lookup 0 +MLUw1jDGMPww1jDr" dx=5 dy=0 dh=10 dv=0
EndChar

StartChar: Rcommaaccent
Encoding: 342 342 95
Width: 606
GlyphClass: 2
Flags: MW
HStem: -176 136<291 316.5> 0 21G<70 185 70 70 467 596 467 467> 328 94<185 294 185 356> 649 101<185 356 185 185>
VStem: 70 115<0 328 422 649> 314.72 64.28 469 105<504.5 567.5>
AnchorPoint: "Anchor-3" 0 0 basechar 0
AnchorPoint: "Anchor-2" 310 750 basechar 0
AnchorPoint: "Anchor-1" 0 0 basechar 0
AnchorPoint: "Anchor-0" 310 -301 basechar 0
LayerCount: 2
Fore
SplineSet
410 335 m 1
 596 0 l 1
 467 0 l 1
 294 328 l 1
 185 328 l 1
 185 0 l 1
 70 0 l 1
 70 750 l 1
 359 750 l 2
 478 750 574 654 574 533 c 0
 574 433 504 354 410 335 c 1
185 422 m 1
 356 422 l 2
 419 422 469 473 469 536 c 0
 469 599 418 649 356 649 c 2
 185 649 l 1
 185 422 l 1
311 -40 m 0
 350 -40 379 -71 379 -115 c 0
 379 -217 332 -305 253 -301 c 1
 253 -261 l 1
 311 -260 323 -176 310 -176 c 0
 271 -176 243 -148 243 -108 c 0
 243 -69 271 -40 311 -40 c 0
EndSplineSet
Validated: 33
Position2: "'cpsp' +WSdlh1tXfUQwf3UoMLkw2jD8MLcw8zCw in +MOkwxjDzZYdbVwAA lookup 0 +MLUw1jDGMPww1jDr" dx=5 dy=0 dh=10 dv=0
EndChar

StartChar: S
Encoding: 83 83 96
Width: 637
GlyphClass: 2
Flags: MW
HStem: -10 109<284.5 373.5 284.5 402> 662 98<288.5 372>
VStem: 82 117<540.5 602 540.5 625> 475 116
AnchorPoint: "Anchor-3" 0 0 basechar 0
AnchorPoint: "Anchor-2" 341 750 basechar 0
AnchorPoint: "Anchor-1" 0 0 basechar 0
AnchorPoint: "Anchor-0" 325 0 basechar 0
LayerCount: 2
Fore
SplineSet
328 -10 m 0
 206 -10 94 49 37 136 c 1
 120 219 l 1
 151 144 237 99 332 99 c 0
 415 99 474 129 475 200 c 0
 476 290 390 325 298 360 c 0
 194 400 82 441 82 563 c 0
 82 687 186 760 321 760 c 0
 446 760 539 715 594 651 c 1
 517 574 l 1
 482 627 420 662 324 662 c 0
 253 662 199 632 199 572 c 0
 199 509 271 479 353 446 c 0
 463 402 591 351 591 206 c 0
 591 56 476 -10 328 -10 c 0
EndSplineSet
Validated: 33
Position2: "'cpsp' +WSdlh1tXfUQwf3UoMLkw2jD8MLcw8zCw in +MOkwxjDzZYdbVwAA lookup 0 +MLUw1jDGMPww1jDr" dx=5 dy=0 dh=10 dv=0
EndChar

StartChar: Sacute
Encoding: 346 346 97
Width: 637
GlyphClass: 2
Flags: MW
HStem: -10 109<284.5 373.5 284.5 402> 662 98<288.5 372> 840 160<299 499 299 499>
VStem: 82 117<540.5 602 540.5 625> 475 116
AnchorPoint: "Anchor-3" 0 0 basechar 0
AnchorPoint: "Anchor-2" 341 859 basechar 0
AnchorPoint: "Anchor-1" 0 0 basechar 0
AnchorPoint: "Anchor-0" 325 0 basechar 0
LayerCount: 2
Fore
SplineSet
299 840 m 1
 386 1000 l 1
 499 1000 l 1
 386 840 l 1
 299 840 l 1
328 -10 m 0
 206 -10 94 49 37 136 c 1
 120 219 l 1
 151 144 237 99 332 99 c 0
 415 99 474 129 475 200 c 0
 476 290 390 325 298 360 c 0
 194 400 82 441 82 563 c 0
 82 687 186 760 321 760 c 0
 446 760 539 715 594 651 c 1
 517 574 l 1
 482 627 420 662 324 662 c 0
 253 662 199 632 199 572 c 0
 199 509 271 479 353 446 c 0
 463 402 591 351 591 206 c 0
 591 56 476 -10 328 -10 c 0
EndSplineSet
Validated: 33
Position2: "'cpsp' +WSdlh1tXfUQwf3UoMLkw2jD8MLcw8zCw in +MOkwxjDzZYdbVwAA lookup 0 +MLUw1jDGMPww1jDr" dx=5 dy=0 dh=10 dv=0
EndChar

StartChar: Scaron
Encoding: 352 352 98
Width: 637
GlyphClass: 2
Flags: MW
HStem: -10 109<284.5 373.5 284.5 402> 662 98<288.5 372> 829 171<179 282 179 399>
VStem: 82 117<540.5 602 540.5 625> 475 116
AnchorPoint: "Anchor-3" 0 0 basechar 0
AnchorPoint: "Anchor-2" 341 1000 basechar 0
AnchorPoint: "Anchor-1" 0 0 basechar 0
AnchorPoint: "Anchor-0" 325 0 basechar 0
LayerCount: 2
Fore
SplineSet
282 829 m 1
 179 1000 l 1
 263 1000 l 1
 341 881 l 1
 419 1000 l 1
 503 1000 l 1
 399 829 l 1
 282 829 l 1
328 -10 m 0
 206 -10 94 49 37 136 c 1
 120 219 l 1
 151 144 237 99 332 99 c 0
 415 99 474 129 475 200 c 0
 476 290 390 325 298 360 c 0
 194 400 82 441 82 563 c 0
 82 687 186 760 321 760 c 0
 446 760 539 715 594 651 c 1
 517 574 l 1
 482 627 420 662 324 662 c 0
 253 662 199 632 199 572 c 0
 199 509 271 479 353 446 c 0
 463 402 591 351 591 206 c 0
 591 56 476 -10 328 -10 c 0
EndSplineSet
Validated: 33
Position2: "'cpsp' +WSdlh1tXfUQwf3UoMLkw2jD8MLcw8zCw in +MOkwxjDzZYdbVwAA lookup 0 +MLUw1jDGMPww1jDr" dx=5 dy=0 dh=10 dv=0
EndChar

StartChar: Scedilla
Encoding: 350 350 99
Width: 637
GlyphClass: 2
Flags: MW
HStem: -260 53<324 350.5 324 365.5> -106.76 45.17 -8 107<294 294> 662 98<288.5 372>
VStem: 82 117<540.5 602 540.5 625> 387 54<-169.5 -133.5> 475 116
AnchorPoint: "Anchor-3" 0 0 basechar 0
AnchorPoint: "Anchor-2" 341 750 basechar 0
AnchorPoint: "Anchor-1" 0 0 basechar 0
AnchorPoint: "Anchor-0" 336 -260 basechar 0
LayerCount: 2
Fore
SplineSet
353 446 m 0
 463 402 591 351 591 206 c 0
 591 62 486 -4 347 -10 c 1
 319 -64 l 1
 387 -51 441 -92 441 -155 c 0
 441 -213 395 -260 336 -260 c 0
 289 -260 238 -230 220 -192 c 1
 270 -173 l 1
 283 -192 312 -207 336 -207 c 0
 365 -207 387 -184 387 -155 c 0
 387 -112 346 -94 294 -116 c 1
 251 -89 l 1
 294 -8 l 1
 185 1 89 57 37 136 c 1
 120 219 l 1
 151 144 237 99 332 99 c 0
 415 99 474 129 475 200 c 0
 476 290 390 325 298 360 c 0
 194 400 82 441 82 563 c 0
 82 687 186 760 321 760 c 0
 446 760 539 715 594 651 c 1
 517 574 l 1
 482 627 420 662 324 662 c 0
 253 662 199 632 199 572 c 0
 199 509 271 479 353 446 c 0
EndSplineSet
Validated: 33
Substitution2: "'locl' +Vv0w+1cwV99W+mcJMG5bV19i in +MOkwxjDzZYdbVwAA lookup 5 +MLUw1jDGMPww1jDr" Scommaaccent
Substitution2: "'locl' +Vv0w+1cwV99W+mcJMG5bV19i in +MOkwxjDzZYdbVwAA lookup 4 +MLUw1jDGMPww1jDr" Scommaaccent
Substitution2: "'aalt' +MFkweTBmMG51cE9TW1cweDBuMKIwrzC7MLkA in +MOkwxjDzZYdbVwAA lookup 0 +MLUw1jDGMPww1jDr" Scommaaccent
Position2: "'cpsp' +WSdlh1tXfUQwf3UoMLkw2jD8MLcw8zCw in +MOkwxjDzZYdbVwAA lookup 0 +MLUw1jDGMPww1jDr" dx=5 dy=0 dh=10 dv=0
EndChar

StartChar: Scommaaccent
Encoding: 536 536 100
Width: 637
GlyphClass: 2
Flags: MW
HStem: -176 136<306 331.5> -10 109<284.5 373.5 284.5 402> 662 98<288.5 372>
VStem: 82 117<540.5 602 540.5 625> 329.72 64.28 475 116
AnchorPoint: "Anchor-3" 0 0 basechar 0
AnchorPoint: "Anchor-2" 341 750 basechar 0
AnchorPoint: "Anchor-1" 0 0 basechar 0
AnchorPoint: "Anchor-0" 325 -301 basechar 0
LayerCount: 2
Fore
SplineSet
328 -10 m 0
 206 -10 94 49 37 136 c 1
 120 219 l 1
 151 144 237 99 332 99 c 0
 415 99 474 129 475 200 c 0
 476 290 390 325 298 360 c 0
 194 400 82 441 82 563 c 0
 82 687 186 760 321 760 c 0
 446 760 539 715 594 651 c 1
 517 574 l 1
 482 627 420 662 324 662 c 0
 253 662 199 632 199 572 c 0
 199 509 271 479 353 446 c 0
 463 402 591 351 591 206 c 0
 591 56 476 -10 328 -10 c 0
268 -301 m 1
 268 -261 l 1
 326 -260 338 -176 325 -176 c 0
 286 -176 258 -148 258 -108 c 0
 258 -69 286 -40 326 -40 c 0
 365 -40 394 -71 394 -115 c 0xfc
 394 -217 347 -305 268 -301 c 1
EndSplineSet
Validated: 33
Position2: "'cpsp' +WSdlh1tXfUQwf3UoMLkw2jD8MLcw8zCw in +MOkwxjDzZYdbVwAA lookup 0 +MLUw1jDGMPww1jDr" dx=5 dy=0 dh=10 dv=0
EndChar

StartChar: uni1E62
Encoding: 7778 7778 101
Width: 637
GlyphClass: 2
Flags: MW
HStem: -196 136<306.5 343.5> -10 109<284.5 373.5 284.5 402> 662 98<288.5 372>
VStem: 82 117<540.5 602 540.5 625> 257 136<-146.5 -109.5> 475 116
AnchorPoint: "Anchor-3" 0 0 basechar 0
AnchorPoint: "Anchor-2" 341 750 basechar 0
AnchorPoint: "Anchor-1" 0 0 basechar 0
AnchorPoint: "Anchor-0" 325 -196 basechar 0
LayerCount: 2
Fore
SplineSet
328 -10 m 0
 206 -10 94 49 37 136 c 1
 120 219 l 1
 151 144 237 99 332 99 c 0
 415 99 474 129 475 200 c 0
 476 290 390 325 298 360 c 0
 194 400 82 441 82 563 c 0
 82 687 186 760 321 760 c 0
 446 760 539 715 594 651 c 1
 517 574 l 1
 482 627 420 662 324 662 c 0
 253 662 199 632 199 572 c 0
 199 509 271 479 353 446 c 0
 463 402 591 351 591 206 c 0
 591 56 476 -10 328 -10 c 0
325 -196 m 0
 288 -196 257 -165 257 -128 c 0
 257 -91 288 -60 325 -60 c 0
 362 -60 393 -91 393 -128 c 0
 393 -165 362 -196 325 -196 c 0
EndSplineSet
Validated: 33
Position2: "'cpsp' +WSdlh1tXfUQwf3UoMLkw2jD8MLcw8zCw in +MOkwxjDzZYdbVwAA lookup 0 +MLUw1jDGMPww1jDr" dx=5 dy=0 dh=10 dv=0
EndChar

StartChar: T
Encoding: 84 84 102
Width: 587
GlyphClass: 2
Flags: MW
HStem: 0 21G<237 351 237 237> 649 101<37 237 37 551 351 551 351 351>
VStem: 237 114<0 649 0 649>
AnchorPoint: "Anchor-3" 293 375 basechar 0
AnchorPoint: "Anchor-2" 293 750 basechar 0
AnchorPoint: "Anchor-1" 0 0 basechar 0
AnchorPoint: "Anchor-0" 293 0 basechar 0
LayerCount: 2
Fore
SplineSet
551 750 m 1
 551 649 l 1
 351 649 l 1
 351 0 l 1
 237 0 l 1
 237 649 l 1
 37 649 l 1
 37 750 l 1
 551 750 l 1
EndSplineSet
Validated: 1
Position2: "'cpsp' +WSdlh1tXfUQwf3UoMLkw2jD8MLcw8zCw in +MOkwxjDzZYdbVwAA lookup 0 +MLUw1jDGMPww1jDr" dx=5 dy=0 dh=10 dv=0
EndChar

StartChar: Tbar
Encoding: 358 358 103
Width: 587
GlyphClass: 2
Flags: MW
HStem: 0 21G<237 351 237 237> 336 78<135 237 135 237 351 450> 649 101<37 237 37 551 351 551 351 351>
VStem: 237 114<0 336 0 336 414 649>
AnchorPoint: "Anchor-3" 293 375 basechar 0
AnchorPoint: "Anchor-2" 293 750 basechar 0
AnchorPoint: "Anchor-1" 0 0 basechar 0
AnchorPoint: "Anchor-0" 293 0 basechar 0
LayerCount: 2
Fore
SplineSet
551 649 m 1
 351 649 l 1
 351 414 l 1
 450 414 l 1
 450 336 l 1
 351 336 l 1
 351 0 l 1
 237 0 l 1
 237 336 l 1
 135 336 l 1
 135 414 l 1
 237 414 l 1
 237 649 l 1
 37 649 l 1
 37 750 l 1
 551 750 l 1
 551 649 l 1
EndSplineSet
Validated: 1
Position2: "'cpsp' +WSdlh1tXfUQwf3UoMLkw2jD8MLcw8zCw in +MOkwxjDzZYdbVwAA lookup 0 +MLUw1jDGMPww1jDr" dx=5 dy=0 dh=10 dv=0
EndChar

StartChar: Tcaron
Encoding: 356 356 104
Width: 587
GlyphClass: 2
Flags: MW
HStem: 0 21G<237 351 237 237> 649 101<37 237 37 551 351 551 351 351> 829 171<131 351 131 234>
VStem: 237 114<0 649 0 649>
AnchorPoint: "Anchor-3" 293 375 basechar 0
AnchorPoint: "Anchor-2" 293 1000 basechar 0
AnchorPoint: "Anchor-1" 0 0 basechar 0
AnchorPoint: "Anchor-0" 293 0 basechar 0
LayerCount: 2
Fore
SplineSet
351 829 m 1
 234 829 l 1
 131 1000 l 1
 215 1000 l 1
 293 881 l 1
 371 1000 l 1
 455 1000 l 1
 351 829 l 1
551 750 m 1
 551 649 l 1
 351 649 l 1
 351 0 l 1
 237 0 l 1
 237 649 l 1
 37 649 l 1
 37 750 l 1
 551 750 l 1
EndSplineSet
Validated: 1
Position2: "'cpsp' +WSdlh1tXfUQwf3UoMLkw2jD8MLcw8zCw in +MOkwxjDzZYdbVwAA lookup 0 +MLUw1jDGMPww1jDr" dx=5 dy=0 dh=10 dv=0
EndChar

StartChar: uni0162
Encoding: 354 354 105
Width: 587
GlyphClass: 2
Flags: MW
HStem: -260 53<292 318.5 292 333.5> -106.76 45.17 0 21G<237 266 237 237 320 351 320 320> 649 101<37 237 37 551 351 351 351 551>
VStem: 237 114<0 649> 355 54<-169.5 -133.5>
AnchorPoint: "Anchor-3" 293 375 basechar 0
AnchorPoint: "Anchor-2" 293 750 basechar 0
AnchorPoint: "Anchor-1" 0 0 basechar 0
AnchorPoint: "Anchor-0" 304 -260 basechar 0
LayerCount: 2
Fore
SplineSet
351 0 m 1
 320 0 l 1xf8
 287 -64 l 1
 355 -51 409 -92 409 -155 c 0
 409 -213 363 -260 304 -260 c 0
 257 -260 206 -230 188 -192 c 1
 238 -173 l 1
 251 -192 280 -207 304 -207 c 0
 333 -207 355 -184 355 -155 c 0
 355 -112 314 -94 262 -116 c 1xf4
 219 -89 l 1
 266 0 l 1
 237 0 l 1
 237 649 l 1
 37 649 l 1
 37 750 l 1
 551 750 l 1
 551 649 l 1
 351 649 l 1
 351 0 l 1
EndSplineSet
Validated: 33
Substitution2: "'locl' +Vv0w+1cwV99W+mcJMG5bV19i in +MOkwxjDzZYdbVwAA lookup 5 +MLUw1jDGMPww1jDr" uni021A
Substitution2: "'locl' +Vv0w+1cwV99W+mcJMG5bV19i in +MOkwxjDzZYdbVwAA lookup 4 +MLUw1jDGMPww1jDr" uni021A
Substitution2: "'aalt' +MFkweTBmMG51cE9TW1cweDBuMKIwrzC7MLkA in +MOkwxjDzZYdbVwAA lookup 0 +MLUw1jDGMPww1jDr" uni021A
Position2: "'cpsp' +WSdlh1tXfUQwf3UoMLkw2jD8MLcw8zCw in +MOkwxjDzZYdbVwAA lookup 0 +MLUw1jDGMPww1jDr" dx=5 dy=0 dh=10 dv=0
EndChar

StartChar: uni021A
Encoding: 538 538 106
Width: 587
GlyphClass: 2
Flags: MW
HStem: -176 136<274 299.5> 0 21G<237 351 237 237> 649 101<37 237 37 551 351 551 351 351>
VStem: 237 114<0 649 0 649> 297.72 64.28
AnchorPoint: "Anchor-3" 293 375 basechar 0
AnchorPoint: "Anchor-2" 293 750 basechar 0
AnchorPoint: "Anchor-1" 0 0 basechar 0
AnchorPoint: "Anchor-0" 293 -301 basechar 0
LayerCount: 2
Fore
SplineSet
37 750 m 1xf0
 551 750 l 1
 551 649 l 1
 351 649 l 1
 351 0 l 1
 237 0 l 1
 237 649 l 1
 37 649 l 1
 37 750 l 1xf0
294 -40 m 0xe8
 333 -40 362 -71 362 -115 c 0
 362 -217 315 -305 236 -301 c 1
 236 -261 l 1
 294 -260 306 -176 293 -176 c 0
 254 -176 226 -148 226 -108 c 0
 226 -69 254 -40 294 -40 c 0xe8
EndSplineSet
Validated: 33
Position2: "'cpsp' +WSdlh1tXfUQwf3UoMLkw2jD8MLcw8zCw in +MOkwxjDzZYdbVwAA lookup 0 +MLUw1jDGMPww1jDr" dx=5 dy=0 dh=10 dv=0
EndChar

StartChar: uni1E6C
Encoding: 7788 7788 107
Width: 587
GlyphClass: 2
Flags: MW
HStem: -196 136<274.5 311.5> 0 21G<237 351 237 237> 649 101<37 237 37 551 351 551 351 351>
VStem: 225 136<-146.5 -109.5> 237 114<0 649 0 649>
AnchorPoint: "Anchor-3" 293 375 basechar 0
AnchorPoint: "Anchor-2" 293 750 basechar 0
AnchorPoint: "Anchor-1" 0 0 basechar 0
AnchorPoint: "Anchor-0" 293 -196 basechar 0
LayerCount: 2
Fore
SplineSet
37 750 m 1xe8
 551 750 l 1
 551 649 l 1
 351 649 l 1
 351 0 l 1
 237 0 l 1
 237 649 l 1
 37 649 l 1
 37 750 l 1xe8
293 -60 m 0xf0
 330 -60 361 -91 361 -128 c 0
 361 -165 330 -196 293 -196 c 0
 256 -196 225 -165 225 -128 c 0
 225 -91 256 -60 293 -60 c 0xf0
EndSplineSet
Validated: 1
Position2: "'cpsp' +WSdlh1tXfUQwf3UoMLkw2jD8MLcw8zCw in +MOkwxjDzZYdbVwAA lookup 0 +MLUw1jDGMPww1jDr" dx=5 dy=0 dh=10 dv=0
EndChar

StartChar: U
Encoding: 85 85 108
Width: 740
GlyphClass: 2
Flags: MW
HStem: -10 101<320 420 320 452> 730 20G<76 191 191 191 549 664 664 664>
VStem: 76 115<244 264 264 750> 549 115<264 750>
AnchorPoint: "Anchor-3" 0 0 basechar 0
AnchorPoint: "Anchor-2" 370 750 basechar 0
AnchorPoint: "Anchor-1" 458 4 basechar 0
AnchorPoint: "Anchor-0" 370 0 basechar 0
LayerCount: 2
Fore
SplineSet
370 -10 m 0
 206 -10 76 102 76 244 c 2
 76 750 l 1
 191 750 l 1
 191 264 l 2
 191 168 270 91 370 91 c 0
 470 91 549 168 549 264 c 2
 549 750 l 1
 664 750 l 1
 664 244 l 2
 664 102 534 -10 370 -10 c 0
EndSplineSet
Validated: 1
Position2: "'cpsp' +WSdlh1tXfUQwf3UoMLkw2jD8MLcw8zCw in +MOkwxjDzZYdbVwAA lookup 0 +MLUw1jDGMPww1jDr" dx=5 dy=0 dh=10 dv=0
EndChar

StartChar: Uacute
Encoding: 218 218 109
Width: 740
GlyphClass: 2
Flags: MW
HStem: -10 101<320 420 320 452> 730 20G<76 191 191 191 549 664 664 664> 840 160<328 528 328 528>
VStem: 76 115<244 264 264 750> 549 115<264 750>
AnchorPoint: "Anchor-3" 0 0 basechar 0
AnchorPoint: "Anchor-2" 370 859 basechar 0
AnchorPoint: "Anchor-1" 458 4 basechar 0
AnchorPoint: "Anchor-0" 370 0 basechar 0
LayerCount: 2
Fore
SplineSet
328 840 m 1
 415 1000 l 1
 528 1000 l 1
 415 840 l 1
 328 840 l 1
370 -10 m 0
 206 -10 76 102 76 244 c 2
 76 750 l 1
 191 750 l 1
 191 264 l 2
 191 168 270 91 370 91 c 0
 470 91 549 168 549 264 c 2
 549 750 l 1
 664 750 l 1
 664 244 l 2
 664 102 534 -10 370 -10 c 0
EndSplineSet
Validated: 1
Position2: "'cpsp' +WSdlh1tXfUQwf3UoMLkw2jD8MLcw8zCw in +MOkwxjDzZYdbVwAA lookup 0 +MLUw1jDGMPww1jDr" dx=5 dy=0 dh=10 dv=0
EndChar

StartChar: uni01D3
Encoding: 467 467 110
Width: 740
GlyphClass: 2
Flags: MW
HStem: -10 101<320 420 320 452> 730 20G<76 191 191 191 549 664 664 664> 829 171<208 311 208 428>
VStem: 76 115<244 264 264 750> 549 115<264 750>
AnchorPoint: "Anchor-3" 0 0 basechar 0
AnchorPoint: "Anchor-2" 370 1000 basechar 0
AnchorPoint: "Anchor-1" 458 4 basechar 0
AnchorPoint: "Anchor-0" 370 0 basechar 0
LayerCount: 2
Fore
SplineSet
311 829 m 1
 208 1000 l 1
 292 1000 l 1
 370 881 l 1
 448 1000 l 1
 532 1000 l 1
 428 829 l 1
 311 829 l 1
370 -10 m 0
 206 -10 76 102 76 244 c 2
 76 750 l 1
 191 750 l 1
 191 264 l 2
 191 168 270 91 370 91 c 0
 470 91 549 168 549 264 c 2
 549 750 l 1
 664 750 l 1
 664 244 l 2
 664 102 534 -10 370 -10 c 0
EndSplineSet
Validated: 1
Position2: "'cpsp' +WSdlh1tXfUQwf3UoMLkw2jD8MLcw8zCw in +MOkwxjDzZYdbVwAA lookup 0 +MLUw1jDGMPww1jDr" dx=5 dy=0 dh=10 dv=0
EndChar

StartChar: Ucircumflex
Encoding: 219 219 111
Width: 740
GlyphClass: 2
Flags: MW
HStem: -10 101<320 420 320 452> 730 20G<76 191 191 191 549 664 664 664> 829 171<208 428 208 428 311 444 311 532>
VStem: 76 115<244 264 264 750> 549 115<264 750>
AnchorPoint: "Anchor-3" 0 0 basechar 0
AnchorPoint: "Anchor-2" 370 983 basechar 0
AnchorPoint: "Anchor-1" 458 4 basechar 0
AnchorPoint: "Anchor-0" 370 0 basechar 0
LayerCount: 2
Fore
SplineSet
208 829 m 1
 311 1000 l 1
 428 1000 l 1
 532 829 l 1
 444 829 l 1
 370 949 l 1
 295 829 l 1
 208 829 l 1
370 -10 m 0
 206 -10 76 102 76 244 c 2
 76 750 l 1
 191 750 l 1
 191 264 l 2
 191 168 270 91 370 91 c 0
 470 91 549 168 549 264 c 2
 549 750 l 1
 664 750 l 1
 664 244 l 2
 664 102 534 -10 370 -10 c 0
EndSplineSet
Validated: 1
Position2: "'cpsp' +WSdlh1tXfUQwf3UoMLkw2jD8MLcw8zCw in +MOkwxjDzZYdbVwAA lookup 0 +MLUw1jDGMPww1jDr" dx=5 dy=0 dh=10 dv=0
EndChar

StartChar: Udieresis
Encoding: 220 220 112
Width: 740
GlyphClass: 2
Flags: MW
HStem: -10 101<320 420 320 452> 730 20G<76 191 191 191 549 664 664 664> 840 135<251.5 288.5 451.5 488.5>
VStem: 76 115<244 264 264 750> 202 136<888.5 926> 402 135<888.5 926> 549 115<264 750>
AnchorPoint: "Anchor-3" 0 0 basechar 0
AnchorPoint: "Anchor-2" 370 983 basechar 0
AnchorPoint: "Anchor-1" 458 4 basechar 0
AnchorPoint: "Anchor-0" 370 0 basechar 0
LayerCount: 2
Fore
SplineSet
270 840 m 0
 233 840 202 870 202 907 c 0
 202 945 233 975 270 975 c 0
 307 975 338 945 338 907 c 0
 338 870 307 840 270 840 c 0
470 840 m 0
 433 840 402 870 402 907 c 0
 402 945 433 975 470 975 c 0
 507 975 537 945 537 907 c 0
 537 870 507 840 470 840 c 0
370 -10 m 0xd2
 206 -10 76 102 76 244 c 2
 76 750 l 1
 191 750 l 1
 191 264 l 2
 191 168 270 91 370 91 c 0
 470 91 549 168 549 264 c 2
 549 750 l 1
 664 750 l 1
 664 244 l 2
 664 102 534 -10 370 -10 c 0xd2
EndSplineSet
Validated: 1
Position2: "'cpsp' +WSdlh1tXfUQwf3UoMLkw2jD8MLcw8zCw in +MOkwxjDzZYdbVwAA lookup 0 +MLUw1jDGMPww1jDr" dx=5 dy=0 dh=10 dv=0
EndChar

StartChar: uni1EE4
Encoding: 7908 7908 113
Width: 740
GlyphClass: 2
Flags: MW
HStem: -196 136<351.5 388.5> -10 101<320 420 320 452> 730 20G<76 191 191 191 549 664 664 664>
VStem: 76 115<244 264 264 750> 302 136<-146.5 -109.5> 549 115<264 750>
AnchorPoint: "Anchor-3" 0 0 basechar 0
AnchorPoint: "Anchor-2" 370 750 basechar 0
AnchorPoint: "Anchor-1" 458 4 basechar 0
AnchorPoint: "Anchor-0" 370 -196 basechar 0
LayerCount: 2
Fore
SplineSet
370 -10 m 0
 206 -10 76 102 76 244 c 2
 76 750 l 1
 191 750 l 1
 191 264 l 2
 191 168 270 91 370 91 c 0
 470 91 549 168 549 264 c 2
 549 750 l 1
 664 750 l 1
 664 244 l 2
 664 102 534 -10 370 -10 c 0
370 -196 m 0
 333 -196 302 -165 302 -128 c 0
 302 -91 333 -60 370 -60 c 0
 407 -60 438 -91 438 -128 c 0
 438 -165 407 -196 370 -196 c 0
EndSplineSet
Validated: 1
Position2: "'cpsp' +WSdlh1tXfUQwf3UoMLkw2jD8MLcw8zCw in +MOkwxjDzZYdbVwAA lookup 0 +MLUw1jDGMPww1jDr" dx=5 dy=0 dh=10 dv=0
EndChar

StartChar: Ugrave
Encoding: 217 217 114
Width: 740
GlyphClass: 2
Flags: MW
HStem: -10 101<320 420 320 452> 730 20G<76 191 191 191 549 664 664 664> 840 160<208 322 208 408>
VStem: 76 115<244 264 264 750> 549 115<264 750>
AnchorPoint: "Anchor-3" 0 0 basechar 0
AnchorPoint: "Anchor-2" 370 859 basechar 0
AnchorPoint: "Anchor-1" 458 4 basechar 0
AnchorPoint: "Anchor-0" 370 0 basechar 0
LayerCount: 2
Fore
SplineSet
322 840 m 1
 208 1000 l 1
 321 1000 l 1
 408 840 l 1
 322 840 l 1
370 -10 m 0
 206 -10 76 102 76 244 c 2
 76 750 l 1
 191 750 l 1
 191 264 l 2
 191 168 270 91 370 91 c 0
 470 91 549 168 549 264 c 2
 549 750 l 1
 664 750 l 1
 664 244 l 2
 664 102 534 -10 370 -10 c 0
EndSplineSet
Validated: 1
Position2: "'cpsp' +WSdlh1tXfUQwf3UoMLkw2jD8MLcw8zCw in +MOkwxjDzZYdbVwAA lookup 0 +MLUw1jDGMPww1jDr" dx=5 dy=0 dh=10 dv=0
EndChar

StartChar: Uhungarumlaut
Encoding: 368 368 115
Width: 740
GlyphClass: 2
Flags: MW
HStem: -10 101<320 420 320 452> 730 20G<76 191 191 191 549 664 664 664> 824 176<237 487 237 487 423 487 381 503 423 423>
VStem: 76 115<244 264 264 750> 549 115<264 750>
AnchorPoint: "Anchor-3" 0 0 basechar 0
AnchorPoint: "Anchor-2" 370 750 basechar 0
AnchorPoint: "Anchor-1" 458 4 basechar 0
AnchorPoint: "Anchor-0" 370 0 basechar 0
LayerCount: 2
Fore
SplineSet
237 824 m 1
 381 1000 l 1
 487 1000 l 1
 317 824 l 1
 237 824 l 1
423 824 m 1
 567 1000 l 1
 673 1000 l 1
 503 824 l 1
 423 824 l 1
370 -10 m 0
 206 -10 76 102 76 244 c 2
 76 750 l 1
 191 750 l 1
 191 264 l 2
 191 168 270 91 370 91 c 0
 470 91 549 168 549 264 c 2
 549 750 l 1
 664 750 l 1
 664 244 l 2
 664 102 534 -10 370 -10 c 0
EndSplineSet
Validated: 1
Position2: "'cpsp' +WSdlh1tXfUQwf3UoMLkw2jD8MLcw8zCw in +MOkwxjDzZYdbVwAA lookup 0 +MLUw1jDGMPww1jDr" dx=5 dy=0 dh=10 dv=0
EndChar

StartChar: Umacron
Encoding: 362 362 116
Width: 740
GlyphClass: 2
Flags: MW
HStem: -10 101<320 420 320 452> 730 20G<76 191 191 191 549 664 664 664> 844 72<215 525 215 525>
VStem: 76 115<244 264 264 750> 549 115<264 750>
AnchorPoint: "Anchor-3" 0 0 basechar 0
AnchorPoint: "Anchor-2" 370 1000 basechar 0
AnchorPoint: "Anchor-1" 458 4 basechar 0
AnchorPoint: "Anchor-0" 370 0 basechar 0
LayerCount: 2
Fore
SplineSet
215 844 m 1
 215 916 l 1
 525 916 l 1
 525 844 l 1
 215 844 l 1
370 -10 m 0
 206 -10 76 102 76 244 c 2
 76 750 l 1
 191 750 l 1
 191 264 l 2
 191 168 270 91 370 91 c 0
 470 91 549 168 549 264 c 2
 549 750 l 1
 664 750 l 1
 664 244 l 2
 664 102 534 -10 370 -10 c 0
EndSplineSet
Validated: 1
Position2: "'cpsp' +WSdlh1tXfUQwf3UoMLkw2jD8MLcw8zCw in +MOkwxjDzZYdbVwAA lookup 0 +MLUw1jDGMPww1jDr" dx=5 dy=0 dh=10 dv=0
EndChar

StartChar: Uogonek
Encoding: 370 370 117
Width: 740
GlyphClass: 2
Flags: MW
HStem: -255 57 -9 100 730 20G<76 191 191 191 549 664 664 664>
VStem: 76 115<244 264 264 750> 244 76<-155 -119> 549 115<264 750>
AnchorPoint: "Anchor-3" 0 0 basechar 0
AnchorPoint: "Anchor-2" 370 750 basechar 0
AnchorPoint: "Anchor-1" 458 4 basechar 0
AnchorPoint: "Anchor-0" 370 0 basechar 0
LayerCount: 2
Fore
SplineSet
549 750 m 1
 664 750 l 1
 664 244 l 2
 664 113 554 8 408 -8 c 1
 359 -31 320 -86 320 -138 c 0
 320 -172 342 -198 383 -198 c 0
 419 -198 455 -178 475 -149 c 1
 511 -200 l 1
 471 -240 418 -258 364 -255 c 0
 295 -251 244 -215 244 -147 c 0
 244 -91 278 -43 338 -9 c 1
 189 5 76 112 76 244 c 2
 76 750 l 1
 191 750 l 1
 191 264 l 2
 191 168 270 91 370 91 c 0
 470 91 549 168 549 264 c 2
 549 750 l 1
EndSplineSet
Validated: 33
Position2: "'cpsp' +WSdlh1tXfUQwf3UoMLkw2jD8MLcw8zCw in +MOkwxjDzZYdbVwAA lookup 0 +MLUw1jDGMPww1jDr" dx=5 dy=0 dh=10 dv=0
EndChar

StartChar: Uring
Encoding: 366 366 118
Width: 740
GlyphClass: 2
Flags: MW
HStem: -10 101<320 420 320 452> 730 20G<76 191 191 191 549 664 664 664> 806 48<353.5 386.5 353.5 399.5> 975 47<353.5 386.5>
VStem: 76 115<244 264 264 750> 261 50<896.5 930.5 896.5 943.5> 429 48<896.5 930.5> 549 115<264 750>
AnchorPoint: "Anchor-3" 0 0 basechar 0
AnchorPoint: "Anchor-2" 370 908 basechar 0
AnchorPoint: "Anchor-1" 458 4 basechar 0
AnchorPoint: "Anchor-0" 370 0 basechar 0
LayerCount: 2
Fore
SplineSet
370 806 m 0
 310 806 261 855 261 914 c 0
 261 973 310 1022 370 1022 c 0
 429 1022 477 973 477 914 c 0
 477 855 429 806 370 806 c 0
370 854 m 0
 403 854 429 879 429 914 c 0
 429 947 403 975 370 975 c 0
 337 975 311 947 311 914 c 0
 311 879 337 854 370 854 c 0
370 -10 m 0
 206 -10 76 102 76 244 c 2
 76 750 l 1
 191 750 l 1
 191 264 l 2
 191 168 270 91 370 91 c 0
 470 91 549 168 549 264 c 2
 549 750 l 1
 664 750 l 1
 664 244 l 2
 664 102 534 -10 370 -10 c 0
EndSplineSet
Validated: 1
Position2: "'cpsp' +WSdlh1tXfUQwf3UoMLkw2jD8MLcw8zCw in +MOkwxjDzZYdbVwAA lookup 0 +MLUw1jDGMPww1jDr" dx=5 dy=0 dh=10 dv=0
EndChar

StartChar: Utilde
Encoding: 360 360 119
Width: 740
GlyphClass: 2
Flags: MW
HStem: -10 101<320 420 320 452> 730 20G<76 191 191 191 549 664 664 664> 828 66<427.5 450 427.5 472.5> 909 66<290 312>
VStem: 76 115<244 264 264 750> 202.43 66.83 470.31 66.69 549 115<264 750>
AnchorPoint: "Anchor-3" 0 0 basechar 0
AnchorPoint: "Anchor-2" 370 970 basechar 0
AnchorPoint: "Anchor-1" 458 4 basechar 0
AnchorPoint: "Anchor-0" 370 0 basechar 0
LayerCount: 2
Fore
SplineSet
438 828 m 0
 399 828 368 845 342 884 c 0
 331 901 320 909 304 909 c 0
 276 909 262 879 273 837 c 1
 205 837 l 1
 191 918 236 975 301 975 c 0xfd
 344 975 376 952 398 919 c 0
 408 902 419 894 436 894 c 0
 464 894 477 923 467 966 c 1
 534 966 l 1
 549 887 507 828 438 828 c 0
370 -10 m 0xe9
 206 -10 76 102 76 244 c 2
 76 750 l 1
 191 750 l 1
 191 264 l 2
 191 168 270 91 370 91 c 0
 470 91 549 168 549 264 c 2
 549 750 l 1
 664 750 l 1
 664 244 l 2
 664 102 534 -10 370 -10 c 0xe9
EndSplineSet
Validated: 33
Position2: "'cpsp' +WSdlh1tXfUQwf3UoMLkw2jD8MLcw8zCw in +MOkwxjDzZYdbVwAA lookup 0 +MLUw1jDGMPww1jDr" dx=5 dy=0 dh=10 dv=0
EndChar

StartChar: V
Encoding: 86 86 120
Width: 762
GlyphClass: 2
Flags: MW
HStem: 0 21G<316 445 316 316> 0 133<381 381 381 445 316 381> 730 20G<15 144 144 144 617 746 746 746>
VStem: 15 731<750 750>
LayerCount: 2
Fore
SplineSet
617 750 m 1xb0
 746 750 l 1
 445 0 l 1
 316 0 l 1
 15 750 l 1
 144 750 l 1
 381 133 l 1x70
 617 750 l 1xb0
EndSplineSet
Validated: 1
Position2: "'cpsp' +WSdlh1tXfUQwf3UoMLkw2jD8MLcw8zCw in +MOkwxjDzZYdbVwAA lookup 0 +MLUw1jDGMPww1jDr" dx=5 dy=0 dh=10 dv=0
EndChar

StartChar: W
Encoding: 87 87 121
Width: 1121
GlyphClass: 2
Flags: MW
HStem: 0 21G<308 432 308 308 689 814 689 689> 0 135<748 748 748 814 689 748> 730 20G<-10 114 114 114 373 491 491 491 1007 1131 1131 1131>
VStem: -10 1141<750 750>
AnchorPoint: "Anchor-3" 0 0 basechar 0
AnchorPoint: "Anchor-2" 561 750 basechar 0
AnchorPoint: "Anchor-1" 0 0 basechar 0
AnchorPoint: "Anchor-0" 561 0 basechar 0
LayerCount: 2
Fore
SplineSet
1007 750 m 1xb0
 1131 750 l 1
 814 0 l 1
 689 0 l 1
 560 305 l 1
 432 0 l 1
 308 0 l 1
 -10 750 l 1
 114 750 l 1
 374 136 l 1
 503 441 l 1
 373 750 l 1
 491 750 l 1
 748 135 l 1x70
 1007 750 l 1xb0
EndSplineSet
Validated: 1
Position2: "'cpsp' +WSdlh1tXfUQwf3UoMLkw2jD8MLcw8zCw in +MOkwxjDzZYdbVwAA lookup 0 +MLUw1jDGMPww1jDr" dx=5 dy=0 dh=10 dv=0
EndChar

StartChar: Wacute
Encoding: 7810 7810 122
Width: 1121
GlyphClass: 2
Flags: MW
HStem: 0 21G<308 432 308 308 689 814 689 689> 0 135<748 748 748 814 689 748> 730 20G<-10 114 114 114 373 491 491 491 1007 1131 1131 1131> 840 160<519 719 519 719>
VStem: -10 1141<750 750>
AnchorPoint: "Anchor-3" 0 0 basechar 0
AnchorPoint: "Anchor-2" 561 859 basechar 0
AnchorPoint: "Anchor-1" 0 0 basechar 0
AnchorPoint: "Anchor-0" 561 0 basechar 0
LayerCount: 2
Fore
SplineSet
719 1000 m 1xb8
 606 840 l 1
 519 840 l 1
 606 1000 l 1
 719 1000 l 1xb8
1007 750 m 1
 1131 750 l 1
 814 0 l 1
 689 0 l 1
 560 305 l 1
 432 0 l 1
 308 0 l 1
 -10 750 l 1
 114 750 l 1
 374 136 l 1
 503 441 l 1
 373 750 l 1
 491 750 l 1
 748 135 l 1x78
 1007 750 l 1
EndSplineSet
Validated: 1
Position2: "'cpsp' +WSdlh1tXfUQwf3UoMLkw2jD8MLcw8zCw in +MOkwxjDzZYdbVwAA lookup 0 +MLUw1jDGMPww1jDr" dx=5 dy=0 dh=10 dv=0
EndChar

StartChar: Wcircumflex
Encoding: 372 372 123
Width: 1121
GlyphClass: 2
Flags: MW
HStem: 0 21G<308 432 308 308 689 814 689 689> 0 135<748 748 748 814 689 748> 730 20G<-10 114 114 114 373 491 491 491 1007 1131 1131 1131> 829 171<399 619 399 619 502 635 502 723>
VStem: -10 1141<750 750>
AnchorPoint: "Anchor-3" 0 0 basechar 0
AnchorPoint: "Anchor-2" 561 983 basechar 0
AnchorPoint: "Anchor-1" 0 0 basechar 0
AnchorPoint: "Anchor-0" 561 0 basechar 0
LayerCount: 2
Fore
SplineSet
561 949 m 1xb8
 486 829 l 1
 399 829 l 1
 502 1000 l 1
 619 1000 l 1
 723 829 l 1
 635 829 l 1
 561 949 l 1xb8
1007 750 m 1
 1131 750 l 1
 814 0 l 1
 689 0 l 1
 560 305 l 1
 432 0 l 1
 308 0 l 1
 -10 750 l 1
 114 750 l 1
 374 136 l 1
 503 441 l 1
 373 750 l 1
 491 750 l 1
 748 135 l 1x78
 1007 750 l 1
EndSplineSet
Validated: 1
Position2: "'cpsp' +WSdlh1tXfUQwf3UoMLkw2jD8MLcw8zCw in +MOkwxjDzZYdbVwAA lookup 0 +MLUw1jDGMPww1jDr" dx=5 dy=0 dh=10 dv=0
EndChar

StartChar: Wdieresis
Encoding: 7812 7812 124
Width: 1121
GlyphClass: 2
Flags: MW
HStem: 0 21G<308 432 308 308 689 814 689 689> 0 135<748 748 748 814 689 748> 730 20G<-10 114 114 114 373 491 491 491 1007 1131 1131 1131> 840 135<442.5 479.5 642.5 679.5>
VStem: 393 136<888.5 926> 593 135<888.5 926>
AnchorPoint: "Anchor-3" 0 0 basechar 0
AnchorPoint: "Anchor-2" 561 983 basechar 0
AnchorPoint: "Anchor-1" 0 0 basechar 0
AnchorPoint: "Anchor-0" 561 0 basechar 0
LayerCount: 2
Fore
SplineSet
461 840 m 0xbc
 424 840 393 870 393 907 c 0
 393 945 424 975 461 975 c 0
 498 975 529 945 529 907 c 0
 529 870 498 840 461 840 c 0xbc
661 840 m 0
 624 840 593 870 593 907 c 0
 593 945 624 975 661 975 c 0
 698 975 728 945 728 907 c 0
 728 870 698 840 661 840 c 0
1007 750 m 1
 1131 750 l 1
 814 0 l 1
 689 0 l 1
 560 305 l 1
 432 0 l 1
 308 0 l 1
 -10 750 l 1
 114 750 l 1
 374 136 l 1
 503 441 l 1
 373 750 l 1
 491 750 l 1
 748 135 l 1x7c
 1007 750 l 1
EndSplineSet
Validated: 1
Position2: "'cpsp' +WSdlh1tXfUQwf3UoMLkw2jD8MLcw8zCw in +MOkwxjDzZYdbVwAA lookup 0 +MLUw1jDGMPww1jDr" dx=5 dy=0 dh=10 dv=0
EndChar

StartChar: Wgrave
Encoding: 7808 7808 125
Width: 1121
GlyphClass: 2
Flags: MW
HStem: 0 21G<308 432 308 308 689 814 689 689> 0 135<748 748 748 814 689 748> 730 20G<-10 114 114 114 373 491 491 491 1007 1131 1131 1131> 840 160<399 599 399 513>
VStem: -10 1141<750 750>
AnchorPoint: "Anchor-3" 0 0 basechar 0
AnchorPoint: "Anchor-2" 561 859 basechar 0
AnchorPoint: "Anchor-1" 0 0 basechar 0
AnchorPoint: "Anchor-0" 561 0 basechar 0
LayerCount: 2
Fore
SplineSet
599 840 m 1xb8
 513 840 l 1
 399 1000 l 1
 512 1000 l 1
 599 840 l 1xb8
1007 750 m 1
 1131 750 l 1
 814 0 l 1
 689 0 l 1
 560 305 l 1
 432 0 l 1
 308 0 l 1
 -10 750 l 1
 114 750 l 1
 374 136 l 1
 503 441 l 1
 373 750 l 1
 491 750 l 1
 748 135 l 1x78
 1007 750 l 1
EndSplineSet
Validated: 1
Position2: "'cpsp' +WSdlh1tXfUQwf3UoMLkw2jD8MLcw8zCw in +MOkwxjDzZYdbVwAA lookup 0 +MLUw1jDGMPww1jDr" dx=5 dy=0 dh=10 dv=0
EndChar

StartChar: X
Encoding: 88 88 126
Width: 670
GlyphClass: 2
Flags: MW
HStem: 0 21G<15 147 15 15 522 654 522 522> 730 20G<25 156 156 156 513 644 644 644>
VStem: 15 639<0 0>
LayerCount: 2
Fore
SplineSet
654 0 m 1
 522 0 l 1
 334 289 l 1
 147 0 l 1
 15 0 l 1
 272 383 l 1
 25 750 l 1
 156 750 l 1
 334 477 l 1
 513 750 l 1
 644 750 l 1
 396 383 l 1
 654 0 l 1
EndSplineSet
Validated: 1
Position2: "'cpsp' +WSdlh1tXfUQwf3UoMLkw2jD8MLcw8zCw in +MOkwxjDzZYdbVwAA lookup 0 +MLUw1jDGMPww1jDr" dx=5 dy=0 dh=10 dv=0
EndChar

StartChar: Y
Encoding: 89 89 127
Width: 670
GlyphClass: 2
Flags: MW
HStem: 0 21G<278 393 278 278> 730 20G<15 144 144 144 527 654 654 654>
VStem: 278 115<0 353 353 353>
AnchorPoint: "Anchor-3" 0 0 basechar 0
AnchorPoint: "Anchor-2" 336 750 basechar 0
AnchorPoint: "Anchor-1" 0 0 basechar 0
AnchorPoint: "Anchor-0" 336 0 basechar 0
LayerCount: 2
Fore
SplineSet
654 750 m 1
 393 356 l 1
 393 0 l 1
 278 0 l 1
 278 353 l 1
 15 750 l 1
 144 750 l 1
 335 452 l 1
 527 750 l 1
 654 750 l 1
EndSplineSet
Validated: 1
Position2: "'cpsp' +WSdlh1tXfUQwf3UoMLkw2jD8MLcw8zCw in +MOkwxjDzZYdbVwAA lookup 0 +MLUw1jDGMPww1jDr" dx=5 dy=0 dh=10 dv=0
EndChar

StartChar: Yacute
Encoding: 221 221 128
Width: 670
GlyphClass: 2
Flags: MW
HStem: 0 21G<278 393 278 278> 730 20G<15 144 144 144 527 654 654 654> 840 160<294 494 294 494>
VStem: 278 115<0 353 353 353>
AnchorPoint: "Anchor-3" 0 0 basechar 0
AnchorPoint: "Anchor-2" 336 859 basechar 0
AnchorPoint: "Anchor-1" 0 0 basechar 0
AnchorPoint: "Anchor-0" 336 0 basechar 0
LayerCount: 2
Fore
SplineSet
494 1000 m 1
 381 840 l 1
 294 840 l 1
 381 1000 l 1
 494 1000 l 1
654 750 m 1
 393 356 l 1
 393 0 l 1
 278 0 l 1
 278 353 l 1
 15 750 l 1
 144 750 l 1
 335 452 l 1
 527 750 l 1
 654 750 l 1
EndSplineSet
Validated: 1
Position2: "'cpsp' +WSdlh1tXfUQwf3UoMLkw2jD8MLcw8zCw in +MOkwxjDzZYdbVwAA lookup 0 +MLUw1jDGMPww1jDr" dx=5 dy=0 dh=10 dv=0
EndChar

StartChar: Ycircumflex
Encoding: 374 374 129
Width: 670
GlyphClass: 2
Flags: MW
HStem: 0 21G<278 393 278 278> 730 20G<15 144 144 144 527 654 654 654> 829 171<174 394 174 394 277 410 277 498>
VStem: 278 115<0 353 353 353>
AnchorPoint: "Anchor-3" 0 0 basechar 0
AnchorPoint: "Anchor-2" 336 983 basechar 0
AnchorPoint: "Anchor-1" 0 0 basechar 0
AnchorPoint: "Anchor-0" 336 0 basechar 0
LayerCount: 2
Fore
SplineSet
336 949 m 1
 261 829 l 1
 174 829 l 1
 277 1000 l 1
 394 1000 l 1
 498 829 l 1
 410 829 l 1
 336 949 l 1
654 750 m 1
 393 356 l 1
 393 0 l 1
 278 0 l 1
 278 353 l 1
 15 750 l 1
 144 750 l 1
 335 452 l 1
 527 750 l 1
 654 750 l 1
EndSplineSet
Validated: 1
Position2: "'cpsp' +WSdlh1tXfUQwf3UoMLkw2jD8MLcw8zCw in +MOkwxjDzZYdbVwAA lookup 0 +MLUw1jDGMPww1jDr" dx=5 dy=0 dh=10 dv=0
EndChar

StartChar: Ydieresis
Encoding: 376 376 130
Width: 670
GlyphClass: 2
Flags: MW
HStem: 0 21G<278 393 278 278> 730 20G<15 144 144 144 527 654 654 654> 840 135<217.5 254.5 417.5 454.5>
VStem: 168 136<888.5 926> 278 115<0 353 353 353> 368 135<888.5 926>
AnchorPoint: "Anchor-3" 0 0 basechar 0
AnchorPoint: "Anchor-2" 336 983 basechar 0
AnchorPoint: "Anchor-1" 0 0 basechar 0
AnchorPoint: "Anchor-0" 336 0 basechar 0
LayerCount: 2
Fore
SplineSet
236 840 m 0xf4
 199 840 168 870 168 907 c 0
 168 945 199 975 236 975 c 0
 273 975 304 945 304 907 c 0
 304 870 273 840 236 840 c 0xf4
436 840 m 0
 399 840 368 870 368 907 c 0
 368 945 399 975 436 975 c 0
 473 975 503 945 503 907 c 0
 503 870 473 840 436 840 c 0
654 750 m 1
 393 356 l 1
 393 0 l 1
 278 0 l 1
 278 353 l 1xe8
 15 750 l 1
 144 750 l 1
 335 452 l 1
 527 750 l 1
 654 750 l 1
EndSplineSet
Validated: 1
Position2: "'cpsp' +WSdlh1tXfUQwf3UoMLkw2jD8MLcw8zCw in +MOkwxjDzZYdbVwAA lookup 0 +MLUw1jDGMPww1jDr" dx=5 dy=0 dh=10 dv=0
EndChar

StartChar: uni1EF4
Encoding: 7924 7924 131
Width: 670
GlyphClass: 2
Flags: MW
HStem: -196 136<317.5 354.5> 0 21G<278 278 278 393> 730 20G<15 144 144 144 527 654 654 654>
VStem: 268 136<-146.5 -109.5> 278 115<0 353 353 353>
AnchorPoint: "Anchor-3" 0 0 basechar 0
AnchorPoint: "Anchor-2" 336 750 basechar 0
AnchorPoint: "Anchor-1" 0 0 basechar 0
AnchorPoint: "Anchor-0" 336 -196 basechar 0
LayerCount: 2
Fore
SplineSet
278 0 m 1xe8
 278 353 l 1
 15 750 l 1
 144 750 l 1
 335 452 l 1
 527 750 l 1
 654 750 l 1
 393 356 l 1
 393 0 l 1
 278 0 l 1xe8
336 -60 m 0xf0
 373 -60 404 -91 404 -128 c 0
 404 -165 373 -196 336 -196 c 0
 299 -196 268 -165 268 -128 c 0
 268 -91 299 -60 336 -60 c 0xf0
EndSplineSet
Validated: 1
Position2: "'cpsp' +WSdlh1tXfUQwf3UoMLkw2jD8MLcw8zCw in +MOkwxjDzZYdbVwAA lookup 0 +MLUw1jDGMPww1jDr" dx=5 dy=0 dh=10 dv=0
EndChar

StartChar: Ygrave
Encoding: 7922 7922 132
Width: 670
GlyphClass: 2
Flags: MW
HStem: 0 21G<278 393 278 278> 730 20G<15 144 144 144 527 654 654 654> 840 160<174 374 174 288>
VStem: 278 115<0 353 353 353>
AnchorPoint: "Anchor-3" 0 0 basechar 0
AnchorPoint: "Anchor-2" 336 859 basechar 0
AnchorPoint: "Anchor-1" 0 0 basechar 0
AnchorPoint: "Anchor-0" 336 0 basechar 0
LayerCount: 2
Fore
SplineSet
374 840 m 1
 288 840 l 1
 174 1000 l 1
 287 1000 l 1
 374 840 l 1
654 750 m 1
 393 356 l 1
 393 0 l 1
 278 0 l 1
 278 353 l 1
 15 750 l 1
 144 750 l 1
 335 452 l 1
 527 750 l 1
 654 750 l 1
EndSplineSet
Validated: 1
Position2: "'cpsp' +WSdlh1tXfUQwf3UoMLkw2jD8MLcw8zCw in +MOkwxjDzZYdbVwAA lookup 0 +MLUw1jDGMPww1jDr" dx=5 dy=0 dh=10 dv=0
EndChar

StartChar: uni1EF8
Encoding: 7928 7928 133
Width: 670
GlyphClass: 2
Flags: MW
HStem: 0 21G<278 393 278 278> 730 20G<15 144 144 144 527 654 654 654> 828 66<393.5 416 393.5 438.5> 909 66<256 278>
VStem: 168.43 66.83 278 115<0 353 353 353> 436.31 66.69
AnchorPoint: "Anchor-3" 0 0 basechar 0
AnchorPoint: "Anchor-2" 336 970 basechar 0
AnchorPoint: "Anchor-1" 0 0 basechar 0
AnchorPoint: "Anchor-0" 336 0 basechar 0
LayerCount: 2
Fore
SplineSet
239 837 m 1
 171 837 l 1
 157 918 202 975 267 975 c 0xfe
 310 975 342 952 364 919 c 0
 374 902 385 894 402 894 c 0
 430 894 443 923 433 966 c 1
 500 966 l 1
 515 887 473 828 404 828 c 0xee
 365 828 334 845 308 884 c 0
 297 901 286 909 270 909 c 0
 242 909 228 879 239 837 c 1
654 750 m 1
 393 356 l 1
 393 0 l 1
 278 0 l 1
 278 353 l 1
 15 750 l 1
 144 750 l 1
 335 452 l 1
 527 750 l 1
 654 750 l 1
EndSplineSet
Validated: 33
Position2: "'cpsp' +WSdlh1tXfUQwf3UoMLkw2jD8MLcw8zCw in +MOkwxjDzZYdbVwAA lookup 0 +MLUw1jDGMPww1jDr" dx=5 dy=0 dh=10 dv=0
EndChar

StartChar: Z
Encoding: 90 90 134
Width: 658
GlyphClass: 2
Flags: MW
HStem: 0 101<199 613 199 613> 649 101<54 449 54 605>
VStem: 43 570<0 61 61 61>
AnchorPoint: "Anchor-3" 0 0 basechar 0
AnchorPoint: "Anchor-2" 337 750 basechar 0
AnchorPoint: "Anchor-1" 0 0 basechar 0
AnchorPoint: "Anchor-0" 326 0 basechar 0
LayerCount: 2
Fore
SplineSet
199 101 m 1
 613 101 l 1
 613 0 l 1
 43 0 l 1
 43 61 l 1
 449 649 l 1
 54 649 l 1
 54 750 l 1
 605 750 l 1
 605 689 l 1
 199 101 l 1
EndSplineSet
Validated: 1
Position2: "'cpsp' +WSdlh1tXfUQwf3UoMLkw2jD8MLcw8zCw in +MOkwxjDzZYdbVwAA lookup 0 +MLUw1jDGMPww1jDr" dx=5 dy=0 dh=10 dv=0
EndChar

StartChar: Zacute
Encoding: 377 377 135
Width: 658
GlyphClass: 2
Flags: MW
HStem: 0 101<199 613 199 613> 649 101<54 449 54 605> 840 160<295 495 295 495>
VStem: 43 570<0 61 61 61>
AnchorPoint: "Anchor-3" 0 0 basechar 0
AnchorPoint: "Anchor-2" 337 859 basechar 0
AnchorPoint: "Anchor-1" 0 0 basechar 0
AnchorPoint: "Anchor-0" 326 0 basechar 0
LayerCount: 2
Fore
SplineSet
495 1000 m 1
 382 840 l 1
 295 840 l 1
 382 1000 l 1
 495 1000 l 1
199 101 m 1
 613 101 l 1
 613 0 l 1
 43 0 l 1
 43 61 l 1
 449 649 l 1
 54 649 l 1
 54 750 l 1
 605 750 l 1
 605 689 l 1
 199 101 l 1
EndSplineSet
Validated: 1
Position2: "'cpsp' +WSdlh1tXfUQwf3UoMLkw2jD8MLcw8zCw in +MOkwxjDzZYdbVwAA lookup 0 +MLUw1jDGMPww1jDr" dx=5 dy=0 dh=10 dv=0
EndChar

StartChar: Zcaron
Encoding: 381 381 136
Width: 658
GlyphClass: 2
Flags: MW
HStem: 0 101<199 613 199 613> 649 101<54 449 54 605> 829 171<175 395 175 278>
VStem: 43 570<0 61 61 61>
AnchorPoint: "Anchor-3" 0 0 basechar 0
AnchorPoint: "Anchor-2" 337 1000 basechar 0
AnchorPoint: "Anchor-1" 0 0 basechar 0
AnchorPoint: "Anchor-0" 326 0 basechar 0
LayerCount: 2
Fore
SplineSet
395 829 m 1
 278 829 l 1
 175 1000 l 1
 259 1000 l 1
 337 881 l 1
 415 1000 l 1
 499 1000 l 1
 395 829 l 1
199 101 m 1
 613 101 l 1
 613 0 l 1
 43 0 l 1
 43 61 l 1
 449 649 l 1
 54 649 l 1
 54 750 l 1
 605 750 l 1
 605 689 l 1
 199 101 l 1
EndSplineSet
Validated: 1
Position2: "'cpsp' +WSdlh1tXfUQwf3UoMLkw2jD8MLcw8zCw in +MOkwxjDzZYdbVwAA lookup 0 +MLUw1jDGMPww1jDr" dx=5 dy=0 dh=10 dv=0
EndChar

StartChar: Zdotaccent
Encoding: 379 379 137
Width: 658
GlyphClass: 2
Flags: MW
HStem: 0 101<199 613 199 613> 649 101<54 449 54 605> 840 135<318.5 355.5>
VStem: 269 136<888.5 926>
AnchorPoint: "Anchor-3" 0 0 basechar 0
AnchorPoint: "Anchor-2" 337 1010 basechar 0
AnchorPoint: "Anchor-1" 0 0 basechar 0
AnchorPoint: "Anchor-0" 326 0 basechar 0
LayerCount: 2
Fore
SplineSet
337 840 m 0
 300 840 269 870 269 907 c 0
 269 945 300 975 337 975 c 0
 374 975 405 945 405 907 c 0
 405 870 374 840 337 840 c 0
199 101 m 1
 613 101 l 1
 613 0 l 1
 43 0 l 1
 43 61 l 1
 449 649 l 1
 54 649 l 1
 54 750 l 1
 605 750 l 1
 605 689 l 1
 199 101 l 1
EndSplineSet
Validated: 1
Position2: "'cpsp' +WSdlh1tXfUQwf3UoMLkw2jD8MLcw8zCw in +MOkwxjDzZYdbVwAA lookup 0 +MLUw1jDGMPww1jDr" dx=5 dy=0 dh=10 dv=0
EndChar

StartChar: uni1E92
Encoding: 7826 7826 138
Width: 658
GlyphClass: 2
Flags: MW
HStem: -196 136<307.5 344.5> 0 101<199 613 199 613> 649 101<54 449 54 605>
VStem: 258 136<-146.5 -109.5>
AnchorPoint: "Anchor-3" 0 0 basechar 0
AnchorPoint: "Anchor-2" 337 750 basechar 0
AnchorPoint: "Anchor-1" 0 0 basechar 0
AnchorPoint: "Anchor-0" 326 -196 basechar 0
LayerCount: 2
Fore
SplineSet
199 101 m 1
 613 101 l 1
 613 0 l 1
 43 0 l 1
 43 61 l 1
 449 649 l 1
 54 649 l 1
 54 750 l 1
 605 750 l 1
 605 689 l 1
 199 101 l 1
326 -60 m 0
 363 -60 394 -91 394 -128 c 0
 394 -165 363 -196 326 -196 c 0
 289 -196 258 -165 258 -128 c 0
 258 -91 289 -60 326 -60 c 0
EndSplineSet
Validated: 1
Position2: "'cpsp' +WSdlh1tXfUQwf3UoMLkw2jD8MLcw8zCw in +MOkwxjDzZYdbVwAA lookup 0 +MLUw1jDGMPww1jDr" dx=5 dy=0 dh=10 dv=0
EndChar

StartChar: a
Encoding: 97 97 139
Width: 539
GlyphClass: 2
Flags: MW
HStem: -10 98<205 229> 0 21G<376 474 376 376> 209.09 82.02 416 94<229 284.5>
VStem: 45 113<130.5 168.5 130.5 188> 365 109<150 195 195 195 276 314 0 321 0 354.5>
AnchorPoint: "Anchor-3" 0 0 basechar 0
AnchorPoint: "Anchor-2" 276 500 basechar 0
AnchorPoint: "Anchor-1" 474 0 basechar 0
AnchorPoint: "Anchor-0" 260 0 basechar 0
LayerCount: 2
Fore
SplineSet
260 510 m 0x7c
 378 510 474 446 474 314 c 2
 474 0 l 1
 376 0 l 1x7c
 371 62 l 1
 321 20 259 -10 199 -10 c 0xbc
 110 -10 45 54 45 143 c 0
 45 233 114 310 282 287 c 2
 365 276 l 1
 365 321 l 2
 365 388 314 416 255 416 c 0
 203 416 167 397 135 356 c 1
 59 425 l 1
 101 477 163 510 260 510 c 0x7c
158 149 m 0xbc
 158 112 185 88 225 88 c 0
 276 88 326 118 365 150 c 1
 365 195 l 1
 299 205 l 2
 185 222 158 188 158 149 c 0xbc
EndSplineSet
Validated: 33
Substitution2: "+U1h9FH9uY9sA lookup 16 +MLUw1jDGMPww1jDr" ordfeminine
Substitution2: "'aalt' +MFkweTBmMG51cE9TW1cweDBuMKIwrzC7MLkA in +MOkwxjDzZYdbVwAA lookup 0 +MLUw1jDGMPww1jDr" ordfeminine
EndChar

StartChar: aacute
Encoding: 225 225 140
Width: 539
GlyphClass: 2
Flags: MW
HStem: -10 98<205 229> 0 21G<376 474 376 376> 209.09 82.02 416 94<229 284.5> 590 160<234 434 234 434>
VStem: 45 113<130.5 168.5 130.5 188> 365 109<150 195 195 195 276 314 0 321 0 354.5>
AnchorPoint: "Anchor-3" 0 0 basechar 0
AnchorPoint: "Anchor-2" 276 609 basechar 0
AnchorPoint: "Anchor-1" 474 0 basechar 0
AnchorPoint: "Anchor-0" 260 0 basechar 0
LayerCount: 2
Fore
SplineSet
434 750 m 1x7e
 321 590 l 1
 234 590 l 1
 321 750 l 1
 434 750 l 1x7e
260 510 m 0
 378 510 474 446 474 314 c 2
 474 0 l 1
 376 0 l 1x7e
 371 62 l 1
 321 20 259 -10 199 -10 c 0xbe
 110 -10 45 54 45 143 c 0
 45 233 114 310 282 287 c 2
 365 276 l 1
 365 321 l 2
 365 388 314 416 255 416 c 0
 203 416 167 397 135 356 c 1
 59 425 l 1
 101 477 163 510 260 510 c 0
158 149 m 0xbe
 158 112 185 88 225 88 c 0
 276 88 326 118 365 150 c 1
 365 195 l 1
 299 205 l 2
 185 222 158 188 158 149 c 0xbe
EndSplineSet
Validated: 33
EndChar

StartChar: abreve
Encoding: 259 259 141
Width: 539
GlyphClass: 2
Flags: MW
HStem: -10 98<205 229> 0 21G<376 474 376 376> 209.09 82.02 416 94<229 284.5> 562 66<244 307 244 325.5>
VStem: 45 113<130.5 168.5 130.5 188> 104 66<698.5 724 698.5 724> 365 109<150 195 195 195 276 314 0 321 0 354.5> 382 65<698.5 724>
AnchorPoint: "Anchor-3" 0 0 basechar 0
AnchorPoint: "Anchor-2" 276 707 basechar 0
AnchorPoint: "Anchor-1" 474 0 basechar 0
AnchorPoint: "Anchor-0" 260 0 basechar 0
LayerCount: 2
Fore
SplineSet
275 562 m 0x7b
 176 562 104 620 104 724 c 1
 170 724 l 1
 170 673 213 628 275 628 c 0
 339 628 382 673 382 724 c 1
 447 724 l 1x7a80
 447 620 376 562 275 562 c 0x7b
260 510 m 0
 378 510 474 446 474 314 c 2
 474 0 l 1
 376 0 l 1x7b
 371 62 l 1
 321 20 259 -10 199 -10 c 0
 110 -10 45 54 45 143 c 0xbd
 45 233 114 310 282 287 c 2
 365 276 l 1
 365 321 l 2
 365 388 314 416 255 416 c 0
 203 416 167 397 135 356 c 1
 59 425 l 1
 101 477 163 510 260 510 c 0
158 149 m 0xbd
 158 112 185 88 225 88 c 0
 276 88 326 118 365 150 c 1
 365 195 l 1
 299 205 l 2
 185 222 158 188 158 149 c 0xbd
EndSplineSet
Validated: 33
EndChar

StartChar: uni01CE
Encoding: 462 462 142
Width: 539
GlyphClass: 2
Flags: MW
HStem: -10 98<205 229> 0 21G<376 474 376 376> 209.09 82.02 416 94<229 284.5> 579 171<114 334 114 217>
VStem: 45 113<130.5 168.5 130.5 188> 365 109<150 195 195 195 276 314 0 321 0 354.5>
AnchorPoint: "Anchor-3" 0 0 basechar 0
AnchorPoint: "Anchor-2" 276 750 basechar 0
AnchorPoint: "Anchor-1" 474 0 basechar 0
AnchorPoint: "Anchor-0" 260 0 basechar 0
LayerCount: 2
Fore
SplineSet
334 579 m 1x7e
 217 579 l 1
 114 750 l 1
 198 750 l 1
 276 631 l 1
 354 750 l 1
 438 750 l 1
 334 579 l 1x7e
260 510 m 0
 378 510 474 446 474 314 c 2
 474 0 l 1
 376 0 l 1x7e
 371 62 l 1
 321 20 259 -10 199 -10 c 0xbe
 110 -10 45 54 45 143 c 0
 45 233 114 310 282 287 c 2
 365 276 l 1
 365 321 l 2
 365 388 314 416 255 416 c 0
 203 416 167 397 135 356 c 1
 59 425 l 1
 101 477 163 510 260 510 c 0
158 149 m 0xbe
 158 112 185 88 225 88 c 0
 276 88 326 118 365 150 c 1
 365 195 l 1
 299 205 l 2
 185 222 158 188 158 149 c 0xbe
EndSplineSet
Validated: 33
EndChar

StartChar: acircumflex
Encoding: 226 226 143
Width: 539
GlyphClass: 2
Flags: MW
HStem: -10 98<205 229> 0 21G<376 474 376 376> 209.09 82.02 416 94<229 284.5> 579 171<114 334 114 334 217 350 217 438> 699 51<276 276>
VStem: 45 113<130.5 168.5 130.5 188> 365 109<150 195 195 195 276 314 0 321 0 354.5>
AnchorPoint: "Anchor-3" 0 0 basechar 0
AnchorPoint: "Anchor-2" 276 733 basechar 0
AnchorPoint: "Anchor-1" 474 0 basechar 0
AnchorPoint: "Anchor-0" 260 0 basechar 0
LayerCount: 2
Fore
SplineSet
276 699 m 1x75
 201 579 l 1
 114 579 l 1
 217 750 l 1
 334 750 l 1
 438 579 l 1
 350 579 l 1xbb
 276 699 l 1x75
260 510 m 0
 378 510 474 446 474 314 c 2
 474 0 l 1
 376 0 l 1x79
 371 62 l 1
 321 20 259 -10 199 -10 c 0
 110 -10 45 54 45 143 c 0
 45 233 114 310 282 287 c 2
 365 276 l 1
 365 321 l 2
 365 388 314 416 255 416 c 0
 203 416 167 397 135 356 c 1
 59 425 l 1
 101 477 163 510 260 510 c 0
158 149 m 0
 158 112 185 88 225 88 c 0
 276 88 326 118 365 150 c 1
 365 195 l 1
 299 205 l 2
 185 222 158 188 158 149 c 0
EndSplineSet
Validated: 33
EndChar

StartChar: adieresis
Encoding: 228 228 144
Width: 539
GlyphClass: 2
Flags: MW
HStem: -10 98<205 229> 0 21G<376 474 376 376> 209.09 82.02 416 94<229 284.5> 590 135<157.5 194.5 357.5 394.5>
VStem: 45 113<130.5 168.5 130.5 188> 108 136<638.5 676> 308 135<638.5 676> 365 109<150 195 195 195 276 314 0 321 0 354.5>
AnchorPoint: "Anchor-3" 0 0 basechar 0
AnchorPoint: "Anchor-2" 276 733 basechar 0
AnchorPoint: "Anchor-1" 474 0 basechar 0
AnchorPoint: "Anchor-0" 260 0 basechar 0
LayerCount: 2
Fore
SplineSet
176 590 m 0x7a80
 139 590 108 620 108 657 c 0
 108 695 139 725 176 725 c 0
 213 725 244 695 244 657 c 0
 244 620 213 590 176 590 c 0x7a80
376 590 m 0x7b
 339 590 308 620 308 657 c 0
 308 695 339 725 376 725 c 0
 413 725 443 695 443 657 c 0
 443 620 413 590 376 590 c 0x7b
260 510 m 0xbc80
 378 510 474 446 474 314 c 2
 474 0 l 1
 376 0 l 1x7a80
 371 62 l 1
 321 20 259 -10 199 -10 c 0
 110 -10 45 54 45 143 c 0
 45 233 114 310 282 287 c 2
 365 276 l 1
 365 321 l 2
 365 388 314 416 255 416 c 0
 203 416 167 397 135 356 c 1
 59 425 l 1
 101 477 163 510 260 510 c 0xbc80
158 149 m 0
 158 112 185 88 225 88 c 0
 276 88 326 118 365 150 c 1
 365 195 l 1
 299 205 l 2
 185 222 158 188 158 149 c 0
EndSplineSet
Validated: 33
EndChar

StartChar: uni1EA1
Encoding: 7841 7841 145
Width: 539
GlyphClass: 2
Flags: MW
HStem: -196 136<241.5 278.5> -10 98<205 229> 0 21G<376 474 376 376> 209.09 82.02 416 94<229 284.5>
VStem: 45 113<130.5 168.5 130.5 188> 192 136<-146.5 -109.5> 365 109<150 195 195 195 276 314 0 321 0 354.5>
AnchorPoint: "Anchor-3" 0 0 basechar 0
AnchorPoint: "Anchor-2" 276 500 basechar 0
AnchorPoint: "Anchor-1" 474 0 basechar 0
AnchorPoint: "Anchor-0" 260 -196 basechar 0
LayerCount: 2
Fore
SplineSet
260 510 m 0xbd
 378 510 474 446 474 314 c 2
 474 0 l 1
 376 0 l 1xbd
 371 62 l 1
 321 20 259 -10 199 -10 c 0xdd
 110 -10 45 54 45 143 c 0
 45 233 114 310 282 287 c 2
 365 276 l 1
 365 321 l 2
 365 388 314 416 255 416 c 0
 203 416 167 397 135 356 c 1
 59 425 l 1
 101 477 163 510 260 510 c 0xbd
158 149 m 0xdf
 158 112 185 88 225 88 c 0
 276 88 326 118 365 150 c 1
 365 195 l 1
 299 205 l 2
 185 222 158 188 158 149 c 0xdf
260 -60 m 0
 297 -60 328 -91 328 -128 c 0
 328 -165 297 -196 260 -196 c 0
 223 -196 192 -165 192 -128 c 0
 192 -91 223 -60 260 -60 c 0
EndSplineSet
Validated: 33
EndChar

StartChar: agrave
Encoding: 224 224 146
Width: 539
GlyphClass: 2
Flags: MW
HStem: -10 98<205 229> 0 21G<376 474 376 376> 209.09 82.02 416 94<229 284.5> 590 160<114 314 114 228>
VStem: 45 113<130.5 168.5 130.5 188> 365 109<150 195 195 195 276 314 0 321 0 354.5>
AnchorPoint: "Anchor-3" 0 0 basechar 0
AnchorPoint: "Anchor-2" 276 609 basechar 0
AnchorPoint: "Anchor-1" 474 0 basechar 0
AnchorPoint: "Anchor-0" 260 0 basechar 0
LayerCount: 2
Fore
SplineSet
314 590 m 1x7e
 228 590 l 1
 114 750 l 1
 227 750 l 1
 314 590 l 1x7e
260 510 m 0
 378 510 474 446 474 314 c 2
 474 0 l 1
 376 0 l 1x7e
 371 62 l 1
 321 20 259 -10 199 -10 c 0xbe
 110 -10 45 54 45 143 c 0
 45 233 114 310 282 287 c 2
 365 276 l 1
 365 321 l 2
 365 388 314 416 255 416 c 0
 203 416 167 397 135 356 c 1
 59 425 l 1
 101 477 163 510 260 510 c 0
158 149 m 0xbe
 158 112 185 88 225 88 c 0
 276 88 326 118 365 150 c 1
 365 195 l 1
 299 205 l 2
 185 222 158 188 158 149 c 0xbe
EndSplineSet
Validated: 33
EndChar

StartChar: amacron
Encoding: 257 257 147
Width: 539
GlyphClass: 2
Flags: MW
HStem: -10 98<205 229> 0 21G<376 474 376 376> 209.09 82.02 416 94<229 284.5> 594 72<121 431 121 431>
VStem: 45 113<130.5 168.5 130.5 188> 365 109<150 195 195 195 276 314 0 321 0 354.5>
AnchorPoint: "Anchor-3" 0 0 basechar 0
AnchorPoint: "Anchor-2" 276 750 basechar 0
AnchorPoint: "Anchor-1" 474 0 basechar 0
AnchorPoint: "Anchor-0" 260 0 basechar 0
LayerCount: 2
Fore
SplineSet
431 666 m 1x7e
 431 594 l 1
 121 594 l 1
 121 666 l 1
 431 666 l 1x7e
260 510 m 0
 378 510 474 446 474 314 c 2
 474 0 l 1
 376 0 l 1x7e
 371 62 l 1
 321 20 259 -10 199 -10 c 0xbe
 110 -10 45 54 45 143 c 0
 45 233 114 310 282 287 c 2
 365 276 l 1
 365 321 l 2
 365 388 314 416 255 416 c 0
 203 416 167 397 135 356 c 1
 59 425 l 1
 101 477 163 510 260 510 c 0
158 149 m 0xbe
 158 112 185 88 225 88 c 0
 276 88 326 118 365 150 c 1
 365 195 l 1
 299 205 l 2
 185 222 158 188 158 149 c 0xbe
EndSplineSet
Validated: 33
EndChar

StartChar: aogonek
Encoding: 261 261 148
Width: 539
GlyphClass: 2
Flags: MW
HStem: -259 57 -10 98<205 229> 0 21G<376 377 376 376 439 474> 209.09 82.02 416 94<229 284.5>
VStem: 45 113<130.5 168.5 130.5 188> 260 76<-159 -119.5> 365 109<150 195 195 195 276 314 0 321 0 354.5>
AnchorPoint: "Anchor-3" 0 0 basechar 0
AnchorPoint: "Anchor-2" 276 500 basechar 0
AnchorPoint: "Anchor-1" 474 0 basechar 0
AnchorPoint: "Anchor-0" 260 0 basechar 0
LayerCount: 2
Fore
SplineSet
491 -153 m 1xb9
 527 -204 l 1
 487 -244 434 -262 380 -259 c 0
 311 -255 260 -219 260 -151 c 0xdf
 260 -88 303 -35 377 0 c 1
 376 0 l 1xb9
 371 62 l 1
 321 20 259 -10 199 -10 c 0xdd
 110 -10 45 54 45 143 c 0
 45 233 114 310 282 287 c 2
 365 276 l 1
 365 321 l 2
 365 388 314 416 255 416 c 0
 203 416 167 397 135 356 c 1
 59 425 l 1
 101 477 163 510 260 510 c 0
 378 510 474 446 474 314 c 2
 474 0 l 1xbd
 404 0 336 -73 336 -142 c 0
 336 -176 358 -202 399 -202 c 0xbb
 435 -202 471 -182 491 -153 c 1xb9
158 149 m 0
 158 112 185 88 225 88 c 0
 276 88 326 118 365 150 c 1
 365 195 l 1xdd
 299 205 l 2
 185 222 158 188 158 149 c 0
EndSplineSet
Validated: 33
EndChar

StartChar: aring
Encoding: 229 229 149
Width: 539
GlyphClass: 2
Flags: MW
HStem: -10 98<205 229> 0 21G<376 474 376 376> 209.09 82.02 416 94<229 284.5> 556 48<259.5 292.5 259.5 305.5> 725 47<259.5 292.5>
VStem: 45 113<130.5 168.5 130.5 188> 167 50<646.5 680.5 646.5 693.5> 335 48<646.5 680.5> 365 109<150 195 195 195 276 314 0 321 0 354.5>
AnchorPoint: "Anchor-3" 0 0 basechar 0
AnchorPoint: "Anchor-2" 276 658 basechar 0
AnchorPoint: "Anchor-1" 474 0 basechar 0
AnchorPoint: "Anchor-0" 260 0 basechar 0
LayerCount: 2
Fore
SplineSet
276 556 m 0x7d40
 216 556 167 605 167 664 c 0
 167 723 216 772 276 772 c 0
 335 772 383 723 383 664 c 0x7d80
 383 605 335 556 276 556 c 0x7d40
276 725 m 0x7d80
 243 725 217 697 217 664 c 0
 217 629 243 604 276 604 c 0
 309 604 335 629 335 664 c 0
 335 697 309 725 276 725 c 0x7d80
260 510 m 0xbf40
 378 510 474 446 474 314 c 2
 474 0 l 1
 376 0 l 1x7d40
 371 62 l 1
 321 20 259 -10 199 -10 c 0
 110 -10 45 54 45 143 c 0
 45 233 114 310 282 287 c 2
 365 276 l 1
 365 321 l 2
 365 388 314 416 255 416 c 0
 203 416 167 397 135 356 c 1
 59 425 l 1
 101 477 163 510 260 510 c 0xbf40
158 149 m 0
 158 112 185 88 225 88 c 0
 276 88 326 118 365 150 c 1
 365 195 l 1
 299 205 l 2
 185 222 158 188 158 149 c 0
EndSplineSet
Validated: 33
EndChar

StartChar: atilde
Encoding: 227 227 150
Width: 539
GlyphClass: 2
Flags: MW
HStem: -10 98<205 229> 0 21G<376 474 376 376> 209.09 82.02 416 94<229 284.5> 578 66<333.5 356 333.5 378.5> 659 66<196 218>
VStem: 45 113<130.5 168.5 130.5 188> 108.43 66.83 365 109<150 195 195 195 276 314 0 321 0 354.5> 376.31 66.69
AnchorPoint: "Anchor-3" 0 0 basechar 0
AnchorPoint: "Anchor-2" 276 720 basechar 0
AnchorPoint: "Anchor-1" 474 0 basechar 0
AnchorPoint: "Anchor-0" 260 0 basechar 0
LayerCount: 2
Fore
SplineSet
179 587 m 1x7d80
 111 587 l 1
 97 668 142 725 207 725 c 0x7d80
 250 725 282 702 304 669 c 0
 314 652 325 644 342 644 c 0
 370 644 383 673 373 716 c 1
 440 716 l 1
 455 637 413 578 344 578 c 0x7940
 305 578 274 595 248 634 c 0
 237 651 226 659 210 659 c 0
 182 659 168 629 179 587 c 1x7d80
260 510 m 0
 378 510 474 446 474 314 c 2
 474 0 l 1
 376 0 l 1x7980
 371 62 l 1
 321 20 259 -10 199 -10 c 0
 110 -10 45 54 45 143 c 0xba80
 45 233 114 310 282 287 c 2
 365 276 l 1
 365 321 l 2
 365 388 314 416 255 416 c 0
 203 416 167 397 135 356 c 1
 59 425 l 1
 101 477 163 510 260 510 c 0
158 149 m 0xba80
 158 112 185 88 225 88 c 0
 276 88 326 118 365 150 c 1
 365 195 l 1
 299 205 l 2
 185 222 158 188 158 149 c 0xba80
EndSplineSet
Validated: 33
EndChar

StartChar: ae
Encoding: 230 230 151
Width: 839
GlyphClass: 2
Flags: MW
HStem: -10 96<539 607.5 539 625> 209.09 82.02 215 85<448 701 448 799 445 701> 415 95<543.5 614>
VStem: 38 113<130.5 168.5 130.5 188>
AnchorPoint: "Anchor-3" 0 0 basechar 0
AnchorPoint: "Anchor-2" 269 500 basechar 0
AnchorPoint: "Anchor-1" 739 60 basechar 0
AnchorPoint: "Anchor-0" 253 0 basechar 0
LayerCount: 2
Fore
SplineSet
801 246 m 0xb8
 801 236 801 225 799 215 c 1
 445 215 l 1xb8
 454 135 498 86 580 86 c 0
 635 86 667 103 708 167 c 1
 785 113 l 1
 744 36 674 -10 576 -10 c 0
 491 -10 426 24 385 80 c 1
 332 29 260 -10 192 -10 c 0
 103 -10 38 54 38 143 c 0xd8
 38 233 107 310 275 287 c 2
 337 279 l 1
 339 306 345 331 353 355 c 1
 339 397 296 416 248 416 c 0
 196 416 160 397 128 356 c 1
 52 425 l 1
 94 477 156 510 253 510 c 0
 334 510 390 489 418 454 c 1
 458 489 511 510 576 510 c 0
 721 510 801 401 801 246 c 0xb8
578 415 m 0
 504 415 461 371 448 300 c 1
 701 300 l 1
 691 372 650 415 578 415 c 0
151 149 m 0xd8
 151 112 178 88 218 88 c 0
 267 88 314 115 352 145 c 1
 346 162 342 179 340 198 c 1
 292 205 l 2
 178 222 151 188 151 149 c 0xd8
EndSplineSet
Validated: 33
EndChar

StartChar: b
Encoding: 98 98 152
Width: 592
GlyphClass: 2
Flags: MW
HStem: -10 98<294 350.5 277.5 396> 0 21G<70 169 70 70> 412 98<295.5 350.5> 730 20G<70 179 179 179>
VStem: 70 109<192 308 449 750> 446 108<205 295>
AnchorPoint: "Anchor-3" 0 0 basechar 0
AnchorPoint: "Anchor-2" 331 500 basechar 0
AnchorPoint: "Anchor-1" 0 0 basechar 0
AnchorPoint: "Anchor-0" 319 0 basechar 0
LayerCount: 2
Fore
SplineSet
325 510 m 0x7c
 467 510 554 396 554 250 c 0
 554 104 467 -10 325 -10 c 0
 263 -10 211 15 174 56 c 1xbc
 169 0 l 1
 70 0 l 1
 70 750 l 1
 179 750 l 1
 179 449 l 1
 216 487 266 510 325 510 c 0x7c
307 88 m 0xbc
 394 88 446 160 446 250 c 0
 446 340 394 412 307 412 c 0
 248 412 199 369 179 308 c 1
 179 192 l 1
 199 131 248 88 307 88 c 0xbc
EndSplineSet
Validated: 1
EndChar

StartChar: uni1E05
Encoding: 7685 7685 153
Width: 592
GlyphClass: 2
Flags: MW
HStem: -196 136<300.5 337.5> -10 98<294 350.5 277.5 396> 0 21G<70 169 70 70> 412 98<295.5 350.5> 730 20G<70 179 179 179>
VStem: 70 109<192 308 449 750> 251 136<-146.5 -109.5> 446 108<205 295>
AnchorPoint: "Anchor-3" 0 0 basechar 0
AnchorPoint: "Anchor-2" 331 500 basechar 0
AnchorPoint: "Anchor-1" 0 0 basechar 0
AnchorPoint: "Anchor-0" 319 -196 basechar 0
LayerCount: 2
Fore
SplineSet
325 510 m 0xbd
 467 510 554 396 554 250 c 0
 554 104 467 -10 325 -10 c 0
 263 -10 211 15 174 56 c 1xdd
 169 0 l 1
 70 0 l 1
 70 750 l 1
 179 750 l 1
 179 449 l 1
 216 487 266 510 325 510 c 0xbd
307 88 m 0xdf
 394 88 446 160 446 250 c 0
 446 340 394 412 307 412 c 0
 248 412 199 369 179 308 c 1
 179 192 l 1
 199 131 248 88 307 88 c 0xdf
319 -60 m 0
 356 -60 387 -91 387 -128 c 0
 387 -165 356 -196 319 -196 c 0
 282 -196 251 -165 251 -128 c 0
 251 -91 282 -60 319 -60 c 0
EndSplineSet
Validated: 1
EndChar

StartChar: c
Encoding: 99 99 154
Width: 434
GlyphClass: 2
Flags: MW
HStem: -10 93<242.5 293> 416 94<242.5 293 200 309>
VStem: 38 109<202 298 202 325.5>
AnchorPoint: "Anchor-3" 0 0 basechar 0
AnchorPoint: "Anchor-2" 266 500 basechar 0
AnchorPoint: "Anchor-1" 0 0 basechar 0
AnchorPoint: "Anchor-0" 266 0 basechar 0
LayerCount: 2
Fore
SplineSet
275 -10 m 0
 125 -10 38 99 38 250 c 0
 38 401 125 510 275 510 c 0
 311 510 360 503 399 475 c 1
 399 365 l 1
 373 395 331 416 287 416 c 0
 198 416 147 346 147 250 c 0
 147 154 198 83 287 83 c 0
 332 83 374 105 399 134 c 1
 399 25 l 1
 361 -3 311 -10 275 -10 c 0
EndSplineSet
Validated: 1
EndChar

StartChar: cacute
Encoding: 263 263 155
Width: 434
GlyphClass: 2
Flags: MW
HStem: -10 93<242.5 293> 416 94<242.5 293 200 309> 590 160<224 424 224 424>
VStem: 38 109<202 298 202 325.5>
AnchorPoint: "Anchor-3" 0 0 basechar 0
AnchorPoint: "Anchor-2" 266 609 basechar 0
AnchorPoint: "Anchor-1" 0 0 basechar 0
AnchorPoint: "Anchor-0" 266 0 basechar 0
LayerCount: 2
Fore
SplineSet
224 590 m 1
 311 750 l 1
 424 750 l 1
 311 590 l 1
 224 590 l 1
275 -10 m 0
 125 -10 38 99 38 250 c 0
 38 401 125 510 275 510 c 0
 311 510 360 503 399 475 c 1
 399 365 l 1
 373 395 331 416 287 416 c 0
 198 416 147 346 147 250 c 0
 147 154 198 83 287 83 c 0
 332 83 374 105 399 134 c 1
 399 25 l 1
 361 -3 311 -10 275 -10 c 0
EndSplineSet
Validated: 1
EndChar

StartChar: ccaron
Encoding: 269 269 156
Width: 434
GlyphClass: 2
Flags: MW
HStem: -10 93<242.5 293> 416 94<242.5 293 200 309> 579 171<104 207 104 324>
VStem: 38 109<202 298 202 325.5>
AnchorPoint: "Anchor-3" 0 0 basechar 0
AnchorPoint: "Anchor-2" 266 750 basechar 0
AnchorPoint: "Anchor-1" 0 0 basechar 0
AnchorPoint: "Anchor-0" 266 0 basechar 0
LayerCount: 2
Fore
SplineSet
207 579 m 1
 104 750 l 1
 188 750 l 1
 266 631 l 1
 344 750 l 1
 428 750 l 1
 324 579 l 1
 207 579 l 1
275 -10 m 0
 125 -10 38 99 38 250 c 0
 38 401 125 510 275 510 c 0
 311 510 360 503 399 475 c 1
 399 365 l 1
 373 395 331 416 287 416 c 0
 198 416 147 346 147 250 c 0
 147 154 198 83 287 83 c 0
 332 83 374 105 399 134 c 1
 399 25 l 1
 361 -3 311 -10 275 -10 c 0
EndSplineSet
Validated: 1
EndChar

StartChar: ccedilla
Encoding: 231 231 157
Width: 434
GlyphClass: 2
Flags: MW
HStem: -260 53<265 291.5 265 306.5> -106.76 45.17 -10 93<288 288> 416 94<242.5 293 200 309>
VStem: 38 109<202 298 202 325.5> 328 54<-169.5 -133.5>
AnchorPoint: "Anchor-3" 0 0 basechar 0
AnchorPoint: "Anchor-2" 266 500 basechar 0
AnchorPoint: "Anchor-1" 0 0 basechar 0
AnchorPoint: "Anchor-0" 277 -260 basechar 0
LayerCount: 2
Fore
SplineSet
287 416 m 0
 198 416 147 346 147 250 c 0
 147 154 198 83 287 83 c 0
 332 83 374 105 399 134 c 1
 399 25 l 1
 365 0 322 -8 288 -10 c 1
 260 -64 l 1
 328 -51 382 -92 382 -155 c 0
 382 -213 336 -260 277 -260 c 0
 230 -260 179 -230 161 -192 c 1
 211 -173 l 1
 224 -192 253 -207 277 -207 c 0
 306 -207 328 -184 328 -155 c 0
 328 -112 287 -94 235 -116 c 1
 192 -89 l 1
 235 -7 l 1
 110 10 38 113 38 250 c 0
 38 401 125 510 275 510 c 0
 311 510 360 503 399 475 c 1
 399 365 l 1
 373 395 331 416 287 416 c 0
EndSplineSet
Validated: 33
EndChar

StartChar: cdotaccent
Encoding: 267 267 158
Width: 434
GlyphClass: 2
Flags: MW
HStem: -10 93<242.5 293> 416 94<242.5 293 200 309> 590 135<247.5 284.5>
VStem: 38 109<202 298 202 325.5> 198 136<638.5 676>
AnchorPoint: "Anchor-3" 0 0 basechar 0
AnchorPoint: "Anchor-2" 266 760 basechar 0
AnchorPoint: "Anchor-1" 0 0 basechar 0
AnchorPoint: "Anchor-0" 266 0 basechar 0
LayerCount: 2
Fore
SplineSet
266 590 m 0
 229 590 198 620 198 657 c 0
 198 695 229 725 266 725 c 0
 303 725 334 695 334 657 c 0
 334 620 303 590 266 590 c 0
275 -10 m 0
 125 -10 38 99 38 250 c 0
 38 401 125 510 275 510 c 0
 311 510 360 503 399 475 c 1
 399 365 l 1
 373 395 331 416 287 416 c 0
 198 416 147 346 147 250 c 0
 147 154 198 83 287 83 c 0
 332 83 374 105 399 134 c 1
 399 25 l 1
 361 -3 311 -10 275 -10 c 0
EndSplineSet
Validated: 1
EndChar

StartChar: d
Encoding: 100 100 159
Width: 592
GlyphClass: 2
Flags: MW
HStem: -10 98<241.5 298> 0 21G<424 522 424 424> 412 98<241.5 296.5 196 314.5> 730 20G<414 522 522 522>
VStem: 38 109<205 295 205 323> 414 108<192 308 308 308 448 750 0 750>
AnchorPoint: "Anchor-3" 444 616 basechar 0
AnchorPoint: "Anchor-2" 259 500 basechar 0
AnchorPoint: "Anchor-1" 523 0 basechar 0
AnchorPoint: "Anchor-0" 269 0 basechar 0
LayerCount: 2
Fore
SplineSet
414 750 m 1x7c
 522 750 l 1
 522 0 l 1
 424 0 l 1x7c
 418 56 l 1
 381 15 329 -10 267 -10 c 0xbc
 125 -10 38 104 38 250 c 0
 38 396 125 510 267 510 c 0
 326 510 377 487 414 448 c 1
 414 750 l 1x7c
285 88 m 0xbc
 344 88 394 131 414 192 c 1
 414 308 l 1
 394 369 344 412 285 412 c 0
 198 412 147 340 147 250 c 0
 147 160 198 88 285 88 c 0xbc
EndSplineSet
Validated: 1
EndChar

StartChar: eth
Encoding: 240 240 160
Width: 621
GlyphClass: 2
Flags: MW
HStem: -10 98<266 355.5 266 387> 412 98<266 333 235 355.5> 673 89<159 213>
VStem: 38 111<205 295 205 322.5> 472 112<205 295>
LayerCount: 2
Fore
SplineSet
395 686 m 1
 509 597 584 437 584 250 c 0
 584 105 463 -10 311 -10 c 0
 159 -10 38 105 38 250 c 0
 38 395 159 510 311 510 c 0
 355 510 396 500 433 483 c 1
 409 541 376 583 337 613 c 1
 288 550 l 1
 252 578 l 1
 299 638 l 1
 255 661 206 672 159 673 c 1
 181 762 l 1
 245 762 305 744 358 712 c 1
 401 767 l 1
 437 740 l 1
 395 686 l 1
311 88 m 0
 400 88 472 160 472 250 c 0
 472 340 400 412 311 412 c 0
 221 412 149 340 149 250 c 0
 149 160 221 88 311 88 c 0
EndSplineSet
Validated: 1
EndChar

StartChar: dcaron
Encoding: 271 271 161
Width: 787
GlyphClass: 2
Flags: MW
HStem: -10 98<241.5 298> 0 21G<424 522 424 424> 412 98<241.5 296.5 196 314.5> 449 52<653 653> 481 20G<653 653> 621 135<692 713.5> 730 20G<414 522 522 522>
VStem: 38 109<205 295 205 323> 414 108<192 308 308 308 448 750 0 750> 720 67<601 606.5>
AnchorPoint: "Anchor-3" 444 616 basechar 0
AnchorPoint: "Anchor-2" 259 500 basechar 0
AnchorPoint: "Anchor-1" 523 0 basechar 0
AnchorPoint: "Anchor-0" 269 0 basechar 0
LayerCount: 2
Fore
SplineSet
711 756 m 0x4dc0
 763 756 787 705 787 645 c 0
 787 557 738 450 653 449 c 1x53c0
 653 501 l 1
 695 502 720 566 720 600 c 0
 720 613 717 621 710 621 c 0
 673 621 643 651 643 689 c 0
 643 727 673 756 711 756 c 0x4dc0
414 448 m 1xa3c0
 414 750 l 1
 522 750 l 1
 522 0 l 1
 424 0 l 1x4bc0
 418 56 l 1
 381 15 329 -10 267 -10 c 0
 125 -10 38 104 38 250 c 0
 38 396 125 510 267 510 c 0
 326 510 377 487 414 448 c 1xa3c0
285 88 m 0xa3c0
 344 88 394 131 414 192 c 1
 414 308 l 1
 394 369 344 412 285 412 c 0
 198 412 147 340 147 250 c 0
 147 160 198 88 285 88 c 0xa3c0
EndSplineSet
Validated: 1
EndChar

StartChar: dcroat
Encoding: 273 273 162
Width: 592
GlyphClass: 2
Flags: MW
HStem: -10 98<241.5 298> 0 21G<424 522 424 424> 412 98<241.5 296.5 196 314.5> 577 78<286 414 286 414 522 601> 577 173<286 522 286 522 414 601 414 522>
VStem: 38 109<205 295 205 323> 414 108<192 308 308 308 448 577 0 577 655 750>
AnchorPoint: "Anchor-3" 444 616 basechar 0
AnchorPoint: "Anchor-2" 259 500 basechar 0
AnchorPoint: "Anchor-1" 523 0 basechar 0
AnchorPoint: "Anchor-0" 269 0 basechar 0
LayerCount: 2
Fore
SplineSet
601 655 m 1x76
 601 577 l 1
 522 577 l 1
 522 0 l 1
 424 0 l 1x6e
 418 56 l 1
 381 15 329 -10 267 -10 c 0
 125 -10 38 104 38 250 c 0
 38 396 125 510 267 510 c 0
 326 510 377 487 414 448 c 1
 414 577 l 1
 286 577 l 1xae
 286 655 l 1
 414 655 l 1x76
 414 750 l 1
 522 750 l 1x6e
 522 655 l 1
 601 655 l 1x76
285 88 m 0xae
 344 88 394 131 414 192 c 1
 414 308 l 1
 394 369 344 412 285 412 c 0
 198 412 147 340 147 250 c 0
 147 160 198 88 285 88 c 0xae
EndSplineSet
Validated: 1
EndChar

StartChar: e
Encoding: 101 101 163
Width: 541
GlyphClass: 2
Flags: MW
HStem: -10 96<241 309.5 241 327> 215 85<150 403 150 501 147 403> 415 95<243 316>
VStem: 38 109<215 215 215 324>
AnchorPoint: "Anchor-3" 0 0 basechar 0
AnchorPoint: "Anchor-2" 279 501 basechar 0
AnchorPoint: "Anchor-1" 441 60 basechar 0
AnchorPoint: "Anchor-0" 281 0 basechar 0
LayerCount: 2
Fore
SplineSet
503 246 m 0
 503 236 503 225 501 215 c 1
 147 215 l 1
 156 135 200 86 282 86 c 0
 337 86 369 103 410 167 c 1
 487 113 l 1
 446 36 376 -10 278 -10 c 0
 127 -10 38 98 38 249 c 0
 38 399 128 510 278 510 c 0
 423 510 503 401 503 246 c 0
280 415 m 0
 206 415 163 371 150 300 c 1
 403 300 l 1
 393 372 352 415 280 415 c 0
EndSplineSet
Validated: 1
EndChar

StartChar: eacute
Encoding: 233 233 164
Width: 541
GlyphClass: 2
Flags: MW
HStem: -10 96<241 309.5 241 327> 215 85<150 403 150 501 147 403> 415 95<243 316> 591 160<237 437 237 437>
VStem: 38 109<215 215 215 324>
AnchorPoint: "Anchor-3" 0 0 basechar 0
AnchorPoint: "Anchor-2" 279 610 basechar 0
AnchorPoint: "Anchor-1" 441 60 basechar 0
AnchorPoint: "Anchor-0" 281 0 basechar 0
LayerCount: 2
Fore
SplineSet
437 751 m 1
 324 591 l 1
 237 591 l 1
 324 751 l 1
 437 751 l 1
503 246 m 0
 503 236 503 225 501 215 c 1
 147 215 l 1
 156 135 200 86 282 86 c 0
 337 86 369 103 410 167 c 1
 487 113 l 1
 446 36 376 -10 278 -10 c 0
 127 -10 38 98 38 249 c 0
 38 399 128 510 278 510 c 0
 423 510 503 401 503 246 c 0
280 415 m 0
 206 415 163 371 150 300 c 1
 403 300 l 1
 393 372 352 415 280 415 c 0
EndSplineSet
Validated: 1
EndChar

StartChar: ecaron
Encoding: 283 283 165
Width: 541
GlyphClass: 2
Flags: MW
HStem: -10 96<241 309.5 241 327> 215 85<150 403 150 501 147 403> 415 95<243 316> 580 171<117 337 117 220>
VStem: 38 109<215 215 215 324>
AnchorPoint: "Anchor-3" 0 0 basechar 0
AnchorPoint: "Anchor-2" 279 751 basechar 0
AnchorPoint: "Anchor-1" 441 60 basechar 0
AnchorPoint: "Anchor-0" 281 0 basechar 0
LayerCount: 2
Fore
SplineSet
337 580 m 1
 220 580 l 1
 117 751 l 1
 201 751 l 1
 279 632 l 1
 357 751 l 1
 441 751 l 1
 337 580 l 1
503 246 m 0
 503 236 503 225 501 215 c 1
 147 215 l 1
 156 135 200 86 282 86 c 0
 337 86 369 103 410 167 c 1
 487 113 l 1
 446 36 376 -10 278 -10 c 0
 127 -10 38 98 38 249 c 0
 38 399 128 510 278 510 c 0
 423 510 503 401 503 246 c 0
280 415 m 0
 206 415 163 371 150 300 c 1
 403 300 l 1
 393 372 352 415 280 415 c 0
EndSplineSet
Validated: 1
EndChar

StartChar: uni0229
Encoding: 553 553 166
Width: 541
GlyphClass: 2
Flags: MW
HStem: -260 53<280 306.5 280 321.5> -106.76 45.17 -9 95<249 249 303 303> 215 85<150 403 150 501 147 403> 415 95<243 316>
VStem: 38 109<215 215 215 324> 343 54<-169.5 -133.5>
AnchorPoint: "Anchor-3" 0 0 basechar 0
AnchorPoint: "Anchor-2" 279 501 basechar 0
AnchorPoint: "Anchor-1" 441 60 basechar 0
AnchorPoint: "Anchor-0" 292 -260 basechar 0
LayerCount: 2
Fore
SplineSet
503 246 m 0
 503 236 503 225 501 215 c 1
 147 215 l 1
 156 135 200 86 282 86 c 0
 337 86 369 103 410 167 c 1
 487 113 l 1
 450 43 388 -2 303 -9 c 1
 275 -64 l 1
 343 -51 397 -92 397 -155 c 0
 397 -213 351 -260 292 -260 c 0
 245 -260 194 -230 176 -192 c 1
 226 -173 l 1
 239 -192 268 -207 292 -207 c 0
 321 -207 343 -184 343 -155 c 0
 343 -112 302 -94 250 -116 c 1
 207 -89 l 1
 249 -9 l 1
 116 4 38 108 38 249 c 0
 38 399 128 510 278 510 c 0
 423 510 503 401 503 246 c 0
280 415 m 0
 206 415 163 371 150 300 c 1
 403 300 l 1
 393 372 352 415 280 415 c 0
EndSplineSet
Validated: 33
EndChar

StartChar: ecircumflex
Encoding: 234 234 167
Width: 541
GlyphClass: 2
Flags: MW
HStem: -10 96<241 309.5 241 327> 215 85<150 403 150 501 147 403> 415 95<243 316> 580 171<117 337 117 337 220 353 220 441> 700 51<279 279>
VStem: 38 109<215 215 215 324>
AnchorPoint: "Anchor-3" 0 0 basechar 0
AnchorPoint: "Anchor-2" 279 734 basechar 0
AnchorPoint: "Anchor-1" 441 60 basechar 0
AnchorPoint: "Anchor-0" 281 0 basechar 0
LayerCount: 2
Fore
SplineSet
279 700 m 1xec
 204 580 l 1
 117 580 l 1
 220 751 l 1
 337 751 l 1
 441 580 l 1
 353 580 l 1xf4
 279 700 l 1xec
503 246 m 0
 503 236 503 225 501 215 c 1
 147 215 l 1
 156 135 200 86 282 86 c 0
 337 86 369 103 410 167 c 1
 487 113 l 1
 446 36 376 -10 278 -10 c 0
 127 -10 38 98 38 249 c 0
 38 399 128 510 278 510 c 0
 423 510 503 401 503 246 c 0
280 415 m 0
 206 415 163 371 150 300 c 1
 403 300 l 1
 393 372 352 415 280 415 c 0
EndSplineSet
Validated: 1
EndChar

StartChar: edieresis
Encoding: 235 235 168
Width: 541
GlyphClass: 2
Flags: MW
HStem: -10 96<241 309.5 241 327> 215 85<150 403 150 501 147 403> 415 95<243 316> 591 135<160.5 197.5 360.5 397.5>
VStem: 38 109<215 215 215 324> 111 136<639.5 677> 311 135<639.5 677>
AnchorPoint: "Anchor-3" 0 0 basechar 0
AnchorPoint: "Anchor-2" 279 734 basechar 0
AnchorPoint: "Anchor-1" 441 60 basechar 0
AnchorPoint: "Anchor-0" 281 0 basechar 0
LayerCount: 2
Fore
SplineSet
179 591 m 0xf6
 142 591 111 621 111 658 c 0
 111 696 142 726 179 726 c 0
 216 726 247 696 247 658 c 0
 247 621 216 591 179 591 c 0xf6
379 591 m 0
 342 591 311 621 311 658 c 0
 311 696 342 726 379 726 c 0
 416 726 446 696 446 658 c 0
 446 621 416 591 379 591 c 0
503 246 m 0
 503 236 503 225 501 215 c 1
 147 215 l 1
 156 135 200 86 282 86 c 0
 337 86 369 103 410 167 c 1
 487 113 l 1
 446 36 376 -10 278 -10 c 0
 127 -10 38 98 38 249 c 0xfa
 38 399 128 510 278 510 c 0
 423 510 503 401 503 246 c 0
280 415 m 0
 206 415 163 371 150 300 c 1
 403 300 l 1xfa
 393 372 352 415 280 415 c 0
EndSplineSet
Validated: 1
EndChar

StartChar: edotaccent
Encoding: 279 279 169
Width: 541
GlyphClass: 2
Flags: MW
HStem: -10 96<241 309.5 241 327> 215 85<150 403 150 501 147 403> 415 95<243 316> 591 135<260.5 297.5>
VStem: 38 109<215 215 215 324> 211 136<639.5 677>
AnchorPoint: "Anchor-3" 0 0 basechar 0
AnchorPoint: "Anchor-2" 279 761 basechar 0
AnchorPoint: "Anchor-1" 441 60 basechar 0
AnchorPoint: "Anchor-0" 281 0 basechar 0
LayerCount: 2
Fore
SplineSet
279 591 m 0
 242 591 211 621 211 658 c 0
 211 696 242 726 279 726 c 0
 316 726 347 696 347 658 c 0
 347 621 316 591 279 591 c 0
503 246 m 0
 503 236 503 225 501 215 c 1
 147 215 l 1
 156 135 200 86 282 86 c 0
 337 86 369 103 410 167 c 1
 487 113 l 1
 446 36 376 -10 278 -10 c 0
 127 -10 38 98 38 249 c 0
 38 399 128 510 278 510 c 0
 423 510 503 401 503 246 c 0
280 415 m 0
 206 415 163 371 150 300 c 1
 403 300 l 1
 393 372 352 415 280 415 c 0
EndSplineSet
Validated: 1
EndChar

StartChar: uni1EB9
Encoding: 7865 7865 170
Width: 541
GlyphClass: 2
Flags: MW
HStem: -196 136<262.5 299.5> -10 96<241 309.5 241 327> 215 85<150 403 150 501 147 403> 415 95<243 316>
VStem: 38 109<215 215 215 324> 213 136<-146.5 -109.5>
AnchorPoint: "Anchor-3" 0 0 basechar 0
AnchorPoint: "Anchor-2" 279 501 basechar 0
AnchorPoint: "Anchor-1" 441 60 basechar 0
AnchorPoint: "Anchor-0" 281 -196 basechar 0
LayerCount: 2
Fore
SplineSet
503 246 m 0
 503 236 503 225 501 215 c 1
 147 215 l 1
 156 135 200 86 282 86 c 0
 337 86 369 103 410 167 c 1
 487 113 l 1
 446 36 376 -10 278 -10 c 0
 127 -10 38 98 38 249 c 0
 38 399 128 510 278 510 c 0
 423 510 503 401 503 246 c 0
280 415 m 0
 206 415 163 371 150 300 c 1
 403 300 l 1
 393 372 352 415 280 415 c 0
281 -60 m 0
 318 -60 349 -91 349 -128 c 0
 349 -165 318 -196 281 -196 c 0
 244 -196 213 -165 213 -128 c 0
 213 -91 244 -60 281 -60 c 0
EndSplineSet
Validated: 1
EndChar

StartChar: egrave
Encoding: 232 232 171
Width: 541
GlyphClass: 2
Flags: MW
HStem: -10 96<241 309.5 241 327> 215 85<150 403 150 501 147 403> 415 95<243 316> 591 160<117 317 117 231>
VStem: 38 109<215 215 215 324>
AnchorPoint: "Anchor-3" 0 0 basechar 0
AnchorPoint: "Anchor-2" 279 610 basechar 0
AnchorPoint: "Anchor-1" 441 60 basechar 0
AnchorPoint: "Anchor-0" 281 0 basechar 0
LayerCount: 2
Fore
SplineSet
317 591 m 1
 231 591 l 1
 117 751 l 1
 230 751 l 1
 317 591 l 1
503 246 m 0
 503 236 503 225 501 215 c 1
 147 215 l 1
 156 135 200 86 282 86 c 0
 337 86 369 103 410 167 c 1
 487 113 l 1
 446 36 376 -10 278 -10 c 0
 127 -10 38 98 38 249 c 0
 38 399 128 510 278 510 c 0
 423 510 503 401 503 246 c 0
280 415 m 0
 206 415 163 371 150 300 c 1
 403 300 l 1
 393 372 352 415 280 415 c 0
EndSplineSet
Validated: 1
EndChar

StartChar: emacron
Encoding: 275 275 172
Width: 541
GlyphClass: 2
Flags: MW
HStem: -10 96<241 309.5 241 327> 215 85<150 403 150 501 147 403> 415 95<243 316> 595 72<124 434 124 434>
VStem: 38 109<215 215 215 324>
AnchorPoint: "Anchor-3" 0 0 basechar 0
AnchorPoint: "Anchor-2" 279 751 basechar 0
AnchorPoint: "Anchor-1" 441 60 basechar 0
AnchorPoint: "Anchor-0" 281 0 basechar 0
LayerCount: 2
Fore
SplineSet
434 667 m 1
 434 595 l 1
 124 595 l 1
 124 667 l 1
 434 667 l 1
503 246 m 0
 503 236 503 225 501 215 c 1
 147 215 l 1
 156 135 200 86 282 86 c 0
 337 86 369 103 410 167 c 1
 487 113 l 1
 446 36 376 -10 278 -10 c 0
 127 -10 38 98 38 249 c 0
 38 399 128 510 278 510 c 0
 423 510 503 401 503 246 c 0
280 415 m 0
 206 415 163 371 150 300 c 1
 403 300 l 1
 393 372 352 415 280 415 c 0
EndSplineSet
Validated: 1
EndChar

StartChar: eogonek
Encoding: 281 281 173
Width: 541
GlyphClass: 2
Flags: MW
HStem: -199 57 -9 95 215 85<150 403 150 501 147 403> 415 95<243 316>
VStem: 38 109<215 215 215 324> 227 76<-99 -76>
AnchorPoint: "Anchor-3" 0 0 basechar 0
AnchorPoint: "Anchor-2" 279 501 basechar 0
AnchorPoint: "Anchor-1" 441 60 basechar 0
AnchorPoint: "Anchor-0" 281 0 basechar 0
LayerCount: 2
Fore
SplineSet
503 246 m 0
 503 236 503 225 501 215 c 1
 147 215 l 1
 156 135 200 86 282 86 c 0
 337 86 369 103 410 167 c 1
 487 113 l 1
 454 50 401 8 329 -5 c 1
 313 -29 303 -56 303 -82 c 0
 303 -116 325 -142 366 -142 c 0
 402 -142 438 -122 458 -93 c 1
 494 -144 l 1
 454 -184 401 -202 347 -199 c 0
 278 -195 227 -159 227 -91 c 0
 227 -61 237 -34 255 -9 c 1
 118 1 38 106 38 249 c 0
 38 399 128 510 278 510 c 0
 423 510 503 401 503 246 c 0
280 415 m 0
 206 415 163 371 150 300 c 1
 403 300 l 1
 393 372 352 415 280 415 c 0
EndSplineSet
Validated: 33
EndChar

StartChar: uni1EBD
Encoding: 7869 7869 174
Width: 541
GlyphClass: 2
Flags: MW
HStem: -10 96<241 309.5 241 327> 215 85<150 403 150 501 147 403> 415 95<243 316> 579 66<336.5 359 336.5 381.5> 660 66<199 221>
VStem: 38 109<215 215 215 324> 111.43 66.83 379.31 66.69
AnchorPoint: "Anchor-3" 0 0 basechar 0
AnchorPoint: "Anchor-2" 279 721 basechar 0
AnchorPoint: "Anchor-1" 441 60 basechar 0
AnchorPoint: "Anchor-0" 281 0 basechar 0
LayerCount: 2
Fore
SplineSet
182 588 m 1xfb
 114 588 l 1
 100 669 145 726 210 726 c 0xfb
 253 726 285 703 307 670 c 0
 317 653 328 645 345 645 c 0
 373 645 386 674 376 717 c 1
 443 717 l 1
 458 638 416 579 347 579 c 0xf3
 308 579 277 596 251 635 c 0
 240 652 229 660 213 660 c 0
 185 660 171 630 182 588 c 1xfb
503 246 m 0
 503 236 503 225 501 215 c 1
 147 215 l 1
 156 135 200 86 282 86 c 0
 337 86 369 103 410 167 c 1
 487 113 l 1
 446 36 376 -10 278 -10 c 0
 127 -10 38 98 38 249 c 0xf5
 38 399 128 510 278 510 c 0
 423 510 503 401 503 246 c 0
280 415 m 0
 206 415 163 371 150 300 c 1
 403 300 l 1xf3
 393 372 352 415 280 415 c 0
EndSplineSet
Validated: 33
EndChar

StartChar: f
Encoding: 102 102 175
Width: 387
GlyphClass: 2
Flags: MW
HStem: 0 21G<121 232 121 121> 415 85<37 121 37 121 232 359> 668 92<273.5 303>
VStem: 121 111<0 415 0 415 500 592>
LayerCount: 2
Fore
SplineSet
232 592 m 2
 232 500 l 1
 359 500 l 1
 359 415 l 1
 232 415 l 1
 232 0 l 1
 121 0 l 1
 121 415 l 1
 37 415 l 1
 37 500 l 1
 121 500 l 1
 121 599 l 2
 121 689 196 760 289 760 c 0
 325 760 370 755 412 706 c 1
 350 638 l 1
 337 656 315 668 291 668 c 0
 256 668 232 635 232 592 c 2
EndSplineSet
Validated: 1
EndChar

StartChar: g
Encoding: 103 103 176
Width: 593
GlyphClass: 2
Flags: MW
HStem: -250 98<259 331 259 362> -10 98<241.5 296.5> 412 98<241.5 298 196 314.5> 480 20G<424 523 523 523>
VStem: 38 109<205 295 205 323> 414 109<4 52 52 52 192 308 308 308>
AnchorPoint: "Anchor-3" 0 0 basechar 0
AnchorPoint: "Anchor-2" 280 500 basechar 0
AnchorPoint: "Anchor-1" 0 0 basechar 0
AnchorPoint: "Anchor-0" 274 -242 basechar 0
LayerCount: 2
Fore
SplineSet
424 500 m 1xdc
 523 500 l 1xdc
 523 4 l 2
 523 -142 437 -250 287 -250 c 0
 223 -250 176 -235 135 -211 c 1
 135 -92 l 1
 175 -126 224 -152 294 -152 c 0
 368 -152 414 -97 414 4 c 2
 414 52 l 1
 377 13 326 -10 267 -10 c 0
 125 -10 38 104 38 250 c 0
 38 396 125 510 267 510 c 0
 329 510 381 485 419 443 c 1xec
 424 500 l 1xdc
285 88 m 0
 344 88 394 131 414 192 c 1
 414 308 l 1
 394 369 344 412 285 412 c 0xec
 198 412 147 340 147 250 c 0
 147 160 198 88 285 88 c 0
EndSplineSet
Validated: 1
EndChar

StartChar: gbreve
Encoding: 287 287 177
Width: 593
GlyphClass: 2
Flags: MW
HStem: -250 98<259 331 259 362> -10 98<241.5 296.5> 412 98<241.5 298 196 314.5> 480 20G<424 523 523 523> 562 66<248 311 248 329.5>
VStem: 38 109<205 295 205 323> 108 66<698.5 724 698.5 724> 386 65<698.5 724> 414 109<4 52 52 52 192 308 308 308>
AnchorPoint: "Anchor-3" 0 0 basechar 0
AnchorPoint: "Anchor-2" 280 707 basechar 0
AnchorPoint: "Anchor-1" 0 0 basechar 0
AnchorPoint: "Anchor-0" 274 -242 basechar 0
LayerCount: 2
Fore
SplineSet
279 562 m 0xdb
 180 562 108 620 108 724 c 1
 174 724 l 1
 174 673 217 628 279 628 c 0
 343 628 386 673 386 724 c 1
 451 724 l 1
 451 620 380 562 279 562 c 0xdb
424 500 m 1xdc80
 523 500 l 1xdc80
 523 4 l 2
 523 -142 437 -250 287 -250 c 0
 223 -250 176 -235 135 -211 c 1
 135 -92 l 1
 175 -126 224 -152 294 -152 c 0
 368 -152 414 -97 414 4 c 2
 414 52 l 1
 377 13 326 -10 267 -10 c 0
 125 -10 38 104 38 250 c 0
 38 396 125 510 267 510 c 0
 329 510 381 485 419 443 c 1xec80
 424 500 l 1xdc80
285 88 m 0
 344 88 394 131 414 192 c 1
 414 308 l 1
 394 369 344 412 285 412 c 0xec80
 198 412 147 340 147 250 c 0
 147 160 198 88 285 88 c 0
EndSplineSet
Validated: 1
EndChar

StartChar: gcaron
Encoding: 487 487 178
Width: 593
GlyphClass: 2
Flags: MW
HStem: -250 98<259 331 259 362> -10 98<241.5 296.5> 412 98<241.5 298 196 314.5> 480 20G<424 523 523 523> 579 171<118 338 118 221>
VStem: 38 109<205 295 205 323> 414 109<4 52 52 52 192 308 308 308>
AnchorPoint: "Anchor-3" 0 0 basechar 0
AnchorPoint: "Anchor-2" 280 750 basechar 0
AnchorPoint: "Anchor-1" 0 0 basechar 0
AnchorPoint: "Anchor-0" 274 -242 basechar 0
LayerCount: 2
Fore
SplineSet
338 579 m 1xde
 221 579 l 1
 118 750 l 1
 202 750 l 1
 280 631 l 1
 358 750 l 1
 442 750 l 1
 338 579 l 1xde
424 500 m 1
 523 500 l 1xde
 523 4 l 2
 523 -142 437 -250 287 -250 c 0
 223 -250 176 -235 135 -211 c 1
 135 -92 l 1
 175 -126 224 -152 294 -152 c 0
 368 -152 414 -97 414 4 c 2
 414 52 l 1
 377 13 326 -10 267 -10 c 0
 125 -10 38 104 38 250 c 0
 38 396 125 510 267 510 c 0
 329 510 381 485 419 443 c 1xee
 424 500 l 1
285 88 m 0
 344 88 394 131 414 192 c 1
 414 308 l 1
 394 369 344 412 285 412 c 0xee
 198 412 147 340 147 250 c 0
 147 160 198 88 285 88 c 0
EndSplineSet
Validated: 1
EndChar

StartChar: gcommaaccent
Encoding: 291 291 179
Width: 593
GlyphClass: 2
Flags: MW
HStem: -250 98<259 331 259 362> -10 98<241.5 296.5> 412 98<241.5 298 196 314.5> 480 20G<424 523 523 523> 567 136<274 299 274 299>
VStem: 38 109<205 295 205 323> 212 65.07 414 109<4 52 52 52 192 308 308 308>
AnchorPoint: "Anchor-3" 0 0 basechar 0
AnchorPoint: "Anchor-2" 280 828 basechar 0
AnchorPoint: "Anchor-1" 0 0 basechar 0
AnchorPoint: "Anchor-0" 274 -242 basechar 0
LayerCount: 2
Fore
SplineSet
280 567 m 0xdf
 242 567 212 600 212 642 c 0
 211 744 294 828 338 828 c 1
 338 789 l 1
 290 770 268 703 280 703 c 0
 318 703 348 674 348 636 c 0
 348 598 318 567 280 567 c 0xdf
424 500 m 1
 523 500 l 1xdf
 523 4 l 2
 523 -142 437 -250 287 -250 c 0
 223 -250 176 -235 135 -211 c 1
 135 -92 l 1
 175 -126 224 -152 294 -152 c 0
 368 -152 414 -97 414 4 c 2
 414 52 l 1
 377 13 326 -10 267 -10 c 0
 125 -10 38 104 38 250 c 0
 38 396 125 510 267 510 c 0
 329 510 381 485 419 443 c 1xef
 424 500 l 1
285 88 m 0
 344 88 394 131 414 192 c 1
 414 308 l 1
 394 369 344 412 285 412 c 0xef
 198 412 147 340 147 250 c 0
 147 160 198 88 285 88 c 0
EndSplineSet
Validated: 33
EndChar

StartChar: gdotaccent
Encoding: 289 289 180
Width: 593
GlyphClass: 2
Flags: MW
HStem: -250 98<259 331 259 362> -10 98<241.5 296.5> 412 98<241.5 298 196 314.5> 480 20G<424 523 523 523> 590 135<261.5 298.5>
VStem: 38 109<205 295 205 323> 212 136<638.5 676> 414 109<4 52 52 52 192 308 308 308>
AnchorPoint: "Anchor-3" 0 0 basechar 0
AnchorPoint: "Anchor-2" 280 760 basechar 0
AnchorPoint: "Anchor-1" 0 0 basechar 0
AnchorPoint: "Anchor-0" 274 -242 basechar 0
LayerCount: 2
Fore
SplineSet
280 590 m 0xdf
 243 590 212 620 212 657 c 0
 212 695 243 725 280 725 c 0
 317 725 348 695 348 657 c 0
 348 620 317 590 280 590 c 0xdf
424 500 m 1
 523 500 l 1xdf
 523 4 l 2
 523 -142 437 -250 287 -250 c 0
 223 -250 176 -235 135 -211 c 1
 135 -92 l 1
 175 -126 224 -152 294 -152 c 0
 368 -152 414 -97 414 4 c 2
 414 52 l 1
 377 13 326 -10 267 -10 c 0
 125 -10 38 104 38 250 c 0
 38 396 125 510 267 510 c 0
 329 510 381 485 419 443 c 1xef
 424 500 l 1
285 88 m 0
 344 88 394 131 414 192 c 1
 414 308 l 1
 394 369 344 412 285 412 c 0xef
 198 412 147 340 147 250 c 0
 147 160 198 88 285 88 c 0
EndSplineSet
Validated: 1
EndChar

StartChar: h
Encoding: 104 104 181
Width: 595
GlyphClass: 2
Flags: MW
HStem: 0 21G<70 181 70 70 418 530 418 418> 412 98<303.5 336> 730 20G<70 181 181 181>
VStem: 70 111<0 297 445 750> 418 112<0 303 303 316 0 334.5>
AnchorPoint: "Anchor-3" 171 622 basechar 0
AnchorPoint: "Anchor-2" 373 500 basechar 0
AnchorPoint: "Anchor-1" 0 0 basechar 0
AnchorPoint: "Anchor-0" 294 0 basechar 0
LayerCount: 2
Fore
SplineSet
335 510 m 0
 448 510 530 431 530 316 c 2
 530 0 l 1
 418 0 l 1
 418 303 l 2
 418 366 369 412 303 412 c 0
 235 412 181 361 181 297 c 2
 181 0 l 1
 70 0 l 1
 70 750 l 1
 181 750 l 1
 181 445 l 1
 219 485 272 510 335 510 c 0
EndSplineSet
Validated: 1
EndChar

StartChar: hbar
Encoding: 295 295 182
Width: 595
GlyphClass: 2
Flags: MW
HStem: 0 21G<70 181 70 70 418 530 418 418> 412 98<303.5 336> 583 78<13 70 13 70 181 328> 583 167<13 181 13 181 70 181 70 328>
VStem: 70 111<0 297 445 583 661 750> 418 112<0 303 303 316 0 334.5>
AnchorPoint: "Anchor-3" 171 622 basechar 0
AnchorPoint: "Anchor-2" 373 500 basechar 0
AnchorPoint: "Anchor-1" 0 0 basechar 0
AnchorPoint: "Anchor-0" 294 0 basechar 0
LayerCount: 2
Fore
SplineSet
335 510 m 0xdc
 448 510 530 431 530 316 c 2
 530 0 l 1
 418 0 l 1
 418 303 l 2
 418 366 369 412 303 412 c 0
 235 412 181 361 181 297 c 2
 181 0 l 1
 70 0 l 1
 70 583 l 1
 13 583 l 1xdc
 13 661 l 1
 70 661 l 1xec
 70 750 l 1
 181 750 l 1xdc
 181 661 l 1
 328 661 l 1xec
 328 583 l 1
 181 583 l 1
 181 445 l 1
 219 485 272 510 335 510 c 0xdc
EndSplineSet
Validated: 1
EndChar

StartChar: uni1E25
Encoding: 7717 7717 183
Width: 595
GlyphClass: 2
Flags: MW
HStem: -196 136<275.5 312.5> 0 21G<70 181 70 70 418 530 418 418> 412 98<303.5 336> 730 20G<70 181 181 181>
VStem: 70 111<0 297 445 750> 226 136<-146.5 -109.5> 418 112<0 303 303 316 0 334.5>
AnchorPoint: "Anchor-3" 171 622 basechar 0
AnchorPoint: "Anchor-2" 373 500 basechar 0
AnchorPoint: "Anchor-1" 0 0 basechar 0
AnchorPoint: "Anchor-0" 294 -196 basechar 0
LayerCount: 2
Fore
SplineSet
335 510 m 0
 448 510 530 431 530 316 c 2
 530 0 l 1
 418 0 l 1
 418 303 l 2
 418 366 369 412 303 412 c 0
 235 412 181 361 181 297 c 2
 181 0 l 1
 70 0 l 1
 70 750 l 1
 181 750 l 1
 181 445 l 1
 219 485 272 510 335 510 c 0
294 -60 m 0
 331 -60 362 -91 362 -128 c 0
 362 -165 331 -196 294 -196 c 0
 257 -196 226 -165 226 -128 c 0
 226 -91 257 -60 294 -60 c 0
EndSplineSet
Validated: 1
EndChar

StartChar: i
Encoding: 105 105 184
Width: 284
GlyphClass: 2
Flags: MW
HStem: 0 21G<86 86 86 197> 480 20G<86 197 197 197> 590 135<123.5 160.5>
VStem: 74 136<638.5 676> 86 111<0 500 0 500>
LayerCount: 2
Fore
SplineSet
142 590 m 0xf0
 105 590 74 620 74 657 c 0
 74 695 105 725 142 725 c 0
 179 725 210 695 210 657 c 0
 210 620 179 590 142 590 c 0xf0
86 0 m 1xe8
 86 500 l 1
 197 500 l 1
 197 0 l 1
 86 0 l 1xe8
EndSplineSet
Validated: 1
Substitution2: "+U1h9FH9uY9sA lookup 14 +MLUw1jDGMPww1jDr" dotlessi
Substitution2: "'locl' +Vv0w+1cwV99W+mcJMG5bV19i in +MOkwxjDzZYdbVwAA lookup 10 +MLUw1jDGMPww1jDr" i.loclTRK
Substitution2: "'locl' +Vv0w+1cwV99W+mcJMG5bV19i in +MOkwxjDzZYdbVwAA lookup 9 +MLUw1jDGMPww1jDr" i.loclTRK
Substitution2: "'locl' +Vv0w+1cwV99W+mcJMG5bV19i in +MOkwxjDzZYdbVwAA lookup 8 +MLUw1jDGMPww1jDr" i.loclTRK
Substitution2: "'locl' +Vv0w+1cwV99W+mcJMG5bV19i in +MOkwxjDzZYdbVwAA lookup 7 +MLUw1jDGMPww1jDr" i.loclTRK
Substitution2: "'locl' +Vv0w+1cwV99W+mcJMG5bV19i in +MOkwxjDzZYdbVwAA lookup 6 +MLUw1jDGMPww1jDr" i.loclTRK
AlternateSubs2: "'aalt' +MFkweTBmMG51cE9TW1cweDBuMKIwrzC7MLkA in +MOkwxjDzZYdbVwAA lookup 1 +MLUw1jDGMPww1jDr" dotlessi i.loclTRK
EndChar

StartChar: dotlessi
Encoding: 305 305 185
Width: 251
GlyphClass: 2
Flags: MW
HStem: 0 21G<70 70 70 181> 480 20G<70 181 181 181>
VStem: 70 111<0 500 0 500>
AnchorPoint: "Anchor-3" 0 0 basechar 0
AnchorPoint: "Anchor-2" 126 500 basechar 0
AnchorPoint: "Anchor-1" 172 0 basechar 0
AnchorPoint: "Anchor-0" 126 0 basechar 0
LayerCount: 2
Fore
SplineSet
70 0 m 1
 70 500 l 1
 181 500 l 1
 181 0 l 1
 70 0 l 1
EndSplineSet
Validated: 1
EndChar

StartChar: iacute
Encoding: 237 237 186
Width: 251
GlyphClass: 2
Flags: MW
HStem: 0 21G<70 70 70 181> 480 20G<70 181 181 181> 590 160<84 284 84 284>
VStem: 70 111<0 500 0 500>
AnchorPoint: "Anchor-3" 0 0 basechar 0
AnchorPoint: "Anchor-2" 126 609 basechar 0
AnchorPoint: "Anchor-1" 172 0 basechar 0
AnchorPoint: "Anchor-0" 126 0 basechar 0
LayerCount: 2
Fore
SplineSet
84 590 m 1
 171 750 l 1
 284 750 l 1
 171 590 l 1
 84 590 l 1
70 0 m 1
 70 500 l 1
 181 500 l 1
 181 0 l 1
 70 0 l 1
EndSplineSet
Validated: 1
EndChar

StartChar: uni01D0
Encoding: 464 464 187
Width: 251
GlyphClass: 2
Flags: MW
HStem: 0 21G<70 70 70 181> 480 20G<70 181 181 181> 579 171<-36 67 -36 184>
VStem: 70 111<0 500 0 500>
AnchorPoint: "Anchor-3" 0 0 basechar 0
AnchorPoint: "Anchor-2" 126 750 basechar 0
AnchorPoint: "Anchor-1" 172 0 basechar 0
AnchorPoint: "Anchor-0" 126 0 basechar 0
LayerCount: 2
Fore
SplineSet
67 579 m 1
 -36 750 l 1
 48 750 l 1
 126 631 l 1
 204 750 l 1
 288 750 l 1
 184 579 l 1
 67 579 l 1
70 0 m 1
 70 500 l 1
 181 500 l 1
 181 0 l 1
 70 0 l 1
EndSplineSet
Validated: 1
EndChar

StartChar: icircumflex
Encoding: 238 238 188
Width: 251
GlyphClass: 2
Flags: MW
HStem: 0 21G<70 70 70 181> 480 20G<70 181 181 181> 579 171<-36 184 -36 184 67 200 67 288> 699 51<126 126>
VStem: 70 111<0 500 0 500>
AnchorPoint: "Anchor-3" 0 0 basechar 0
AnchorPoint: "Anchor-2" 126 733 basechar 0
AnchorPoint: "Anchor-1" 172 0 basechar 0
AnchorPoint: "Anchor-0" 126 0 basechar 0
LayerCount: 2
Fore
SplineSet
-36 579 m 1xe8
 67 750 l 1
 184 750 l 1
 288 579 l 1
 200 579 l 1xe8
 126 699 l 1xd8
 51 579 l 1
 -36 579 l 1xe8
70 0 m 1
 70 500 l 1
 181 500 l 1
 181 0 l 1
 70 0 l 1
EndSplineSet
Validated: 1
EndChar

StartChar: idieresis
Encoding: 239 239 189
Width: 251
GlyphClass: 2
Flags: MW
HStem: 0 21G<70 70 70 181> 480 20G<70 181 181 181> 590 135<7.5 44.5 207.5 244.5>
VStem: -42 136<638.5 676> 70 111<0 500 0 500> 158 135<638.5 676>
AnchorPoint: "Anchor-3" 0 0 basechar 0
AnchorPoint: "Anchor-2" 126 733 basechar 0
AnchorPoint: "Anchor-1" 172 0 basechar 0
AnchorPoint: "Anchor-0" 126 0 basechar 0
LayerCount: 2
Fore
SplineSet
26 590 m 0xf4
 -11 590 -42 620 -42 657 c 0
 -42 695 -11 725 26 725 c 0
 63 725 94 695 94 657 c 0
 94 620 63 590 26 590 c 0xf4
226 590 m 0
 189 590 158 620 158 657 c 0
 158 695 189 725 226 725 c 0
 263 725 293 695 293 657 c 0
 293 620 263 590 226 590 c 0
70 0 m 1xe8
 70 500 l 1
 181 500 l 1
 181 0 l 1
 70 0 l 1xe8
EndSplineSet
Validated: 1
EndChar

StartChar: i.loclTRK
Encoding: 65537 -1 190
Width: 251
GlyphClass: 2
Flags: MW
HStem: 0 21G<70 70 70 181> 480 20G<70 181 181 181> 590 135<107.5 144.5>
VStem: 58 136<638.5 676> 70 111<0 500 0 500>
AnchorPoint: "Anchor-3" 0 0 basechar 0
AnchorPoint: "Anchor-2" 126 760 basechar 0
AnchorPoint: "Anchor-1" 172 0 basechar 0
AnchorPoint: "Anchor-0" 126 0 basechar 0
LayerCount: 2
Fore
SplineSet
126 590 m 0xf0
 89 590 58 620 58 657 c 0
 58 695 89 725 126 725 c 0
 163 725 194 695 194 657 c 0
 194 620 163 590 126 590 c 0xf0
70 0 m 1xe8
 70 500 l 1
 181 500 l 1
 181 0 l 1
 70 0 l 1xe8
EndSplineSet
Validated: 1
EndChar

StartChar: uni1ECB
Encoding: 7883 7883 191
Width: 284
GlyphClass: 2
Flags: MW
HStem: -211 136<129.5 166.5> 0 21G<86 86 86 197> 480 20G<86 197 197 197> 590 135<123.5 160.5>
VStem: 74 136<638.5 676> 80 136<-161.5 -124.5> 86 111<0 500 0 500>
AnchorPoint: "Anchor-3" 0 0 basechar 0
AnchorPoint: "Anchor-2" 0 0 basechar 0
AnchorPoint: "Anchor-1" 0 0 basechar 0
AnchorPoint: "Anchor-0" 148 -211 basechar 0
LayerCount: 2
Fore
SplineSet
142 590 m 0xf8
 105 590 74 620 74 657 c 0
 74 695 105 725 142 725 c 0
 179 725 210 695 210 657 c 0
 210 620 179 590 142 590 c 0xf8
86 0 m 1xf2
 86 500 l 1
 197 500 l 1
 197 0 l 1
 86 0 l 1xf2
148 -211 m 0xf4
 111 -211 80 -180 80 -143 c 0
 80 -106 111 -75 148 -75 c 0
 185 -75 216 -106 216 -143 c 0
 216 -180 185 -211 148 -211 c 0xf4
EndSplineSet
Validated: 1
EndChar

StartChar: igrave
Encoding: 236 236 192
Width: 251
GlyphClass: 2
Flags: MW
HStem: 0 21G<70 70 70 181> 480 20G<70 181 181 181> 590 160<-36 78 -36 164>
VStem: 70 111<0 500 0 500>
AnchorPoint: "Anchor-3" 0 0 basechar 0
AnchorPoint: "Anchor-2" 126 609 basechar 0
AnchorPoint: "Anchor-1" 172 0 basechar 0
AnchorPoint: "Anchor-0" 126 0 basechar 0
LayerCount: 2
Fore
SplineSet
78 590 m 1
 -36 750 l 1
 77 750 l 1
 164 590 l 1
 78 590 l 1
70 0 m 1
 70 500 l 1
 181 500 l 1
 181 0 l 1
 70 0 l 1
EndSplineSet
Validated: 1
EndChar

StartChar: ij
Encoding: 307 307 193
Width: 554
GlyphClass: 2
Flags: MW
HStem: -260 92<311.5 330.5 302.5 371> 0 21G<86 86 86 197> 480 20G<86 197 197 197 381 492 492 492> 590 135<123.5 160.5 417.5 454.5>
VStem: 74 136<638.5 676> 86 111<0 500 0 500> 368 136<638.5 676> 381 111<-92 500>
LayerCount: 2
Fore
SplineSet
142 590 m 0xfa
 105 590 74 620 74 657 c 0
 74 695 105 725 142 725 c 0
 179 725 210 695 210 657 c 0
 210 620 179 590 142 590 c 0xfa
436 590 m 0
 399 590 368 620 368 657 c 0
 368 695 399 725 436 725 c 0
 473 725 504 695 504 657 c 0
 504 620 473 590 436 590 c 0
86 0 m 1xf5
 86 500 l 1
 197 500 l 1
 197 0 l 1
 86 0 l 1xf5
324 -260 m 0
 299 -260 269 -253 256 -244 c 1
 256 -149 l 1
 270 -160 294 -168 311 -168 c 0
 350 -168 381 -135 381 -92 c 2
 381 500 l 1
 492 500 l 1
 492 -99 l 2
 492 -189 418 -260 324 -260 c 0
EndSplineSet
Validated: 1
EndChar

StartChar: imacron
Encoding: 299 299 194
Width: 251
GlyphClass: 2
Flags: MW
HStem: 0 21G<70 70 70 181> 480 20G<70 181 181 181> 594 72<-29 281 -29 281>
VStem: 70 111<0 500 0 500>
AnchorPoint: "Anchor-3" 0 0 basechar 0
AnchorPoint: "Anchor-2" 126 750 basechar 0
AnchorPoint: "Anchor-1" 172 0 basechar 0
AnchorPoint: "Anchor-0" 126 0 basechar 0
LayerCount: 2
Fore
SplineSet
-29 594 m 1
 -29 666 l 1
 281 666 l 1
 281 594 l 1
 -29 594 l 1
70 0 m 1
 70 500 l 1
 181 500 l 1
 181 0 l 1
 70 0 l 1
EndSplineSet
Validated: 1
EndChar

StartChar: iogonek
Encoding: 303 303 195
Width: 251
GlyphClass: 2
Flags: MW
HStem: -259 57 0 21G<70 75 70 70 137 172 172 181> 480 20G<70 181 181 181> 590 135<107.5 144.5>
VStem: -42 76<-159 -119.5> 58 136<638.5 676> 70 111<0 500 0 500>
AnchorPoint: "Anchor-3" 0 0 basechar 0
AnchorPoint: "Anchor-2" 126 760 basechar 0
AnchorPoint: "Anchor-1" 172 0 basechar 0
AnchorPoint: "Anchor-0" 126 0 basechar 0
LayerCount: 2
Fore
SplineSet
126 590 m 0xfc
 89 590 58 620 58 657 c 0
 58 695 89 725 126 725 c 0
 163 725 194 695 194 657 c 0
 194 620 163 590 126 590 c 0xfc
189 -153 m 1
 225 -204 l 1
 185 -244 132 -262 78 -259 c 0
 9 -255 -42 -219 -42 -151 c 0
 -42 -88 1 -35 75 0 c 1
 70 0 l 1
 70 500 l 1
 181 500 l 1
 181 0 l 1
 172 0 l 2
 102 0 34 -73 34 -142 c 0
 34 -176 56 -202 97 -202 c 0xfa
 133 -202 169 -182 189 -153 c 1
EndSplineSet
Validated: 33
EndChar

StartChar: itilde
Encoding: 297 297 196
Width: 251
GlyphClass: 2
Flags: MW
HStem: 0 21G<70 70 70 181> 480 20G<70 181 181 181> 578 66<183.5 206 183.5 228.5> 659 66<46 68>
VStem: -41.57 66.83 70 111<0 500 0 500> 226.31 66.69
AnchorPoint: "Anchor-3" 0 0 basechar 0
AnchorPoint: "Anchor-2" 126 720 basechar 0
AnchorPoint: "Anchor-1" 172 0 basechar 0
AnchorPoint: "Anchor-0" 126 0 basechar 0
LayerCount: 2
Fore
SplineSet
194 578 m 0
 155 578 124 595 98 634 c 0
 87 651 76 659 60 659 c 0
 32 659 18 629 29 587 c 1
 -39 587 l 1
 -53 668 -8 725 57 725 c 0xfe
 100 725 132 702 154 669 c 0
 164 652 175 644 192 644 c 0
 220 644 233 673 223 716 c 1
 290 716 l 1
 305 637 263 578 194 578 c 0
70 0 m 1
 70 500 l 1
 181 500 l 1
 181 0 l 1
 70 0 l 1
EndSplineSet
Validated: 33
EndChar

StartChar: j
Encoding: 106 106 197
Width: 270
GlyphClass: 2
Flags: MW
HStem: -260 92<27.5 46.5 18.5 87> 480 20G<97 208 208 208> 590 135<133.5 170.5>
VStem: 84 136<638.5 676> 97 111<-92 500>
LayerCount: 2
Fore
SplineSet
152 590 m 0xf0
 115 590 84 620 84 657 c 0
 84 695 115 725 152 725 c 0
 189 725 220 695 220 657 c 0
 220 620 189 590 152 590 c 0xf0
40 -260 m 0
 15 -260 -15 -253 -28 -244 c 1
 -28 -149 l 1
 -14 -160 10 -168 27 -168 c 0
 66 -168 97 -135 97 -92 c 2
 97 500 l 1
 208 500 l 1
 208 -99 l 2xe8
 208 -189 134 -260 40 -260 c 0
EndSplineSet
Validated: 1
Substitution2: "+U1h9FH9uY9sA lookup 14 +MLUw1jDGMPww1jDr" uni0237
Substitution2: "'aalt' +MFkweTBmMG51cE9TW1cweDBuMKIwrzC7MLkA in +MOkwxjDzZYdbVwAA lookup 0 +MLUw1jDGMPww1jDr" uni0237
EndChar

StartChar: uni0237
Encoding: 567 567 198
Width: 302
GlyphClass: 2
Flags: MW
HStem: -260 92<31.5 50.5 22.5 91> 480 20G<101 212 212 212>
VStem: 101 111<-92 500>
LayerCount: 2
Fore
SplineSet
44 -260 m 0
 19 -260 -11 -253 -24 -244 c 1
 -24 -149 l 1
 -10 -160 14 -168 31 -168 c 0
 70 -168 101 -135 101 -92 c 2
 101 500 l 1
 212 500 l 1
 212 -99 l 2
 212 -189 138 -260 44 -260 c 0
EndSplineSet
Validated: 1
EndChar

StartChar: k
Encoding: 107 107 199
Width: 535
GlyphClass: 2
Flags: MW
HStem: 0 21G<70 181 70 70> 480 20G<380 519 519 519> 730 20G<70 181 181 181>
VStem: 70 111<0 240 0 313 313 750>
AnchorPoint: "Anchor-3" 0 0 basechar 0
AnchorPoint: "Anchor-2" 262 500 basechar 0
AnchorPoint: "Anchor-1" 0 0 basechar 0
AnchorPoint: "Anchor-0" 269 0 basechar 0
LayerCount: 2
Fore
SplineSet
519 500 m 1
 285 280 l 1
 516 77 l 1
 516 -57 l 1
 181 240 l 1
 181 0 l 1
 70 0 l 1
 70 750 l 1
 181 750 l 1
 181 313 l 1
 380 500 l 1
 519 500 l 1
EndSplineSet
Validated: 1
EndChar

StartChar: kcommaaccent
Encoding: 311 311 200
Width: 535
GlyphClass: 2
Flags: MW
HStem: -176 136<250 275.5> 0 21G<70 181 70 70> 480 20G<380 519 519 519> 730 20G<70 181 181 181>
VStem: 70 111<0 240 0 313 313 750> 273.72 64.28
AnchorPoint: "Anchor-3" 0 0 basechar 0
AnchorPoint: "Anchor-2" 262 500 basechar 0
AnchorPoint: "Anchor-1" 0 0 basechar 0
AnchorPoint: "Anchor-0" 269 -301 basechar 0
LayerCount: 2
Fore
SplineSet
519 500 m 1
 285 280 l 1
 516 77 l 1
 516 -57 l 1
 181 240 l 1
 181 0 l 1
 70 0 l 1
 70 750 l 1
 181 750 l 1
 181 313 l 1
 380 500 l 1
 519 500 l 1
270 -40 m 0
 309 -40 338 -71 338 -115 c 0
 338 -217 291 -305 212 -301 c 1
 212 -261 l 1
 270 -260 282 -176 269 -176 c 0
 230 -176 202 -148 202 -108 c 0
 202 -69 230 -40 270 -40 c 0
EndSplineSet
Validated: 33
EndChar

StartChar: l
Encoding: 108 108 201
Width: 348
GlyphClass: 2
Flags: MW
HStem: -10 95<231.5 263 231.5 275> 730 20G<75 186 186 186>
VStem: 75 112<134.5 750>
AnchorPoint: "Anchor-3" 125 367 basechar 0
AnchorPoint: "Anchor-2" 125 750 basechar 0
AnchorPoint: "Anchor-1" 0 0 basechar 0
AnchorPoint: "Anchor-0" 227 0 basechar 0
LayerCount: 2
Fore
SplineSet
249 -10 m 0
 142 -10 75 59 75 160 c 2
 75 750 l 1
 186 750 l 1
 187 160 l 2
 187 109 211 85 252 85 c 0
 274 85 291 91 307 109 c 1
 368 34 l 1
 341 6 301 -10 249 -10 c 0
EndSplineSet
Validated: 1
EndChar

StartChar: lacute
Encoding: 314 314 202
Width: 348
GlyphClass: 2
Flags: MW
HStem: -10 95<231.5 263 231.5 275> 730 20G<75 186 186 186> 840 160<83 283 83 283>
VStem: 75 112<134.5 750>
AnchorPoint: "Anchor-3" 125 367 basechar 0
AnchorPoint: "Anchor-2" 125 859 basechar 0
AnchorPoint: "Anchor-1" 0 0 basechar 0
AnchorPoint: "Anchor-0" 227 0 basechar 0
LayerCount: 2
Fore
SplineSet
83 840 m 1
 170 1000 l 1
 283 1000 l 1
 170 840 l 1
 83 840 l 1
249 -10 m 0
 142 -10 75 59 75 160 c 2
 75 750 l 1
 186 750 l 1
 187 160 l 2
 187 109 211 85 252 85 c 0
 274 85 291 91 307 109 c 1
 368 34 l 1
 341 6 301 -10 249 -10 c 0
EndSplineSet
Validated: 1
EndChar

StartChar: lcaron
Encoding: 318 318 203
Width: 384
GlyphClass: 2
Flags: MW
HStem: -10 95<231.5 263 231.5 275> 449 52<260 260> 481 20G<260 260> 621 135<299 320.5> 730 20G<75 186 186 186>
VStem: 75 112<134.5 750> 327 67<601 606.5>
AnchorPoint: "Anchor-3" 125 367 basechar 0
AnchorPoint: "Anchor-2" 125 750 basechar 0
AnchorPoint: "Anchor-1" 0 0 basechar 0
AnchorPoint: "Anchor-0" 227 0 basechar 0
LayerCount: 2
Fore
SplineSet
260 449 m 1xd6
 260 501 l 1
 302 502 327 566 327 600 c 0
 327 613 324 621 317 621 c 0
 280 621 250 651 250 689 c 0
 250 727 280 756 318 756 c 0
 370 756 394 705 394 645 c 0
 394 557 345 450 260 449 c 1xd6
249 -10 m 0
 142 -10 75 59 75 160 c 2
 75 750 l 1
 186 750 l 1xac
 187 160 l 2
 187 109 211 85 252 85 c 0
 274 85 291 91 307 109 c 1
 368 34 l 1
 341 6 301 -10 249 -10 c 0
EndSplineSet
Validated: 1
EndChar

StartChar: lcommaaccent
Encoding: 316 316 204
Width: 348
GlyphClass: 2
Flags: MW
HStem: -176 136<208 233.5> -10 95<231.5 263 231.5 275> 730 20G<75 186 186 186>
VStem: 75 112<134.5 750> 231.72 64.28
AnchorPoint: "Anchor-3" 125 367 basechar 0
AnchorPoint: "Anchor-2" 125 750 basechar 0
AnchorPoint: "Anchor-1" 0 0 basechar 0
AnchorPoint: "Anchor-0" 227 -301 basechar 0
LayerCount: 2
Fore
SplineSet
249 -10 m 0
 142 -10 75 59 75 160 c 2
 75 750 l 1
 186 750 l 1
 187 160 l 2
 187 109 211 85 252 85 c 0
 274 85 291 91 307 109 c 1
 368 34 l 1
 341 6 301 -10 249 -10 c 0
170 -301 m 1
 170 -261 l 1
 228 -260 240 -176 227 -176 c 0
 188 -176 160 -148 160 -108 c 0
 160 -69 188 -40 228 -40 c 0
 267 -40 296 -71 296 -115 c 0xf8
 296 -217 249 -305 170 -301 c 1
EndSplineSet
Validated: 33
EndChar

StartChar: ldot
Encoding: 320 320 205
Width: 348
GlyphClass: 2
Flags: MW
HStem: -10 95<231.5 263 231.5 275> 308 104<255 283> 730 20G<75 186 186 186>
VStem: 75 112<134.5 750> 217 105<345 374>
AnchorPoint: "Anchor-3" 125 367 basechar 0
AnchorPoint: "Anchor-2" 125 750 basechar 0
AnchorPoint: "Anchor-1" 0 0 basechar 0
AnchorPoint: "Anchor-0" 227 0 basechar 0
LayerCount: 2
Fore
SplineSet
249 -10 m 0
 142 -10 75 59 75 160 c 2
 75 750 l 1
 186 750 l 1
 187 160 l 2
 187 109 211 85 252 85 c 0
 274 85 291 91 307 109 c 1
 368 34 l 1
 341 6 301 -10 249 -10 c 0
269 308 m 0xf8
 241 308 217 330 217 360 c 0
 217 388 241 412 269 412 c 0
 297 412 322 388 322 360 c 0
 322 330 297 308 269 308 c 0xf8
EndSplineSet
Validated: 1
Ligature2: "+VAhbVzB4MG5/bmPb lookup 15 +MLUw1jDGMPww1jDr" l periodcentered
EndChar

StartChar: uni1E37
Encoding: 7735 7735 206
Width: 348
GlyphClass: 2
Flags: MW
HStem: -196 136<208.5 245.5> -10 95<231.5 263 231.5 275> 730 20G<75 186 186 186>
VStem: 75 112<134.5 750> 159 136<-146.5 -109.5>
AnchorPoint: "Anchor-3" 125 367 basechar 0
AnchorPoint: "Anchor-2" 125 750 basechar 0
AnchorPoint: "Anchor-1" 0 0 basechar 0
AnchorPoint: "Anchor-0" 227 -196 basechar 0
LayerCount: 2
Fore
SplineSet
249 -10 m 0xf0
 142 -10 75 59 75 160 c 2
 75 750 l 1
 186 750 l 1
 187 160 l 2
 187 109 211 85 252 85 c 0
 274 85 291 91 307 109 c 1
 368 34 l 1
 341 6 301 -10 249 -10 c 0xf0
227 -196 m 0xe8
 190 -196 159 -165 159 -128 c 0
 159 -91 190 -60 227 -60 c 0
 264 -60 295 -91 295 -128 c 0
 295 -165 264 -196 227 -196 c 0xe8
EndSplineSet
Validated: 1
EndChar

StartChar: lslash
Encoding: 322 322 207
Width: 348
GlyphClass: 2
Flags: MW
HStem: -10 95<231.5 263 231.5 275> 730 20G<75 186 186 186>
VStem: 75 111<477 750 477 750 477 750>
AnchorPoint: "Anchor-3" 125 367 basechar 0
AnchorPoint: "Anchor-2" 125 750 basechar 0
AnchorPoint: "Anchor-1" 0 0 basechar 0
AnchorPoint: "Anchor-0" 227 0 basechar 0
LayerCount: 2
Fore
SplineSet
307 109 m 1
 368 34 l 1
 341 6 301 -10 249 -10 c 0
 142 -10 75 59 75 160 c 2
 75 275 l 1
 23 221 l 1
 -55 221 l 1
 75 359 l 1
 75 750 l 1
 186 750 l 1
 186 477 l 1
 220 513 l 1
 305 513 l 1
 187 390 l 1
 187 160 l 2
 187 109 211 85 252 85 c 0
 274 85 291 91 307 109 c 1
EndSplineSet
Validated: 1
EndChar

StartChar: m
Encoding: 109 109 208
Width: 903
GlyphClass: 2
Flags: MW
HStem: 0 21G<70 181 70 70 398 510 398 398 726 838 726 726> 412 98<293.5 324 615.5 652> 480 20G<70 171 171 171>
VStem: 70 111<0 300 0 500> 398 112<0 300 0 307 0 337> 726 112<0 307 307 320 0 337>
LayerCount: 2
Fore
SplineSet
651 510 m 0xdc
 762 510 838 432 838 320 c 2
 838 0 l 1
 726 0 l 1
 726 307 l 2
 726 367 682 412 622 412 c 0
 558 412 510 362 510 300 c 2
 510 0 l 1
 398 0 l 1
 398 307 l 2
 398 367 354 412 294 412 c 0xdc
 231 412 181 362 181 300 c 2
 181 0 l 1
 70 0 l 1
 70 500 l 1
 171 500 l 1xbc
 176 446 l 1
 212 485 263 510 324 510 c 0
 393 510 449 479 481 427 c 1
 519 478 580 510 651 510 c 0xdc
EndSplineSet
Validated: 1
EndChar

StartChar: n
Encoding: 110 110 209
Width: 595
GlyphClass: 2
Flags: MW
HStem: 0 21G<70 181 70 70 418 530 418 418> 412 98<302.5 336> 480 20G<70 171 171 171>
VStem: 70 111<0 297 0 500> 418 112<0 303 303 316 0 334.5>
AnchorPoint: "Anchor-3" 0 0 basechar 0
AnchorPoint: "Anchor-2" 300 500 basechar 0
AnchorPoint: "Anchor-1" 0 0 basechar 0
AnchorPoint: "Anchor-0" 300 0 basechar 0
LayerCount: 2
Fore
SplineSet
335 510 m 0xd8
 448 510 530 431 530 316 c 2
 530 0 l 1
 418 0 l 1
 418 303 l 2
 418 366 369 412 303 412 c 0xd8
 235 412 181 361 181 297 c 2
 181 0 l 1
 70 0 l 1
 70 500 l 1
 171 500 l 1xb8
 177 441 l 1
 215 484 270 510 335 510 c 0xd8
EndSplineSet
Validated: 1
EndChar

StartChar: nacute
Encoding: 324 324 210
Width: 595
GlyphClass: 2
Flags: MW
HStem: 0 21G<70 181 70 70 418 530 418 418> 412 98<302.5 336> 480 20G<70 171 171 171> 590 160<258 458 258 458>
VStem: 70 111<0 297 0 500> 418 112<0 303 303 316 0 334.5>
AnchorPoint: "Anchor-3" 0 0 basechar 0
AnchorPoint: "Anchor-2" 300 609 basechar 0
AnchorPoint: "Anchor-1" 0 0 basechar 0
AnchorPoint: "Anchor-0" 300 0 basechar 0
LayerCount: 2
Fore
SplineSet
458 750 m 1xbc
 345 590 l 1
 258 590 l 1
 345 750 l 1
 458 750 l 1xbc
335 510 m 0xdc
 448 510 530 431 530 316 c 2
 530 0 l 1
 418 0 l 1
 418 303 l 2
 418 366 369 412 303 412 c 0xdc
 235 412 181 361 181 297 c 2
 181 0 l 1
 70 0 l 1
 70 500 l 1
 171 500 l 1xbc
 177 441 l 1
 215 484 270 510 335 510 c 0xdc
EndSplineSet
Validated: 1
EndChar

StartChar: ncaron
Encoding: 328 328 211
Width: 595
GlyphClass: 2
Flags: MW
HStem: 0 21G<70 181 70 70 418 530 418 418> 412 98<302.5 336> 480 20G<70 171 171 171> 579 171<138 358 138 241>
VStem: 70 111<0 297 0 500> 418 112<0 303 303 316 0 334.5>
AnchorPoint: "Anchor-3" 0 0 basechar 0
AnchorPoint: "Anchor-2" 300 750 basechar 0
AnchorPoint: "Anchor-1" 0 0 basechar 0
AnchorPoint: "Anchor-0" 300 0 basechar 0
LayerCount: 2
Fore
SplineSet
358 579 m 1xbc
 241 579 l 1
 138 750 l 1
 222 750 l 1
 300 631 l 1
 378 750 l 1
 462 750 l 1
 358 579 l 1xbc
335 510 m 0xdc
 448 510 530 431 530 316 c 2
 530 0 l 1
 418 0 l 1
 418 303 l 2
 418 366 369 412 303 412 c 0xdc
 235 412 181 361 181 297 c 2
 181 0 l 1
 70 0 l 1
 70 500 l 1
 171 500 l 1xbc
 177 441 l 1
 215 484 270 510 335 510 c 0xdc
EndSplineSet
Validated: 1
EndChar

StartChar: ncommaaccent
Encoding: 326 326 212
Width: 595
GlyphClass: 2
Flags: MW
HStem: -176 136<281 306.5> 0 21G<70 181 70 70 418 530 418 418> 412 98<302.5 336> 480 20G<70 171 171 171>
VStem: 70 111<0 297 0 500> 304.72 64.28 418 112<0 303 303 316 0 334.5>
AnchorPoint: "Anchor-3" 0 0 basechar 0
AnchorPoint: "Anchor-2" 300 500 basechar 0
AnchorPoint: "Anchor-1" 0 0 basechar 0
AnchorPoint: "Anchor-0" 300 -301 basechar 0
LayerCount: 2
Fore
SplineSet
335 510 m 0xee
 448 510 530 431 530 316 c 2
 530 0 l 1
 418 0 l 1
 418 303 l 2
 418 366 369 412 303 412 c 0xee
 235 412 181 361 181 297 c 2
 181 0 l 1
 70 0 l 1
 70 500 l 1
 171 500 l 1xde
 177 441 l 1
 215 484 270 510 335 510 c 0xee
301 -40 m 0xde
 340 -40 369 -71 369 -115 c 0
 369 -217 322 -305 243 -301 c 1
 243 -261 l 1
 301 -260 313 -176 300 -176 c 0
 261 -176 233 -148 233 -108 c 0
 233 -69 261 -40 301 -40 c 0xde
EndSplineSet
Validated: 33
EndChar

StartChar: uni1E45
Encoding: 7749 7749 213
Width: 595
GlyphClass: 2
Flags: MW
HStem: 0 21G<70 181 70 70 418 530 418 418> 412 98<302.5 336> 480 20G<70 171 171 171> 590 135<281.5 318.5>
VStem: 70 111<0 297 0 500> 232 136<638.5 676> 418 112<0 303 303 316 0 334.5>
AnchorPoint: "Anchor-3" 0 0 basechar 0
AnchorPoint: "Anchor-2" 300 760 basechar 0
AnchorPoint: "Anchor-1" 0 0 basechar 0
AnchorPoint: "Anchor-0" 300 0 basechar 0
LayerCount: 2
Fore
SplineSet
300 590 m 0xbe
 263 590 232 620 232 657 c 0
 232 695 263 725 300 725 c 0
 337 725 368 695 368 657 c 0
 368 620 337 590 300 590 c 0xbe
335 510 m 0xde
 448 510 530 431 530 316 c 2
 530 0 l 1
 418 0 l 1
 418 303 l 2
 418 366 369 412 303 412 c 0xde
 235 412 181 361 181 297 c 2
 181 0 l 1
 70 0 l 1
 70 500 l 1
 171 500 l 1xbe
 177 441 l 1
 215 484 270 510 335 510 c 0xde
EndSplineSet
Validated: 1
EndChar

StartChar: uni1E47
Encoding: 7751 7751 214
Width: 595
GlyphClass: 2
Flags: MW
HStem: -196 136<281.5 318.5> 0 21G<70 181 70 70 418 530 418 418> 412 98<302.5 336> 480 20G<70 171 171 171>
VStem: 70 111<0 297 0 500> 232 136<-146.5 -109.5> 418 112<0 303 303 316 0 334.5>
AnchorPoint: "Anchor-3" 0 0 basechar 0
AnchorPoint: "Anchor-2" 300 500 basechar 0
AnchorPoint: "Anchor-1" 0 0 basechar 0
AnchorPoint: "Anchor-0" 300 -196 basechar 0
LayerCount: 2
Fore
SplineSet
335 510 m 0xea
 448 510 530 431 530 316 c 2
 530 0 l 1
 418 0 l 1
 418 303 l 2
 418 366 369 412 303 412 c 0xea
 235 412 181 361 181 297 c 2
 181 0 l 1
 70 0 l 1
 70 500 l 1
 171 500 l 1xda
 177 441 l 1
 215 484 270 510 335 510 c 0xea
300 -60 m 0xde
 337 -60 368 -91 368 -128 c 0
 368 -165 337 -196 300 -196 c 0
 263 -196 232 -165 232 -128 c 0
 232 -91 263 -60 300 -60 c 0xde
EndSplineSet
Validated: 1
EndChar

StartChar: eng
Encoding: 331 331 215
Width: 624
GlyphClass: 2
Flags: MW
HStem: -221 75<360 360> 0 21G<87 198 87 87> 412 88 412 98<319.5 352>
VStem: 87 111<0 297 435 500> 435 112<-72 297 297 310>
LayerCount: 2
Fore
SplineSet
350 510 m 0xdc
 460 510 547 421 547 310 c 2
 547 -72 l 2
 547 -179 463 -222 360 -221 c 1
 360 -146 l 1
 400 -147 435 -137 435 -72 c 2
 435 297 l 2
 435 361 384 412 320 412 c 0
 252 412 198 361 198 297 c 2
 198 0 l 1
 87 0 l 1
 87 500 l 1
 198 500 l 1xec
 198 435 l 1
 235 481 289 510 350 510 c 0xdc
EndSplineSet
Validated: 33
EndChar

StartChar: ntilde
Encoding: 241 241 216
Width: 595
GlyphClass: 2
Flags: MW
HStem: 0 21G<70 181 70 70 418 530 418 418> 412 98<302.5 336> 480 20G<70 171 171 171> 578 66<357.5 380 357.5 402.5> 659 66<220 242>
VStem: 70 111<0 297 0 500> 132.43 66.83 400.31 66.69 418 112<0 303 303 316 0 334.5>
AnchorPoint: "Anchor-3" 0 0 basechar 0
AnchorPoint: "Anchor-2" 300 720 basechar 0
AnchorPoint: "Anchor-1" 0 0 basechar 0
AnchorPoint: "Anchor-0" 300 0 basechar 0
LayerCount: 2
Fore
SplineSet
203 587 m 1xba80
 135 587 l 1
 121 668 166 725 231 725 c 0xda80
 274 725 306 702 328 669 c 0
 338 652 349 644 366 644 c 0
 394 644 407 673 397 716 c 1
 464 716 l 1
 479 637 437 578 368 578 c 0xb5
 329 578 298 595 272 634 c 0
 261 651 250 659 234 659 c 0
 206 659 192 629 203 587 c 1xba80
335 510 m 0
 448 510 530 431 530 316 c 2
 530 0 l 1
 418 0 l 1
 418 303 l 2
 418 366 369 412 303 412 c 0xd480
 235 412 181 361 181 297 c 2
 181 0 l 1
 70 0 l 1
 70 500 l 1
 171 500 l 1xb480
 177 441 l 1xd480
 215 484 270 510 335 510 c 0
EndSplineSet
Validated: 33
EndChar

StartChar: o
Encoding: 111 111 217
Width: 570
GlyphClass: 2
Flags: MW
HStem: -10 98<241.5 328 241.5 359> 412 98<241.5 328>
VStem: 38 109<205 295 205 322.5> 423 109<205 295>
AnchorPoint: "Anchor-3" 285 250 basechar 0
AnchorPoint: "Anchor-2" 285 500 basechar 0
AnchorPoint: "Anchor-1" 366 10 basechar 0
AnchorPoint: "Anchor-0" 285 0 basechar 0
LayerCount: 2
Fore
SplineSet
285 -10 m 0
 137 -10 38 105 38 250 c 0
 38 395 137 510 285 510 c 0
 433 510 532 395 532 250 c 0
 532 105 433 -10 285 -10 c 0
285 88 m 0
 371 88 423 160 423 250 c 0
 423 340 371 412 285 412 c 0
 198 412 147 340 147 250 c 0
 147 160 198 88 285 88 c 0
EndSplineSet
Validated: 1
Substitution2: "+U1h9FH9uY9sA lookup 16 +MLUw1jDGMPww1jDr" ordmasculine
Substitution2: "'aalt' +MFkweTBmMG51cE9TW1cweDBuMKIwrzC7MLkA in +MOkwxjDzZYdbVwAA lookup 0 +MLUw1jDGMPww1jDr" ordmasculine
EndChar

StartChar: oacute
Encoding: 243 243 218
Width: 570
GlyphClass: 2
Flags: MW
HStem: -10 98<241.5 328 241.5 359> 412 98<241.5 328> 590 160<243 443 243 443>
VStem: 38 109<205 295 205 322.5> 423 109<205 295>
AnchorPoint: "Anchor-3" 285 250 basechar 0
AnchorPoint: "Anchor-2" 285 609 basechar 0
AnchorPoint: "Anchor-1" 366 10 basechar 0
AnchorPoint: "Anchor-0" 285 0 basechar 0
LayerCount: 2
Fore
SplineSet
243 590 m 1
 330 750 l 1
 443 750 l 1
 330 590 l 1
 243 590 l 1
285 -10 m 0
 137 -10 38 105 38 250 c 0
 38 395 137 510 285 510 c 0
 433 510 532 395 532 250 c 0
 532 105 433 -10 285 -10 c 0
285 88 m 0
 371 88 423 160 423 250 c 0
 423 340 371 412 285 412 c 0
 198 412 147 340 147 250 c 0
 147 160 198 88 285 88 c 0
EndSplineSet
Validated: 1
EndChar

StartChar: uni01D2
Encoding: 466 466 219
Width: 570
GlyphClass: 2
Flags: MW
HStem: -10 98<241.5 328 241.5 359> 412 98<241.5 328> 579 171<123 226 123 343>
VStem: 38 109<205 295 205 322.5> 423 109<205 295>
AnchorPoint: "Anchor-3" 285 250 basechar 0
AnchorPoint: "Anchor-2" 285 750 basechar 0
AnchorPoint: "Anchor-1" 366 10 basechar 0
AnchorPoint: "Anchor-0" 285 0 basechar 0
LayerCount: 2
Fore
SplineSet
226 579 m 1
 123 750 l 1
 207 750 l 1
 285 631 l 1
 363 750 l 1
 447 750 l 1
 343 579 l 1
 226 579 l 1
285 -10 m 0
 137 -10 38 105 38 250 c 0
 38 395 137 510 285 510 c 0
 433 510 532 395 532 250 c 0
 532 105 433 -10 285 -10 c 0
285 88 m 0
 371 88 423 160 423 250 c 0
 423 340 371 412 285 412 c 0
 198 412 147 340 147 250 c 0
 147 160 198 88 285 88 c 0
EndSplineSet
Validated: 1
EndChar

StartChar: ocircumflex
Encoding: 244 244 220
Width: 570
GlyphClass: 2
Flags: MW
HStem: -10 98<241.5 328 241.5 359> 412 98<241.5 328> 579 171<123 343 123 343 226 359 226 447> 699 51<285 285>
VStem: 38 109<205 295 205 322.5> 423 109<205 295>
AnchorPoint: "Anchor-3" 285 250 basechar 0
AnchorPoint: "Anchor-2" 285 733 basechar 0
AnchorPoint: "Anchor-1" 366 10 basechar 0
AnchorPoint: "Anchor-0" 285 0 basechar 0
LayerCount: 2
Fore
SplineSet
123 579 m 1xec
 226 750 l 1
 343 750 l 1
 447 579 l 1
 359 579 l 1xec
 285 699 l 1xdc
 210 579 l 1
 123 579 l 1xec
285 -10 m 0
 137 -10 38 105 38 250 c 0
 38 395 137 510 285 510 c 0
 433 510 532 395 532 250 c 0
 532 105 433 -10 285 -10 c 0
285 88 m 0
 371 88 423 160 423 250 c 0
 423 340 371 412 285 412 c 0
 198 412 147 340 147 250 c 0
 147 160 198 88 285 88 c 0
EndSplineSet
Validated: 1
EndChar

StartChar: odieresis
Encoding: 246 246 221
Width: 570
GlyphClass: 2
Flags: MW
HStem: -10 98<241.5 328 241.5 359> 412 98<241.5 328> 590 135<166.5 203.5 366.5 403.5>
VStem: 38 109<205 295 205 322.5> 117 136<638.5 676> 317 135<638.5 676> 423 109<205 295>
AnchorPoint: "Anchor-3" 285 250 basechar 0
AnchorPoint: "Anchor-2" 285 733 basechar 0
AnchorPoint: "Anchor-1" 366 10 basechar 0
AnchorPoint: "Anchor-0" 285 0 basechar 0
LayerCount: 2
Fore
SplineSet
185 590 m 0xec
 148 590 117 620 117 657 c 0
 117 695 148 725 185 725 c 0
 222 725 253 695 253 657 c 0
 253 620 222 590 185 590 c 0xec
385 590 m 0
 348 590 317 620 317 657 c 0
 317 695 348 725 385 725 c 0
 422 725 452 695 452 657 c 0
 452 620 422 590 385 590 c 0
285 -10 m 0xf2
 137 -10 38 105 38 250 c 0
 38 395 137 510 285 510 c 0
 433 510 532 395 532 250 c 0
 532 105 433 -10 285 -10 c 0xf2
285 88 m 0
 371 88 423 160 423 250 c 0
 423 340 371 412 285 412 c 0
 198 412 147 340 147 250 c 0
 147 160 198 88 285 88 c 0
EndSplineSet
Validated: 1
EndChar

StartChar: uni1ECD
Encoding: 7885 7885 222
Width: 570
GlyphClass: 2
Flags: MW
HStem: -196 136<266.5 303.5> -10 98<241.5 328 241.5 359> 412 98<241.5 328>
VStem: 38 109<205 295 205 322.5> 217 136<-146.5 -109.5> 423 109<205 295>
AnchorPoint: "Anchor-3" 285 250 basechar 0
AnchorPoint: "Anchor-2" 285 500 basechar 0
AnchorPoint: "Anchor-1" 366 10 basechar 0
AnchorPoint: "Anchor-0" 285 -196 basechar 0
LayerCount: 2
Fore
SplineSet
285 -10 m 0
 137 -10 38 105 38 250 c 0
 38 395 137 510 285 510 c 0
 433 510 532 395 532 250 c 0
 532 105 433 -10 285 -10 c 0
285 88 m 0
 371 88 423 160 423 250 c 0
 423 340 371 412 285 412 c 0
 198 412 147 340 147 250 c 0
 147 160 198 88 285 88 c 0
285 -196 m 0
 248 -196 217 -165 217 -128 c 0
 217 -91 248 -60 285 -60 c 0
 322 -60 353 -91 353 -128 c 0
 353 -165 322 -196 285 -196 c 0
EndSplineSet
Validated: 1
EndChar

StartChar: ograve
Encoding: 242 242 223
Width: 570
GlyphClass: 2
Flags: MW
HStem: -10 98<241.5 328 241.5 359> 412 98<241.5 328> 590 160<123 237 123 323>
VStem: 38 109<205 295 205 322.5> 423 109<205 295>
AnchorPoint: "Anchor-3" 285 250 basechar 0
AnchorPoint: "Anchor-2" 285 609 basechar 0
AnchorPoint: "Anchor-1" 366 10 basechar 0
AnchorPoint: "Anchor-0" 285 0 basechar 0
LayerCount: 2
Fore
SplineSet
237 590 m 1
 123 750 l 1
 236 750 l 1
 323 590 l 1
 237 590 l 1
285 -10 m 0
 137 -10 38 105 38 250 c 0
 38 395 137 510 285 510 c 0
 433 510 532 395 532 250 c 0
 532 105 433 -10 285 -10 c 0
285 88 m 0
 371 88 423 160 423 250 c 0
 423 340 371 412 285 412 c 0
 198 412 147 340 147 250 c 0
 147 160 198 88 285 88 c 0
EndSplineSet
Validated: 1
EndChar

StartChar: ohungarumlaut
Encoding: 337 337 224
Width: 570
GlyphClass: 2
Flags: MW
HStem: -10 98<241.5 328 241.5 359> 412 98<241.5 328> 574 176<152 402 152 402 338 402 296 418 338 338>
VStem: 38 109<205 295 205 322.5> 423 109<205 295>
AnchorPoint: "Anchor-3" 285 250 basechar 0
AnchorPoint: "Anchor-2" 285 500 basechar 0
AnchorPoint: "Anchor-1" 366 10 basechar 0
AnchorPoint: "Anchor-0" 285 0 basechar 0
LayerCount: 2
Fore
SplineSet
152 574 m 1
 296 750 l 1
 402 750 l 1
 232 574 l 1
 152 574 l 1
338 574 m 1
 482 750 l 1
 588 750 l 1
 418 574 l 1
 338 574 l 1
285 -10 m 0
 137 -10 38 105 38 250 c 0
 38 395 137 510 285 510 c 0
 433 510 532 395 532 250 c 0
 532 105 433 -10 285 -10 c 0
285 88 m 0
 371 88 423 160 423 250 c 0
 423 340 371 412 285 412 c 0
 198 412 147 340 147 250 c 0
 147 160 198 88 285 88 c 0
EndSplineSet
Validated: 1
EndChar

StartChar: omacron
Encoding: 333 333 225
Width: 570
GlyphClass: 2
Flags: MW
HStem: -10 98<241.5 328 241.5 359> 412 98<241.5 328> 594 72<130 440 130 440>
VStem: 38 109<205 295 205 322.5> 423 109<205 295>
AnchorPoint: "Anchor-3" 285 250 basechar 0
AnchorPoint: "Anchor-2" 285 750 basechar 0
AnchorPoint: "Anchor-1" 366 10 basechar 0
AnchorPoint: "Anchor-0" 285 0 basechar 0
LayerCount: 2
Fore
SplineSet
130 594 m 1
 130 666 l 1
 440 666 l 1
 440 594 l 1
 130 594 l 1
285 -10 m 0
 137 -10 38 105 38 250 c 0
 38 395 137 510 285 510 c 0
 433 510 532 395 532 250 c 0
 532 105 433 -10 285 -10 c 0
285 88 m 0
 371 88 423 160 423 250 c 0
 423 340 371 412 285 412 c 0
 198 412 147 340 147 250 c 0
 147 160 198 88 285 88 c 0
EndSplineSet
Validated: 1
EndChar

StartChar: oslash
Encoding: 248 248 226
Width: 570
GlyphClass: 2
Flags: MW
HStem: -10 98<272 328 272 359> 412 98<241.5 298>
VStem: 38 109<227.5 295 227.5 322.5> 423 109<205 272>
AnchorPoint: "Anchor-3" 285 250 basechar 0
AnchorPoint: "Anchor-2" 285 500 basechar 0
AnchorPoint: "Anchor-1" 366 10 basechar 0
AnchorPoint: "Anchor-0" 285 0 basechar 0
LayerCount: 2
Fore
SplineSet
447 451 m 1
 501 404 532 332 532 250 c 0
 532 105 433 -10 285 -10 c 0
 238 -10 197 1 161 22 c 1
 125 -33 l 1
 70 -33 l 1
 124 48 l 1
 70 96 38 168 38 250 c 0
 38 395 137 510 285 510 c 0
 332 510 374 498 410 478 c 1
 446 532 l 1
 500 532 l 1
 447 451 l 1
147 250 m 0
 147 205 159 165 183 136 c 1
 354 393 l 1
 334 405 311 412 285 412 c 0
 198 412 147 340 147 250 c 0
285 88 m 0
 371 88 423 160 423 250 c 0
 423 294 411 334 388 363 c 1
 217 106 l 1
 236 94 259 88 285 88 c 0
EndSplineSet
Validated: 1
EndChar

StartChar: oslashacute
Encoding: 511 511 227
Width: 570
GlyphClass: 2
Flags: MW
HStem: -10 98<272 328 272 359> 412 98<241.5 298> 590 160<243 443 243 443>
VStem: 38 109<227.5 295 227.5 322.5> 423 109<205 272>
AnchorPoint: "Anchor-3" 285 250 basechar 0
AnchorPoint: "Anchor-2" 285 609 basechar 0
AnchorPoint: "Anchor-1" 366 10 basechar 0
AnchorPoint: "Anchor-0" 285 0 basechar 0
LayerCount: 2
Fore
SplineSet
443 750 m 1
 330 590 l 1
 243 590 l 1
 330 750 l 1
 443 750 l 1
447 451 m 1
 501 404 532 332 532 250 c 0
 532 105 433 -10 285 -10 c 0
 238 -10 197 1 161 22 c 1
 125 -33 l 1
 70 -33 l 1
 124 48 l 1
 70 96 38 168 38 250 c 0
 38 395 137 510 285 510 c 0
 332 510 374 498 410 478 c 1
 446 532 l 1
 500 532 l 1
 447 451 l 1
147 250 m 0
 147 205 159 165 183 136 c 1
 354 393 l 1
 334 405 311 412 285 412 c 0
 198 412 147 340 147 250 c 0
285 88 m 0
 371 88 423 160 423 250 c 0
 423 294 411 334 388 363 c 1
 217 106 l 1
 236 94 259 88 285 88 c 0
EndSplineSet
Validated: 1
EndChar

StartChar: otilde
Encoding: 245 245 228
Width: 570
GlyphClass: 2
Flags: MW
HStem: -10 98<241.5 328 241.5 359> 412 98<241.5 328> 578 66<342.5 365 342.5 387.5> 659 66<205 227>
VStem: 38 109<205 295 205 322.5> 117.43 66.83 385.31 66.69 423 109<205 295>
AnchorPoint: "Anchor-3" 285 250 basechar 0
AnchorPoint: "Anchor-2" 285 720 basechar 0
AnchorPoint: "Anchor-1" 366 10 basechar 0
AnchorPoint: "Anchor-0" 285 0 basechar 0
LayerCount: 2
Fore
SplineSet
353 578 m 0xe6
 314 578 283 595 257 634 c 0
 246 651 235 659 219 659 c 0
 191 659 177 629 188 587 c 1
 120 587 l 1
 106 668 151 725 216 725 c 0xf6
 259 725 291 702 313 669 c 0
 323 652 334 644 351 644 c 0
 379 644 392 673 382 716 c 1
 449 716 l 1
 464 637 422 578 353 578 c 0xe6
285 -10 m 0xe9
 137 -10 38 105 38 250 c 0
 38 395 137 510 285 510 c 0
 433 510 532 395 532 250 c 0
 532 105 433 -10 285 -10 c 0xe9
285 88 m 0
 371 88 423 160 423 250 c 0
 423 340 371 412 285 412 c 0
 198 412 147 340 147 250 c 0
 147 160 198 88 285 88 c 0
EndSplineSet
Validated: 33
EndChar

